<?xml version="1.0" encoding="UTF-8" standalone="no"?>
<!DOCTYPE svg PUBLIC "-//W3C//DTD SVG 1.1//EN"
 "http://www.w3.org/Graphics/SVG/1.1/DTD/svg11.dtd">
<!-- Generated by graphviz version 14.0.2 (20251019.1705)
 -->
<!-- Pages: 1 -->
<svg width="356pt" height="148pt"
 viewBox="0.00 0.00 356.00 148.00" xmlns="http://www.w3.org/2000/svg" xmlns:xlink="http://www.w3.org/1999/xlink">
<g id="graph0" class="graph" transform="scale(1 1) rotate(0) translate(4 143.5)">
<polygon fill="white" stroke="none" points="-4,4 -4,-143.5 351.88,-143.5 351.88,4 -4,4"/>
<g id="clust2" class="cluster">
<title>cluster_associated</title>
</g>
<!-- LegalBasis -->
<g id="node1" class="node">
<title>LegalBasis</title>
<g id="a_node1"><a xlink:href="../classes/itsRegulation__LegalBasis.md" xlink:title="&lt;TABLE&gt;">
<polygon fill="lightgray" stroke="none" points="1,-50.25 1,-66.5 258.75,-66.5 258.75,-50.25 1,-50.25"/>
<text xml:space="preserve" text-anchor="start" x="99.88" y="-54.1" font-family="Arial" font-size="12.00">LegalBasis</text>
<text xml:space="preserve" text-anchor="start" x="2" y="-37.85" font-family="Arial" font-size="12.00">date: xsd::date «max 1, only»</text>
<text xml:space="preserve" text-anchor="start" x="2" y="-21.6" font-family="Arial" font-size="12.00">genProp::hasName: xsd::string «exactly 1, only»</text>
<text xml:space="preserve" text-anchor="start" x="2" y="-5.35" font-family="Arial" font-size="12.00">version: xsd::string «max 1, only»</text>
<polygon fill="none" stroke="black" points="0,-0.5 0,-67.5 259.75,-67.5 259.75,-0.5 0,-0.5"/>
</a>
</g>
</g>
<!-- TroThing -->
<g id="node2" class="node">
<title>TroThing</title>
<g id="a_node2"><a xlink:href="../_counters/itsRegulation__TroThing.md" xlink:title="&lt;TABLE&gt;">
<polygon fill="lightgray" stroke="none" points="104.88,-113.38 104.88,-129.62 154.88,-129.62 154.88,-113.38 104.88,-113.38"/>
<text xml:space="preserve" text-anchor="start" x="105.88" y="-117.22" font-family="Arial" font-size="12.00">TroThing</text>
<polygon fill="none" stroke="black" points="103.88,-112.38 103.88,-130.62 155.88,-130.62 155.88,-112.38 103.88,-112.38"/>
</a>
</g>
</g>
<!-- LegalBasis&#45;&gt;TroThing -->
<g id="edge1" class="edge">
<title>LegalBasis&#45;&gt;TroThing</title>
<path fill="none" stroke="black" d="M129.88,-67.43C129.88,-75.62 129.88,-84.33 129.88,-92.29"/>
<polygon fill="none" stroke="black" points="126.38,-92.09 129.88,-102.09 133.38,-92.09 126.38,-92.09"/>
</g>
<!-- Invis -->
</g>
</svg>
