<?xml version="1.0" encoding="UTF-8" standalone="no"?>
<!DOCTYPE svg PUBLIC "-//W3C//DTD SVG 1.1//EN"
 "http://www.w3.org/Graphics/SVG/1.1/DTD/svg11.dtd">
<!-- Generated by graphviz version 14.0.2 (20251019.1705)
 -->
<!-- Pages: 1 -->
<svg width="178pt" height="232pt"
 viewBox="0.00 0.00 178.00 232.00" xmlns="http://www.w3.org/2000/svg" xmlns:xlink="http://www.w3.org/1999/xlink">
<g id="graph0" class="graph" transform="scale(1 1) rotate(0) translate(4 228)">
<polygon fill="white" stroke="none" points="-4,4 -4,-228 174.25,-228 174.25,4 -4,4"/>
<g id="clust2" class="cluster">
<title>cluster_associated</title>
</g>
<!-- RuleMaker -->
<g id="node1" class="node">
<title>RuleMaker</title>
<g id="a_node1"><a xlink:href="../classes/itsRegulation__RuleMaker.md" xlink:title="&lt;TABLE&gt;">
<polygon fill="lightgray" stroke="none" points="108.75,-124.88 108.75,-141.12 169.25,-141.12 169.25,-124.88 108.75,-124.88"/>
<text xml:space="preserve" text-anchor="start" x="109.75" y="-128.72" font-family="Arial" font-size="12.00">RuleMaker</text>
<polygon fill="none" stroke="black" points="107.75,-123.88 107.75,-142.12 170.25,-142.12 170.25,-123.88 107.75,-123.88"/>
</a>
</g>
</g>
<!-- TroThing -->
<g id="node2" class="node">
<title>TroThing</title>
<g id="a_node2"><a xlink:href="../_counters/itsRegulation__TroThing.md" xlink:title="&lt;TABLE&gt;">
<polygon fill="lightgray" stroke="none" points="114,-197.88 114,-214.12 164,-214.12 164,-197.88 114,-197.88"/>
<text xml:space="preserve" text-anchor="start" x="115" y="-201.72" font-family="Arial" font-size="12.00">TroThing</text>
<polygon fill="none" stroke="black" points="113,-196.88 113,-215.12 165,-215.12 165,-196.88 113,-196.88"/>
</a>
</g>
</g>
<!-- RuleMaker&#45;&gt;TroThing -->
<g id="edge1" class="edge">
<title>RuleMaker&#45;&gt;TroThing</title>
<path fill="none" stroke="black" d="M139,-150.71C139,-158.47 139,-167.92 139,-176.74"/>
<polygon fill="none" stroke="black" points="135.5,-176.66 139,-186.66 142.5,-176.66 135.5,-176.66"/>
</g>
<!-- Invis -->
<!-- RuleMaker&#45;&gt;Invis -->
<!-- LegalBasis -->
<g id="node4" class="node">
<title>LegalBasis</title>
<g id="a_node4"><a xlink:href="../_counters/itsRegulation__LegalBasis.md" xlink:title="&lt;TABLE&gt;">
<polygon fill="lightgray" stroke="none" points="17,-25.88 17,-42.12 79,-42.12 79,-25.88 17,-25.88"/>
<text xml:space="preserve" text-anchor="start" x="18" y="-29.73" font-family="Arial" font-size="12.00">LegalBasis</text>
<polygon fill="none" stroke="black" points="16,-24.88 16,-43.12 80,-43.12 80,-24.88 16,-24.88"/>
</a>
</g>
</g>
<!-- RuleMaker&#45;&gt;LegalBasis -->
<g id="edge4" class="edge">
<title>RuleMaker&#45;&gt;LegalBasis</title>
<path fill="none" stroke="black" d="M123.15,-115.1C108.8,-99.8 87.47,-77.07 71.2,-59.73"/>
<polygon fill="black" stroke="black" points="74.1,-57.7 64.7,-52.81 68.99,-62.49 74.1,-57.7"/>
<text xml:space="preserve" text-anchor="middle" x="131.7" y="-86.55" font-family="Arial" font-size="11.00"> legalBasis </text>
<text xml:space="preserve" text-anchor="middle" x="131.7" y="-73.05" font-family="Arial" font-size="11.00"> «max 1» &#160;</text>
</g>
<!-- Invis&#45;&gt;LegalBasis -->
</g>
</svg>
