<?xml version="1.0" encoding="UTF-8" standalone="no"?>
<!DOCTYPE svg PUBLIC "-//W3C//DTD SVG 1.1//EN"
 "http://www.w3.org/Graphics/SVG/1.1/DTD/svg11.dtd">
<!-- Generated by graphviz version 14.0.2 (20251019.1705)
 -->
<!-- Pages: 1 -->
<svg width="611pt" height="591pt"
 viewBox="0.00 0.00 611.00 591.00" xmlns="http://www.w3.org/2000/svg" xmlns:xlink="http://www.w3.org/1999/xlink">
<g id="graph0" class="graph" transform="scale(1 1) rotate(0) translate(4 586.75)">
<polygon fill="white" stroke="none" points="-4,4 -4,-586.75 607,-586.75 607,4 -4,4"/>
<g id="clust2" class="cluster">
<title>cluster_associated</title>
</g>
<!-- TrafficRegulationOrder -->
<g id="node1" class="node">
<title>TrafficRegulationOrder</title>
<g id="a_node1"><a xlink:href="../classes/itsRegulation__TrafficRegulationOrder.md" xlink:title="&lt;TABLE&gt;">
<polygon fill="lightgray" stroke="none" points="127.38,-492.5 127.38,-508.75 398.62,-508.75 398.62,-492.5 127.38,-492.5"/>
<text xml:space="preserve" text-anchor="start" x="202.62" y="-496.35" font-family="Arial" font-size="12.00">TrafficRegulationOrder</text>
<text xml:space="preserve" text-anchor="start" x="128.38" y="-480.1" font-family="Arial" font-size="12.00">genProp::hasDescription: xsd::string «max 1, only»</text>
<text xml:space="preserve" text-anchor="start" x="128.38" y="-463.85" font-family="Arial" font-size="12.00">genProp::hasIdentifier: xsd::string «exactly 1, only»</text>
<polygon fill="none" stroke="black" points="126.38,-459 126.38,-509.75 399.62,-509.75 399.62,-459 126.38,-459"/>
</a>
</g>
</g>
<!-- TroThing -->
<g id="node2" class="node">
<title>TroThing</title>
<g id="a_node2"><a xlink:href="../_counters/itsRegulation__TroThing.md" xlink:title="&lt;TABLE&gt;">
<polygon fill="lightgray" stroke="none" points="238,-556.62 238,-572.88 288,-572.88 288,-556.62 238,-556.62"/>
<text xml:space="preserve" text-anchor="start" x="239" y="-560.48" font-family="Arial" font-size="12.00">TroThing</text>
<polygon fill="none" stroke="black" points="237,-555.62 237,-573.88 289,-573.88 289,-555.62 237,-555.62"/>
</a>
</g>
</g>
<!-- TrafficRegulationOrder&#45;&gt;TroThing -->
<g id="edge1" class="edge">
<title>TrafficRegulationOrder&#45;&gt;TroThing</title>
<path fill="none" stroke="black" d="M263,-509.71C263,-517.97 263,-527.27 263,-535.79"/>
<polygon fill="none" stroke="black" points="259.5,-535.62 263,-545.62 266.5,-535.62 259.5,-535.62"/>
</g>
<!-- Invis -->
<!-- TrafficRegulationOrder&#45;&gt;Invis -->
<!-- code__Code -->
<g id="node4" class="node">
<title>code__Code</title>
<polygon fill="lightgray" stroke="none" points="18.25,-369.88 18.25,-386.12 81.75,-386.12 81.75,-369.88 18.25,-369.88"/>
<text xml:space="preserve" text-anchor="start" x="19.25" y="-373.73" font-family="Arial" font-size="12.00">code::Code</text>
<polygon fill="none" stroke="black" points="17.25,-368.88 17.25,-387.12 82.75,-387.12 82.75,-368.88 17.25,-368.88"/>
</g>
<!-- TrafficRegulationOrder&#45;&gt;code__Code -->
<g id="edge8" class="edge">
<title>TrafficRegulationOrder&#45;&gt;code__Code</title>
<path fill="none" stroke="black" d="M127.24,-459C82.77,-450.71 44.16,-443.01 42.5,-441 34.7,-431.56 35.24,-418.39 38.28,-406.61"/>
<polygon fill="black" stroke="black" points="41.53,-407.94 41.3,-397.35 34.87,-405.77 41.53,-407.94"/>
<text xml:space="preserve" text-anchor="middle" x="86.75" y="-430.55" font-family="Arial" font-size="11.00"> status </text>
<text xml:space="preserve" text-anchor="middle" x="86.75" y="-417.05" font-family="Arial" font-size="11.00"> «exactly 1, only» &#160;</text>
</g>
<!-- TrafficRegulationOrder&#45;&gt;code__Code -->
<g id="edge14" class="edge">
<title>TrafficRegulationOrder&#45;&gt;code__Code</title>
<path fill="none" stroke="black" d="M185.83,-459.11C174.58,-453.99 163.52,-447.98 153.75,-441 140.98,-431.88 143.59,-423.36 131,-414 124.29,-409.01 108.59,-401.92 92.78,-395.42"/>
<polygon fill="black" stroke="black" points="94.45,-392.32 83.87,-391.83 91.84,-398.82 94.45,-392.32"/>
<text xml:space="preserve" text-anchor="middle" x="186.38" y="-430.55" font-family="Arial" font-size="11.00"> reasonCode </text>
<text xml:space="preserve" text-anchor="middle" x="186.38" y="-417.05" font-family="Arial" font-size="11.00"> «only» &#160;</text>
</g>
<!-- its&#45;time__Validity -->
<g id="node5" class="node">
<title>its&#45;time__Validity</title>
<polygon fill="lightgray" stroke="none" points="24.75,-270.88 24.75,-287.12 109.25,-287.12 109.25,-270.88 24.75,-270.88"/>
<text xml:space="preserve" text-anchor="start" x="25.75" y="-274.73" font-family="Arial" font-size="12.00">its&#45;time::Validity</text>
<polygon fill="none" stroke="black" points="23.75,-269.88 23.75,-288.12 110.25,-288.12 110.25,-269.88 23.75,-269.88"/>
</g>
<!-- TrafficRegulationOrder&#45;&gt;its&#45;time__Validity -->
<g id="edge9" class="edge">
<title>TrafficRegulationOrder&#45;&gt;its&#45;time__Validity</title>
<path fill="none" stroke="black" d="M253.56,-459.23C246.36,-443.95 234.93,-425.06 219,-414 187.19,-391.92 165.08,-418.76 133.75,-396 103.65,-374.13 85.09,-334.24 75.41,-307.42"/>
<polygon fill="black" stroke="black" points="78.82,-306.59 72.28,-298.25 72.2,-308.85 78.82,-306.59"/>
<text xml:space="preserve" text-anchor="middle" x="184.38" y="-381.05" font-family="Arial" font-size="11.00"> implementedValidity </text>
<text xml:space="preserve" text-anchor="middle" x="184.38" y="-367.55" font-family="Arial" font-size="11.00"> «max 1, only» &#160;</text>
</g>
<!-- TrafficRegulationOrder&#45;&gt;its&#45;time__Validity -->
<g id="edge10" class="edge">
<title>TrafficRegulationOrder&#45;&gt;its&#45;time__Validity</title>
<path fill="none" stroke="black" d="M263.51,-459.39C262.85,-432.42 257.91,-388.64 235,-360 206.53,-324.41 158.42,-303.75 120.96,-292.38"/>
<polygon fill="black" stroke="black" points="122.24,-289.1 111.66,-289.69 120.3,-295.83 122.24,-289.1"/>
<text xml:space="preserve" text-anchor="middle" x="292.69" y="-381.05" font-family="Arial" font-size="11.00"> validityByOrder </text>
<text xml:space="preserve" text-anchor="middle" x="292.69" y="-367.55" font-family="Arial" font-size="11.00"> «max 1, only» &#160;</text>
</g>
<!-- LegalBasis -->
<g id="node6" class="node">
<title>LegalBasis</title>
<g id="a_node6"><a xlink:href="../_counters/itsRegulation__LegalBasis.md" xlink:title="&lt;TABLE&gt;">
<polygon fill="lightgray" stroke="none" points="43,-171.88 43,-188.12 105,-188.12 105,-171.88 43,-171.88"/>
<text xml:space="preserve" text-anchor="start" x="44" y="-175.72" font-family="Arial" font-size="12.00">LegalBasis</text>
<polygon fill="none" stroke="black" points="42,-170.88 42,-189.12 106,-189.12 106,-170.88 42,-170.88"/>
</a>
</g>
</g>
<!-- TrafficRegulationOrder&#45;&gt;LegalBasis -->
<g id="edge12" class="edge">
<title>TrafficRegulationOrder&#45;&gt;LegalBasis</title>
<path fill="none" stroke="black" d="M293.94,-459.19C321.43,-434.6 354.59,-395.21 336,-360 334.41,-356.99 179.02,-251.87 108.33,-204.15"/>
<polygon fill="black" stroke="black" points="110.44,-201.36 100.19,-198.66 106.52,-207.16 110.44,-201.36"/>
<text xml:space="preserve" text-anchor="middle" x="347.76" y="-331.55" font-family="Arial" font-size="11.00"> legalBasis </text>
<text xml:space="preserve" text-anchor="middle" x="347.76" y="-318.05" font-family="Arial" font-size="11.00"> «max 1, only» &#160;</text>
</g>
<!-- RuleMaker -->
<g id="node7" class="node">
<title>RuleMaker</title>
<g id="a_node7"><a xlink:href="../_counters/itsRegulation__RuleMaker.md" xlink:title="&lt;TABLE&gt;">
<polygon fill="lightgray" stroke="none" points="43.75,-98.88 43.75,-115.12 104.25,-115.12 104.25,-98.88 43.75,-98.88"/>
<text xml:space="preserve" text-anchor="start" x="44.75" y="-102.72" font-family="Arial" font-size="12.00">RuleMaker</text>
<polygon fill="none" stroke="black" points="42.75,-97.88 42.75,-116.12 105.25,-116.12 105.25,-97.88 42.75,-97.88"/>
</a>
</g>
</g>
<!-- TrafficRegulationOrder&#45;&gt;RuleMaker -->
<g id="edge13" class="edge">
<title>TrafficRegulationOrder&#45;&gt;RuleMaker</title>
<path fill="none" stroke="black" d="M334.54,-459.18C368.59,-442.7 402,-416.87 402,-379 402,-379 402,-379 402,-179 402,-121.22 205.1,-110.35 116.42,-108.39"/>
<polygon fill="black" stroke="black" points="116.73,-104.89 106.67,-108.2 116.6,-111.89 116.73,-104.89"/>
<text xml:space="preserve" text-anchor="middle" x="446.25" y="-282.05" font-family="Arial" font-size="11.00"> issuingAuthority </text>
<text xml:space="preserve" text-anchor="middle" x="446.25" y="-268.55" font-family="Arial" font-size="11.00"> «exactly 1, only» &#160;</text>
</g>
<!-- TrafficRegulation -->
<g id="node8" class="node">
<title>TrafficRegulation</title>
<g id="a_node8"><a xlink:href="../_counters/itsRegulation__TrafficRegulation.md" xlink:title="&lt;TABLE&gt;">
<polygon fill="lightgray" stroke="none" points="16.62,-25.88 16.62,-42.12 109.38,-42.12 109.38,-25.88 16.62,-25.88"/>
<text xml:space="preserve" text-anchor="start" x="17.62" y="-29.73" font-family="Arial" font-size="12.00">TrafficRegulation</text>
<polygon fill="none" stroke="black" points="15.62,-24.88 15.62,-43.12 110.38,-43.12 110.38,-24.88 15.62,-24.88"/>
</a>
</g>
</g>
<!-- TrafficRegulationOrder&#45;&gt;TrafficRegulation -->
<g id="edge11" class="edge">
<title>TrafficRegulationOrder&#45;&gt;TrafficRegulation</title>
<path fill="none" stroke="black" d="M399.62,-475.72C460.62,-464.11 519,-437.68 519,-379 519,-379 519,-379 519,-106 519,-66.22 244.58,-45.43 121.51,-38.11"/>
<polygon fill="black" stroke="black" points="121.78,-34.62 111.59,-37.53 121.37,-41.61 121.78,-34.62"/>
<text xml:space="preserve" text-anchor="middle" x="561" y="-232.55" font-family="Arial" font-size="11.00"> trafficRegulation </text>
<text xml:space="preserve" text-anchor="middle" x="561" y="-219.05" font-family="Arial" font-size="11.00"> «min 1, only» &#160;</text>
</g>
<!-- Invis&#45;&gt;code__Code -->
<!-- code__Code&#45;&gt;its&#45;time__Validity -->
<!-- its&#45;time__Validity&#45;&gt;LegalBasis -->
<!-- LegalBasis&#45;&gt;RuleMaker -->
<!-- RuleMaker&#45;&gt;TrafficRegulation -->
</g>
</svg>
