<?xml version="1.0" encoding="UTF-8" standalone="no"?>
<!DOCTYPE svg PUBLIC "-//W3C//DTD SVG 1.1//EN"
 "http://www.w3.org/Graphics/SVG/1.1/DTD/svg11.dtd">
<!-- Generated by graphviz version 14.0.2 (20251019.1705)
 -->
<!-- Pages: 1 -->
<svg width="356pt" height="258pt"
 viewBox="0.00 0.00 356.00 258.00" xmlns="http://www.w3.org/2000/svg" xmlns:xlink="http://www.w3.org/1999/xlink">
<g id="graph0" class="graph" transform="scale(1 1) rotate(0) translate(4 254)">
<polygon fill="white" stroke="none" points="-4,4 -4,-254 351.88,-254 351.88,4 -4,4"/>
<g id="clust2" class="cluster">
<title>cluster_associated</title>
</g>
<!-- https_//w3id.org/itsdata/regulation/LegalBasis -->
<g id="node1" class="node">
<title>https_//w3id.org/itsdata/regulation/LegalBasis</title>
<g id="a_node1"><a xlink:href="../classes/itsRegulation__https://w3id.org/itsdata/regulation/LegalBasis.md" xlink:title="&lt;TABLE&gt;">
<polygon fill="lightgray" stroke="none" points="107.12,-124.88 107.12,-141.12 346.88,-141.12 346.88,-124.88 107.12,-124.88"/>
<text xml:space="preserve" text-anchor="start" x="108.12" y="-128.72" font-family="Arial" font-size="12.00">https://w3id.org/itsdata/regulation/LegalBasis</text>
<polygon fill="none" stroke="black" points="106.12,-123.88 106.12,-142.12 347.88,-142.12 347.88,-123.88 106.12,-123.88"/>
</a>
</g>
</g>
<!-- TroThing -->
<g id="node2" class="node">
<title>TroThing</title>
<g id="a_node2"><a xlink:href="../_counters/itsRegulation__TroThing.md" xlink:title="&lt;TABLE&gt;">
<polygon fill="lightgray" stroke="none" points="164,-223.88 164,-240.12 214,-240.12 214,-223.88 164,-223.88"/>
<text xml:space="preserve" text-anchor="start" x="165" y="-227.72" font-family="Arial" font-size="12.00">TroThing</text>
<polygon fill="none" stroke="black" points="163,-222.88 163,-241.12 215,-241.12 215,-222.88 163,-222.88"/>
</a>
</g>
</g>
<!-- https_//w3id.org/itsdata/regulation/LegalBasis&#45;&gt;TroThing -->
<g id="edge1" class="edge">
<title>https_//w3id.org/itsdata/regulation/LegalBasis&#45;&gt;TroThing</title>
<path fill="none" stroke="black" d="M220.46,-150.7C214.76,-165.25 206.39,-186.61 199.71,-203.65"/>
<polygon fill="none" stroke="black" points="196.56,-202.11 196.17,-212.69 203.08,-204.66 196.56,-202.11"/>
</g>
<!-- Invis -->
<!-- https_//w3id.org/itsdata/regulation/LegalBasis&#45;&gt;Invis -->
<!-- xsd__string -->
<g id="node4" class="node">
<title>xsd__string</title>
<polygon fill="lightgray" stroke="none" points="17,-25.88 17,-42.12 73,-42.12 73,-25.88 17,-25.88"/>
<text xml:space="preserve" text-anchor="start" x="18" y="-29.73" font-family="Arial" font-size="12.00">xsd::string</text>
<polygon fill="none" stroke="black" points="16,-24.88 16,-43.12 74,-43.12 74,-24.88 16,-24.88"/>
</g>
<!-- https_//w3id.org/itsdata/regulation/LegalBasis&#45;&gt;xsd__string -->
<g id="edge4" class="edge">
<title>https_//w3id.org/itsdata/regulation/LegalBasis&#45;&gt;xsd__string</title>
<path fill="none" stroke="black" d="M195.3,-115.1C164.29,-98.58 117,-73.37 83.77,-55.66"/>
<polygon fill="black" stroke="black" points="85.75,-52.75 75.27,-51.14 82.45,-58.93 85.75,-52.75"/>
<text xml:space="preserve" text-anchor="middle" x="200.03" y="-86.55" font-family="Arial" font-size="11.00"> cdm1::hasName </text>
<text xml:space="preserve" text-anchor="middle" x="200.03" y="-73.05" font-family="Arial" font-size="11.00"> «only» &#160;</text>
</g>
<!-- owl__Thing -->
<g id="node5" class="node">
<title>owl__Thing</title>
<polygon fill="lightgray" stroke="none" points="235.25,-223.88 235.25,-240.12 292.75,-240.12 292.75,-223.88 235.25,-223.88"/>
<text xml:space="preserve" text-anchor="start" x="236.25" y="-227.72" font-family="Arial" font-size="12.00">owl::Thing</text>
<polygon fill="none" stroke="black" points="234.25,-222.88 234.25,-241.12 293.75,-241.12 293.75,-222.88 234.25,-222.88"/>
</g>
<!-- https_//w3id.org/itsdata/regulation/LegalBasis&#45;&gt;owl__Thing -->
<g id="edge5" class="edge">
<title>https_//w3id.org/itsdata/regulation/LegalBasis&#45;&gt;owl__Thing</title>
<path fill="none" stroke="black" d="M233.37,-150.7C238.92,-165.25 247.07,-186.61 253.57,-203.65"/>
<polygon fill="black" stroke="black" points="250.18,-204.59 257.02,-212.69 256.72,-202.1 250.18,-204.59"/>
<text xml:space="preserve" text-anchor="middle" x="292.28" y="-185.55" font-family="Arial" font-size="11.00"> cdm1::hasName </text>
<text xml:space="preserve" text-anchor="middle" x="292.28" y="-172.05" font-family="Arial" font-size="11.00"> «exactly 1» &#160;</text>
</g>
<!-- Invis&#45;&gt;xsd__string -->
</g>
</svg>
