<?xml version="1.0" encoding="UTF-8" standalone="no"?>
<!DOCTYPE svg PUBLIC "-//W3C//DTD SVG 1.1//EN"
 "http://www.w3.org/Graphics/SVG/1.1/DTD/svg11.dtd">
<!-- Generated by graphviz version 14.0.2 (20251019.1705)
 -->
<!-- Pages: 1 -->
<svg width="356pt" height="232pt"
 viewBox="0.00 0.00 356.00 232.00" xmlns="http://www.w3.org/2000/svg" xmlns:xlink="http://www.w3.org/1999/xlink">
<g id="graph0" class="graph" transform="scale(1 1) rotate(0) translate(4 228)">
<polygon fill="white" stroke="none" points="-4,4 -4,-228 352.12,-228 352.12,4 -4,4"/>
<g id="clust2" class="cluster">
<title>cluster_associated</title>
</g>
<!-- https_//w3id.org/itsdata/regulation/RuleMaker -->
<g id="node1" class="node">
<title>https_//w3id.org/itsdata/regulation/RuleMaker</title>
<g id="a_node1"><a xlink:href="../classes/itsRegulation__https://w3id.org/itsdata/regulation/RuleMaker.md" xlink:title="&lt;TABLE&gt;">
<polygon fill="lightgray" stroke="none" points="108.88,-124.88 108.88,-141.12 347.12,-141.12 347.12,-124.88 108.88,-124.88"/>
<text xml:space="preserve" text-anchor="start" x="109.88" y="-128.72" font-family="Arial" font-size="12.00">https://w3id.org/itsdata/regulation/RuleMaker</text>
<polygon fill="none" stroke="black" points="107.88,-123.88 107.88,-142.12 348.12,-142.12 348.12,-123.88 107.88,-123.88"/>
</a>
</g>
</g>
<!-- TroThing -->
<g id="node2" class="node">
<title>TroThing</title>
<g id="a_node2"><a xlink:href="../_counters/itsRegulation__TroThing.md" xlink:title="&lt;TABLE&gt;">
<polygon fill="lightgray" stroke="none" points="203,-197.88 203,-214.12 253,-214.12 253,-197.88 203,-197.88"/>
<text xml:space="preserve" text-anchor="start" x="204" y="-201.72" font-family="Arial" font-size="12.00">TroThing</text>
<polygon fill="none" stroke="black" points="202,-196.88 202,-215.12 254,-215.12 254,-196.88 202,-196.88"/>
</a>
</g>
</g>
<!-- https_//w3id.org/itsdata/regulation/RuleMaker&#45;&gt;TroThing -->
<g id="edge1" class="edge">
<title>https_//w3id.org/itsdata/regulation/RuleMaker&#45;&gt;TroThing</title>
<path fill="none" stroke="black" d="M228,-150.71C228,-158.47 228,-167.92 228,-176.74"/>
<polygon fill="none" stroke="black" points="224.5,-176.66 228,-186.66 231.5,-176.66 224.5,-176.66"/>
</g>
<!-- Invis -->
<!-- https_//w3id.org/itsdata/regulation/RuleMaker&#45;&gt;Invis -->
<!-- LegalBasis -->
<g id="node4" class="node">
<title>LegalBasis</title>
<g id="a_node4"><a xlink:href="../_counters/itsRegulation__LegalBasis.md" xlink:title="&lt;TABLE&gt;">
<polygon fill="lightgray" stroke="none" points="17,-25.88 17,-42.12 79,-42.12 79,-25.88 17,-25.88"/>
<text xml:space="preserve" text-anchor="start" x="18" y="-29.73" font-family="Arial" font-size="12.00">LegalBasis</text>
<polygon fill="none" stroke="black" points="16,-24.88 16,-43.12 80,-43.12 80,-24.88 16,-24.88"/>
</a>
</g>
</g>
<!-- https_//w3id.org/itsdata/regulation/RuleMaker&#45;&gt;LegalBasis -->
<g id="edge4" class="edge">
<title>https_//w3id.org/itsdata/regulation/RuleMaker&#45;&gt;LegalBasis</title>
<path fill="none" stroke="black" d="M196.65,-115.1C166.8,-99.02 121.7,-74.72 89.01,-57.1"/>
<polygon fill="black" stroke="black" points="91.09,-54.25 80.63,-52.58 87.77,-60.41 91.09,-54.25"/>
<text xml:space="preserve" text-anchor="middle" x="186.79" y="-86.55" font-family="Arial" font-size="11.00"> legalBasis </text>
<text xml:space="preserve" text-anchor="middle" x="186.79" y="-73.05" font-family="Arial" font-size="11.00"> «max 1» &#160;</text>
</g>
<!-- Invis&#45;&gt;LegalBasis -->
</g>
</svg>
