<?xml version="1.0" encoding="UTF-8" standalone="no"?>
<!DOCTYPE svg PUBLIC "-//W3C//DTD SVG 1.1//EN"
 "http://www.w3.org/Graphics/SVG/1.1/DTD/svg11.dtd">
<!-- Generated by graphviz version 14.0.2 (20251019.1705)
 -->
<!-- Pages: 1 -->
<svg width="368pt" height="132pt"
 viewBox="0.00 0.00 368.00 132.00" xmlns="http://www.w3.org/2000/svg" xmlns:xlink="http://www.w3.org/1999/xlink">
<g id="graph0" class="graph" transform="scale(1 1) rotate(0) translate(4 128)">
<polygon fill="white" stroke="none" points="-4,4 -4,-128 364.25,-128 364.25,4 -4,4"/>
<g id="clust2" class="cluster">
<title>cluster_associated</title>
</g>
<!-- https_//w3id.org/itsdata/regulation/TrafficRegulation -->
<g id="node1" class="node">
<title>https_//w3id.org/itsdata/regulation/TrafficRegulation</title>
<g id="a_node1"><a xlink:href="../classes/itsRegulation__https://w3id.org/itsdata/regulation/TrafficRegulation.md" xlink:title="&lt;TABLE&gt;">
<polygon fill="lightgray" stroke="none" points="1,-25.88 1,-42.12 271.5,-42.12 271.5,-25.88 1,-25.88"/>
<text xml:space="preserve" text-anchor="start" x="2" y="-29.73" font-family="Arial" font-size="12.00">https://w3id.org/itsdata/regulation/TrafficRegulation</text>
<polygon fill="none" stroke="black" points="0,-24.88 0,-43.12 272.5,-43.12 272.5,-24.88 0,-24.88"/>
</a>
</g>
</g>
<!-- TroThing -->
<g id="node2" class="node">
<title>TroThing</title>
<g id="a_node2"><a xlink:href="../_counters/itsRegulation__TroThing.md" xlink:title="&lt;TABLE&gt;">
<polygon fill="lightgray" stroke="none" points="111.25,-97.88 111.25,-114.12 161.25,-114.12 161.25,-97.88 111.25,-97.88"/>
<text xml:space="preserve" text-anchor="start" x="112.25" y="-101.72" font-family="Arial" font-size="12.00">TroThing</text>
<polygon fill="none" stroke="black" points="110.25,-96.88 110.25,-115.12 162.25,-115.12 162.25,-96.88 110.25,-96.88"/>
</a>
</g>
</g>
<!-- https_//w3id.org/itsdata/regulation/TrafficRegulation&#45;&gt;TroThing -->
<g id="edge1" class="edge">
<title>https_//w3id.org/itsdata/regulation/TrafficRegulation&#45;&gt;TroThing</title>
<path fill="none" stroke="black" d="M136.25,-51.79C136.25,-59.25 136.25,-68.24 136.25,-76.69"/>
<polygon fill="none" stroke="black" points="132.75,-76.54 136.25,-86.54 139.75,-76.54 132.75,-76.54"/>
</g>
<!-- Invis -->
</g>
</svg>
