<?xml version="1.0" encoding="UTF-8" standalone="no"?>
<!DOCTYPE svg PUBLIC "-//W3C//DTD SVG 1.1//EN"
 "http://www.w3.org/Graphics/SVG/1.1/DTD/svg11.dtd">
<!-- Generated by graphviz version 14.0.2 (20251019.1705)
 -->
<!-- Pages: 1 -->
<svg width="746pt" height="675pt"
 viewBox="0.00 0.00 746.00 675.00" xmlns="http://www.w3.org/2000/svg" xmlns:xlink="http://www.w3.org/1999/xlink">
<g id="graph0" class="graph" transform="scale(1 1) rotate(0) translate(4 671)">
<polygon fill="white" stroke="none" points="-4,4 -4,-671 741.75,-671 741.75,4 -4,4"/>
<g id="clust2" class="cluster">
<title>cluster_associated</title>
</g>
<!-- https_//w3id.org/itsdata/regulation/TrafficRegulationOrder -->
<g id="node1" class="node">
<title>https_//w3id.org/itsdata/regulation/TrafficRegulationOrder</title>
<g id="a_node1"><a xlink:href="../classes/itsRegulation__https://w3id.org/itsdata/regulation/TrafficRegulationOrder.md" xlink:title="&lt;TABLE&gt;">
<polygon fill="lightgray" stroke="none" points="169.75,-541.88 169.75,-558.12 470.25,-558.12 470.25,-541.88 169.75,-541.88"/>
<text xml:space="preserve" text-anchor="start" x="170.75" y="-545.73" font-family="Arial" font-size="12.00">https://w3id.org/itsdata/regulation/TrafficRegulationOrder</text>
<polygon fill="none" stroke="black" points="168.75,-540.88 168.75,-559.12 471.25,-559.12 471.25,-540.88 168.75,-540.88"/>
</a>
</g>
</g>
<!-- TroThing -->
<g id="node2" class="node">
<title>TroThing</title>
<g id="a_node2"><a xlink:href="../_counters/itsRegulation__TroThing.md" xlink:title="&lt;TABLE&gt;">
<polygon fill="lightgray" stroke="none" points="262,-640.88 262,-657.12 312,-657.12 312,-640.88 262,-640.88"/>
<text xml:space="preserve" text-anchor="start" x="263" y="-644.73" font-family="Arial" font-size="12.00">TroThing</text>
<polygon fill="none" stroke="black" points="261,-639.88 261,-658.12 313,-658.12 313,-639.88 261,-639.88"/>
</a>
</g>
</g>
<!-- https_//w3id.org/itsdata/regulation/TrafficRegulationOrder&#45;&gt;TroThing -->
<g id="edge1" class="edge">
<title>https_//w3id.org/itsdata/regulation/TrafficRegulationOrder&#45;&gt;TroThing</title>
<path fill="none" stroke="black" d="M309.75,-567.65C306.59,-573.31 303.34,-579.79 301,-586 296.92,-596.85 293.83,-609.23 291.61,-620.06"/>
<polygon fill="none" stroke="black" points="288.23,-619.09 289.81,-629.57 295.11,-620.39 288.23,-619.09"/>
</g>
<!-- Invis -->
<!-- https_//w3id.org/itsdata/regulation/TrafficRegulationOrder&#45;&gt;Invis -->
<!-- cdm2__Code -->
<g id="node4" class="node">
<title>cdm2__Code</title>
<polygon fill="lightgray" stroke="none" points="16.75,-442.88 16.75,-459.12 83.25,-459.12 83.25,-442.88 16.75,-442.88"/>
<text xml:space="preserve" text-anchor="start" x="17.75" y="-446.73" font-family="Arial" font-size="12.00">cdm2::Code</text>
<polygon fill="none" stroke="black" points="15.75,-441.88 15.75,-460.12 84.25,-460.12 84.25,-441.88 15.75,-441.88"/>
</g>
<!-- https_//w3id.org/itsdata/regulation/TrafficRegulationOrder&#45;&gt;cdm2__Code -->
<g id="edge12" class="edge">
<title>https_//w3id.org/itsdata/regulation/TrafficRegulationOrder&#45;&gt;cdm2__Code</title>
<path fill="none" stroke="black" d="M169.14,-534.19C106.24,-527.28 46.51,-519.4 41.75,-514 33.58,-504.74 34.3,-491.48 37.61,-479.6"/>
<polygon fill="black" stroke="black" points="40.89,-480.83 40.89,-470.23 34.28,-478.52 40.89,-480.83"/>
<text xml:space="preserve" text-anchor="middle" x="74.38" y="-503.55" font-family="Arial" font-size="11.00"> reasonCode </text>
<text xml:space="preserve" text-anchor="middle" x="74.38" y="-490.05" font-family="Arial" font-size="11.00"> «only» &#160;</text>
</g>
<!-- https_//w3id.org/itsdata/regulation/TrafficRegulationOrder&#45;&gt;cdm2__Code -->
<g id="edge13" class="edge">
<title>https_//w3id.org/itsdata/regulation/TrafficRegulationOrder&#45;&gt;cdm2__Code</title>
<path fill="none" stroke="black" d="M172.66,-532.07C157.91,-527.38 143.58,-521.46 130.5,-514 116.68,-506.11 119.14,-497.28 107,-487 102,-482.77 96.44,-478.7 90.81,-474.94"/>
<polygon fill="black" stroke="black" points="92.94,-472.14 82.62,-469.72 89.17,-478.05 92.94,-472.14"/>
<text xml:space="preserve" text-anchor="middle" x="174.75" y="-503.55" font-family="Arial" font-size="11.00"> status </text>
<text xml:space="preserve" text-anchor="middle" x="174.75" y="-490.05" font-family="Arial" font-size="11.00"> «exactly 1, only» &#160;</text>
</g>
<!-- its&#45;time__Validity -->
<g id="node5" class="node">
<title>its&#45;time__Validity</title>
<polygon fill="lightgray" stroke="none" points="24.75,-343.88 24.75,-360.12 109.25,-360.12 109.25,-343.88 24.75,-343.88"/>
<text xml:space="preserve" text-anchor="start" x="25.75" y="-347.73" font-family="Arial" font-size="12.00">its&#45;time::Validity</text>
<polygon fill="none" stroke="black" points="23.75,-342.88 23.75,-361.12 110.25,-361.12 110.25,-342.88 23.75,-342.88"/>
</g>
<!-- https_//w3id.org/itsdata/regulation/TrafficRegulationOrder&#45;&gt;its&#45;time__Validity -->
<g id="edge9" class="edge">
<title>https_//w3id.org/itsdata/regulation/TrafficRegulationOrder&#45;&gt;its&#45;time__Validity</title>
<path fill="none" stroke="black" d="M278.93,-532.14C268.16,-526.96 256.81,-520.82 247,-514 232.8,-504.14 234.27,-495.1 219,-487 184.79,-468.86 165.08,-491.76 133.75,-469 103.65,-447.13 85.09,-407.24 75.41,-380.42"/>
<polygon fill="black" stroke="black" points="78.82,-379.59 72.28,-371.25 72.2,-381.85 78.82,-379.59"/>
<text xml:space="preserve" text-anchor="middle" x="184.38" y="-454.05" font-family="Arial" font-size="11.00"> implementedValidity </text>
<text xml:space="preserve" text-anchor="middle" x="184.38" y="-440.55" font-family="Arial" font-size="11.00"> «max 1, only» &#160;</text>
</g>
<!-- https_//w3id.org/itsdata/regulation/TrafficRegulationOrder&#45;&gt;its&#45;time__Validity -->
<g id="edge15" class="edge">
<title>https_//w3id.org/itsdata/regulation/TrafficRegulationOrder&#45;&gt;its&#45;time__Validity</title>
<path fill="none" stroke="black" d="M311.35,-532.38C297.89,-507.87 269.81,-461.81 235,-433 201.06,-404.91 155.6,-384.04 120.52,-370.67"/>
<polygon fill="black" stroke="black" points="122.01,-367.49 111.42,-367.29 119.57,-374.05 122.01,-367.49"/>
<text xml:space="preserve" text-anchor="middle" x="307.74" y="-454.05" font-family="Arial" font-size="11.00"> validityByOrder </text>
<text xml:space="preserve" text-anchor="middle" x="307.74" y="-440.55" font-family="Arial" font-size="11.00"> «max 1, only» &#160;</text>
</g>
<!-- LegalBasis -->
<g id="node6" class="node">
<title>LegalBasis</title>
<g id="a_node6"><a xlink:href="../_counters/itsRegulation__LegalBasis.md" xlink:title="&lt;TABLE&gt;">
<polygon fill="lightgray" stroke="none" points="43,-244.88 43,-261.12 105,-261.12 105,-244.88 43,-244.88"/>
<text xml:space="preserve" text-anchor="start" x="44" y="-248.72" font-family="Arial" font-size="12.00">LegalBasis</text>
<polygon fill="none" stroke="black" points="42,-243.88 42,-262.12 106,-262.12 106,-243.88 42,-243.88"/>
</a>
</g>
</g>
<!-- https_//w3id.org/itsdata/regulation/TrafficRegulationOrder&#45;&gt;LegalBasis -->
<g id="edge11" class="edge">
<title>https_//w3id.org/itsdata/regulation/TrafficRegulationOrder&#45;&gt;LegalBasis</title>
<path fill="none" stroke="black" d="M332.2,-532.18C347.94,-508.23 370.96,-463.77 350,-433 337.7,-414.94 323.5,-425.33 304.25,-415 227.53,-373.83 145.86,-311.8 103.44,-278.01"/>
<polygon fill="black" stroke="black" points="105.68,-275.32 95.68,-271.8 101.3,-280.79 105.68,-275.32"/>
<text xml:space="preserve" text-anchor="middle" x="342.12" y="-404.55" font-family="Arial" font-size="11.00"> legalBasis </text>
<text xml:space="preserve" text-anchor="middle" x="342.12" y="-391.05" font-family="Arial" font-size="11.00"> «max 1, only» &#160;</text>
</g>
<!-- RuleMaker -->
<g id="node7" class="node">
<title>RuleMaker</title>
<g id="a_node7"><a xlink:href="../_counters/itsRegulation__RuleMaker.md" xlink:title="&lt;TABLE&gt;">
<polygon fill="lightgray" stroke="none" points="43.75,-171.88 43.75,-188.12 104.25,-188.12 104.25,-171.88 43.75,-171.88"/>
<text xml:space="preserve" text-anchor="start" x="44.75" y="-175.72" font-family="Arial" font-size="12.00">RuleMaker</text>
<polygon fill="none" stroke="black" points="42.75,-170.88 42.75,-189.12 105.25,-189.12 105.25,-170.88 42.75,-170.88"/>
</a>
</g>
</g>
<!-- https_//w3id.org/itsdata/regulation/TrafficRegulationOrder&#45;&gt;RuleMaker -->
<g id="edge10" class="edge">
<title>https_//w3id.org/itsdata/regulation/TrafficRegulationOrder&#45;&gt;RuleMaker</title>
<path fill="none" stroke="black" d="M346.62,-532.29C352.89,-527.15 358.92,-520.98 363,-514 391.51,-465.21 406.5,-437.91 380,-388 379.05,-386.21 188.1,-257.71 108.36,-204.09"/>
<polygon fill="black" stroke="black" points="110.72,-201.46 100.46,-198.79 106.81,-207.27 110.72,-201.46"/>
<text xml:space="preserve" text-anchor="middle" x="397" y="-355.05" font-family="Arial" font-size="11.00"> issuingAuthority </text>
<text xml:space="preserve" text-anchor="middle" x="397" y="-341.55" font-family="Arial" font-size="11.00"> «exactly 1, only» &#160;</text>
</g>
<!-- TrafficRegulation -->
<g id="node8" class="node">
<title>TrafficRegulation</title>
<g id="a_node8"><a xlink:href="../_counters/itsRegulation__TrafficRegulation.md" xlink:title="&lt;TABLE&gt;">
<polygon fill="lightgray" stroke="none" points="16.62,-98.88 16.62,-115.12 109.38,-115.12 109.38,-98.88 16.62,-98.88"/>
<text xml:space="preserve" text-anchor="start" x="17.62" y="-102.72" font-family="Arial" font-size="12.00">TrafficRegulation</text>
<polygon fill="none" stroke="black" points="15.62,-97.88 15.62,-116.12 110.38,-116.12 110.38,-97.88 15.62,-97.88"/>
</a>
</g>
</g>
<!-- https_//w3id.org/itsdata/regulation/TrafficRegulationOrder&#45;&gt;TrafficRegulation -->
<g id="edge14" class="edge">
<title>https_//w3id.org/itsdata/regulation/TrafficRegulationOrder&#45;&gt;TrafficRegulation</title>
<path fill="none" stroke="black" d="M360.42,-532.11C368.97,-527.2 377.39,-521.17 384,-514 441.03,-452.07 490.46,-403.54 443,-334 430.62,-315.87 416.62,-325.84 397,-316 281.61,-258.11 154.57,-172.34 95.96,-131.4"/>
<polygon fill="black" stroke="black" points="98.26,-128.74 88.06,-125.86 94.24,-134.47 98.26,-128.74"/>
<text xml:space="preserve" text-anchor="middle" x="439" y="-305.55" font-family="Arial" font-size="11.00"> trafficRegulation </text>
<text xml:space="preserve" text-anchor="middle" x="439" y="-292.05" font-family="Arial" font-size="11.00"> «min 1, only» &#160;</text>
</g>
<!-- xsd__string -->
<g id="node9" class="node">
<title>xsd__string</title>
<polygon fill="lightgray" stroke="none" points="53,-25.88 53,-42.12 109,-42.12 109,-25.88 53,-25.88"/>
<text xml:space="preserve" text-anchor="start" x="54" y="-29.73" font-family="Arial" font-size="12.00">xsd::string</text>
<polygon fill="none" stroke="black" points="52,-24.88 52,-43.12 110,-43.12 110,-24.88 52,-24.88"/>
</g>
<!-- https_//w3id.org/itsdata/regulation/TrafficRegulationOrder&#45;&gt;xsd__string -->
<g id="edge16" class="edge">
<title>https_//w3id.org/itsdata/regulation/TrafficRegulationOrder&#45;&gt;xsd__string</title>
<path fill="none" stroke="black" d="M413.39,-532.01C455.09,-518.49 495,-494.47 495,-452 495,-452 495,-452 495,-106 495,-68.3 224.89,-45.18 121.03,-37.68"/>
<polygon fill="black" stroke="black" points="121.52,-34.21 111.29,-36.99 121.02,-41.19 121.52,-34.21"/>
<text xml:space="preserve" text-anchor="middle" x="549.75" y="-256.05" font-family="Arial" font-size="11.00"> cdm1::hasDescription </text>
<text xml:space="preserve" text-anchor="middle" x="549.75" y="-242.55" font-family="Arial" font-size="11.00"> «only» &#160;</text>
</g>
<!-- https_//w3id.org/itsdata/regulation/TrafficRegulationOrder&#45;&gt;xsd__string -->
<g id="edge17" class="edge">
<title>https_//w3id.org/itsdata/regulation/TrafficRegulationOrder&#45;&gt;xsd__string</title>
<path fill="none" stroke="black" d="M460.33,-532.01C546.7,-517.49 641,-492.39 641,-452 641,-452 641,-452 641,-106 641,-53.55 249.43,-39.17 121.15,-35.87"/>
<polygon fill="black" stroke="black" points="121.53,-32.38 111.44,-35.63 121.35,-39.38 121.53,-32.38"/>
<text xml:space="preserve" text-anchor="middle" x="689.38" y="-256.05" font-family="Arial" font-size="11.00"> cdm1::hasIdentifier </text>
<text xml:space="preserve" text-anchor="middle" x="689.38" y="-242.55" font-family="Arial" font-size="11.00"> «only» &#160;</text>
</g>
<!-- owl__Thing -->
<g id="node10" class="node">
<title>owl__Thing</title>
<polygon fill="lightgray" stroke="none" points="372.25,-640.88 372.25,-657.12 429.75,-657.12 429.75,-640.88 372.25,-640.88"/>
<text xml:space="preserve" text-anchor="start" x="373.25" y="-644.73" font-family="Arial" font-size="12.00">owl::Thing</text>
<polygon fill="none" stroke="black" points="371.25,-639.88 371.25,-658.12 430.75,-658.12 430.75,-639.88 371.25,-639.88"/>
</g>
<!-- https_//w3id.org/itsdata/regulation/TrafficRegulationOrder&#45;&gt;owl__Thing -->
<g id="edge18" class="edge">
<title>https_//w3id.org/itsdata/regulation/TrafficRegulationOrder&#45;&gt;owl__Thing</title>
<path fill="none" stroke="black" d="M315.71,-567.99C313.35,-581.35 312.46,-599.84 321.25,-613 330.3,-626.56 345.88,-634.91 360.88,-640.02"/>
<polygon fill="black" stroke="black" points="359.56,-643.28 370.14,-642.78 361.55,-636.57 359.56,-643.28"/>
<text xml:space="preserve" text-anchor="middle" x="369.62" y="-602.55" font-family="Arial" font-size="11.00"> cdm1::hasIdentifier </text>
<text xml:space="preserve" text-anchor="middle" x="369.62" y="-589.05" font-family="Arial" font-size="11.00"> «exactly 1» &#160;</text>
</g>
<!-- https_//w3id.org/itsdata/regulation/TrafficRegulationOrder&#45;&gt;owl__Thing -->
<g id="edge19" class="edge">
<title>https_//w3id.org/itsdata/regulation/TrafficRegulationOrder&#45;&gt;owl__Thing</title>
<path fill="none" stroke="black" d="M397.67,-567.9C405.61,-572.55 412.69,-578.47 418,-586 425.24,-596.27 422.82,-609.49 417.85,-621.09"/>
<polygon fill="black" stroke="black" points="414.83,-619.29 413.44,-629.79 421.08,-622.45 414.83,-619.29"/>
<text xml:space="preserve" text-anchor="middle" x="477.3" y="-602.55" font-family="Arial" font-size="11.00"> cdm1::hasDescription </text>
<text xml:space="preserve" text-anchor="middle" x="477.3" y="-589.05" font-family="Arial" font-size="11.00"> «max 1» &#160;</text>
</g>
<!-- Invis&#45;&gt;cdm2__Code -->
<!-- cdm2__Code&#45;&gt;its&#45;time__Validity -->
<!-- its&#45;time__Validity&#45;&gt;LegalBasis -->
<!-- LegalBasis&#45;&gt;RuleMaker -->
<!-- RuleMaker&#45;&gt;TrafficRegulation -->
<!-- TrafficRegulation&#45;&gt;xsd__string -->
</g>
</svg>
