<?xml version="1.0" encoding="UTF-8" standalone="no"?>
<!DOCTYPE svg PUBLIC "-//W3C//DTD SVG 1.1//EN"
 "http://www.w3.org/Graphics/SVG/1.1/DTD/svg11.dtd">
<!-- Generated by graphviz version 14.0.2 (20251019.1705)
 -->
<!-- Pages: 1 -->
<svg width="334pt" height="132pt"
 viewBox="0.00 0.00 334.00 132.00" xmlns="http://www.w3.org/2000/svg" xmlns:xlink="http://www.w3.org/1999/xlink">
<g id="graph0" class="graph" transform="scale(1 1) rotate(0) translate(4 128)">
<polygon fill="white" stroke="none" points="-4,4 -4,-128 329.62,-128 329.62,4 -4,4"/>
<g id="clust2" class="cluster">
<title>cluster_associated</title>
</g>
<!-- https_//w3id.org/itsdata/regulation/TroPattern -->
<g id="node1" class="node">
<title>https_//w3id.org/itsdata/regulation/TroPattern</title>
<g id="a_node1"><a xlink:href="../classes/itsRegulation__https://w3id.org/itsdata/regulation/TroPattern.md" xlink:title="&lt;TABLE&gt;">
<polygon fill="lightgray" stroke="none" points="1,-25.88 1,-42.12 236.25,-42.12 236.25,-25.88 1,-25.88"/>
<text xml:space="preserve" text-anchor="start" x="2" y="-29.73" font-family="Arial" font-size="12.00">https://w3id.org/itsdata/regulation/TroPattern</text>
<polygon fill="none" stroke="black" points="0,-24.88 0,-43.12 237.25,-43.12 237.25,-24.88 0,-24.88"/>
</a>
</g>
</g>
<!-- its&#45;core__ITSPattern -->
<g id="node2" class="node">
<title>its&#45;core__ITSPattern</title>
<polygon fill="lightgray" stroke="none" points="66.62,-97.88 66.62,-114.12 170.62,-114.12 170.62,-97.88 66.62,-97.88"/>
<text xml:space="preserve" text-anchor="start" x="67.62" y="-101.72" font-family="Arial" font-size="12.00">its&#45;core::ITSPattern</text>
<polygon fill="none" stroke="black" points="65.62,-96.88 65.62,-115.12 171.62,-115.12 171.62,-96.88 65.62,-96.88"/>
</g>
<!-- https_//w3id.org/itsdata/regulation/TroPattern&#45;&gt;its&#45;core__ITSPattern -->
<g id="edge1" class="edge">
<title>https_//w3id.org/itsdata/regulation/TroPattern&#45;&gt;its&#45;core__ITSPattern</title>
<path fill="none" stroke="black" d="M118.62,-51.79C118.62,-59.25 118.62,-68.24 118.62,-76.69"/>
<polygon fill="none" stroke="black" points="115.13,-76.54 118.63,-86.54 122.13,-76.54 115.13,-76.54"/>
</g>
<!-- Invis -->
</g>
</svg>
