<?xml version="1.0" encoding="UTF-8" standalone="no"?>
<!DOCTYPE svg PUBLIC "-//W3C//DTD SVG 1.1//EN"
 "http://www.w3.org/Graphics/SVG/1.1/DTD/svg11.dtd">
<!-- Generated by graphviz version 14.0.2 (20251019.1705)
 -->
<!-- Pages: 1 -->
<svg width="216pt" height="132pt"
 viewBox="0.00 0.00 216.00 132.00" xmlns="http://www.w3.org/2000/svg" xmlns:xlink="http://www.w3.org/1999/xlink">
<g id="graph0" class="graph" transform="scale(1 1) rotate(0) translate(4 128)">
<polygon fill="white" stroke="none" points="-4,4 -4,-128 211.75,-128 211.75,4 -4,4"/>
<g id="clust2" class="cluster">
<title>cluster_associated</title>
</g>
<!-- AccessControlDevice -->
<g id="node1" class="node">
<title>AccessControlDevice</title>
<g id="a_node1"><a xlink:href="../AccessControlDevice" xlink:title="&lt;TABLE&gt;">
<polygon fill="lightgray" stroke="none" points="1,-81.88 1,-98.12 118.5,-98.12 118.5,-81.88 1,-81.88"/>
<text xml:space="preserve" text-anchor="start" x="2" y="-85.72" font-family="Arial" font-size="12.00">AccessControlDevice</text>
<polygon fill="none" stroke="black" points="0,-80.88 0,-99.12 119.5,-99.12 119.5,-80.88 0,-80.88"/>
</a>
</g>
</g>
<!-- TrafficControlDevice -->
<g id="node3" class="node">
<title>TrafficControlDevice</title>
<g id="a_node3"><a xlink:href="../TrafficControlDevice" xlink:title="&lt;TABLE&gt;">
<polygon fill="lightgray" stroke="none" points="4.38,-9.88 4.38,-26.12 115.12,-26.12 115.12,-9.88 4.38,-9.88"/>
<text xml:space="preserve" text-anchor="start" x="5.38" y="-13.72" font-family="Arial" font-size="12.00">TrafficControlDevice</text>
<polygon fill="none" stroke="black" points="3.38,-8.88 3.38,-27.12 116.12,-27.12 116.12,-8.88 3.38,-8.88"/>
</a>
</g>
</g>
<!-- AccessControlDevice&#45;&gt;TrafficControlDevice -->
<g id="edge1" class="edge">
<title>AccessControlDevice&#45;&gt;TrafficControlDevice</title>
<path fill="none" stroke="black" d="M59.75,-72.05C59.75,-64.57 59.75,-55.58 59.75,-47.14"/>
<polygon fill="none" stroke="black" points="63.25,-47.3 59.75,-37.3 56.25,-47.3 63.25,-47.3"/>
</g>
<!-- Invis -->
</g>
</svg>
