<?xml version="1.0" encoding="UTF-8" standalone="no"?>
<!DOCTYPE svg PUBLIC "-//W3C//DTD SVG 1.1//EN"
 "http://www.w3.org/Graphics/SVG/1.1/DTD/svg11.dtd">
<!-- Generated by graphviz version 13.1.0 (20250701.0955)
 -->
<!-- Pages: 1 -->
<svg width="237pt" height="219pt"
 viewBox="0.00 0.00 237.00 219.00" xmlns="http://www.w3.org/2000/svg" xmlns:xlink="http://www.w3.org/1999/xlink">
<g id="graph0" class="graph" transform="scale(1 1) rotate(0) translate(4 214.5)">
<polygon fill="white" stroke="none" points="-4,4 -4,-214.5 233.29,-214.5 233.29,4 -4,4"/>
<g id="clust2" class="cluster">
<title>cluster_associated</title>
</g>
<!-- Location -->
<g id="node1" class="node">
<title>Location</title>
<g id="a_node1"><a xlink:href="../classes/Location.md" xlink:title="&lt;TABLE&gt;">
<polygon fill="lightgray" stroke="none" points="20.41,-184.38 20.41,-200.62 68.16,-200.62 68.16,-184.38 20.41,-184.38"/>
<text xml:space="preserve" text-anchor="start" x="21.41" y="-188.22" font-family="Arial" font-size="12.00">Location</text>
<polygon fill="none" stroke="black" points="19.41,-183.38 19.41,-201.62 69.16,-201.62 69.16,-183.38 19.41,-183.38"/>
</a>
</g>
</g>
<!-- AreaLocation -->
<g id="node2" class="node">
<title>AreaLocation</title>
<g id="a_node2"><a xlink:href="../classes/AreaLocation.md" xlink:title="&lt;TABLE&gt;">
<polygon fill="lightgray" stroke="none" points="7.66,-111.38 7.66,-127.62 80.91,-127.62 80.91,-111.38 7.66,-111.38"/>
<text xml:space="preserve" text-anchor="start" x="8.66" y="-115.22" font-family="Arial" font-size="12.00">AreaLocation</text>
<polygon fill="none" stroke="black" points="6.66,-110.38 6.66,-128.62 81.91,-128.62 81.91,-110.38 6.66,-110.38"/>
</a>
</g>
</g>
<!-- AreaLocation&#45;&gt;Location -->
<g id="edge1" class="edge">
<title>AreaLocation&#45;&gt;Location</title>
<path fill="none" stroke="black" d="M44.29,-137.21C44.29,-144.97 44.29,-154.42 44.29,-163.24"/>
<polygon fill="none" stroke="black" points="40.79,-163.16 44.29,-173.16 47.79,-163.16 40.79,-163.16"/>
</g>
<!-- Invis -->
<!-- AreaLocation&#45;&gt;Invis -->
<!-- code_Code -->
<g id="node4" class="node">
<title>code_Code</title>
<polygon fill="lightgray" stroke="none" points="152.04,-25.88 152.04,-42.12 212.54,-42.12 212.54,-25.88 152.04,-25.88"/>
<text xml:space="preserve" text-anchor="start" x="153.04" y="-29.73" font-family="Arial" font-size="12.00">code:Code</text>
<polygon fill="none" stroke="black" points="151.04,-24.88 151.04,-43.12 213.54,-43.12 213.54,-24.88 151.04,-24.88"/>
</g>
<!-- AreaLocation&#45;&gt;code_Code -->
<g id="edge4" class="edge">
<title>AreaLocation&#45;&gt;code_Code</title>
<path fill="none" stroke="black" d="M16.04,-101.51C4.16,-92.24 -5.13,-80.53 3.54,-70 20.44,-49.46 92.33,-40.8 139.63,-37.28"/>
<polygon fill="black" stroke="black" points="139.83,-40.77 149.57,-36.59 139.35,-33.79 139.83,-40.77"/>
<text xml:space="preserve" text-anchor="middle" x="96.91" y="-73.05" font-family="Arial" font-size="11.00">«max 1, only» areasAtWhichApplicable</text>
</g>
<!-- Invis&#45;&gt;code_Code -->
</g>
</svg>
