<?xml version="1.0" encoding="UTF-8" standalone="no"?>
<!DOCTYPE svg PUBLIC "-//W3C//DTD SVG 1.1//EN"
 "http://www.w3.org/Graphics/SVG/1.1/DTD/svg11.dtd">
<!-- Generated by graphviz version 13.1.0 (20250701.0955)
 -->
<!-- Pages: 1 -->
<svg width="218pt" height="132pt"
 viewBox="0.00 0.00 218.00 132.00" xmlns="http://www.w3.org/2000/svg" xmlns:xlink="http://www.w3.org/1999/xlink">
<g id="graph0" class="graph" transform="scale(1 1) rotate(0) translate(4 128)">
<polygon fill="white" stroke="none" points="-4,4 -4,-128 214.25,-128 214.25,4 -4,4"/>
<g id="clust2" class="cluster">
<title>cluster_associated</title>
</g>
<!-- TrafficControlDevice -->
<g id="node1" class="node">
<title>TrafficControlDevice</title>
<g id="a_node1"><a xlink:href="../classes/TrafficControlDevice.md" xlink:title="&lt;TABLE&gt;">
<polygon fill="lightgray" stroke="none" points="5.88,-97.88 5.88,-114.12 116.62,-114.12 116.62,-97.88 5.88,-97.88"/>
<text xml:space="preserve" text-anchor="start" x="6.88" y="-101.72" font-family="Arial" font-size="12.00">TrafficControlDevice</text>
<polygon fill="none" stroke="black" points="4.88,-96.88 4.88,-115.12 117.62,-115.12 117.62,-96.88 4.88,-96.88"/>
</a>
</g>
</g>
<!-- ChannelizationDevice -->
<g id="node2" class="node">
<title>ChannelizationDevice</title>
<g id="a_node2"><a xlink:href="../classes/ChannelizationDevice.md" xlink:title="&lt;TABLE&gt;">
<polygon fill="lightgray" stroke="none" points="1,-25.88 1,-42.12 121.5,-42.12 121.5,-25.88 1,-25.88"/>
<text xml:space="preserve" text-anchor="start" x="2" y="-29.73" font-family="Arial" font-size="12.00">ChannelizationDevice</text>
<polygon fill="none" stroke="black" points="0,-24.88 0,-43.12 122.5,-43.12 122.5,-24.88 0,-24.88"/>
</a>
</g>
</g>
<!-- ChannelizationDevice&#45;&gt;TrafficControlDevice -->
<g id="edge1" class="edge">
<title>ChannelizationDevice&#45;&gt;TrafficControlDevice</title>
<path fill="none" stroke="black" d="M61.25,-51.79C61.25,-59.25 61.25,-68.24 61.25,-76.69"/>
<polygon fill="none" stroke="black" points="57.75,-76.54 61.25,-86.54 64.75,-76.54 57.75,-76.54"/>
</g>
<!-- Invis -->
</g>
</svg>
