<?xml version="1.0" encoding="UTF-8" standalone="no"?>
<!DOCTYPE svg PUBLIC "-//W3C//DTD SVG 1.1//EN"
 "http://www.w3.org/Graphics/SVG/1.1/DTD/svg11.dtd">
<!-- Generated by graphviz version 14.1.3 (20260303.0454)
 -->
<!-- Pages: 1 -->
<svg width="278pt" height="279pt"
 viewBox="0.00 0.00 278.00 279.00" xmlns="http://www.w3.org/2000/svg" xmlns:xlink="http://www.w3.org/1999/xlink">
<g id="graph0" class="graph" transform="scale(1 1) rotate(0) translate(4 275)">
<polygon fill="white" stroke="none" points="-4,4 -4,-275 274.25,-275 274.25,4 -4,4"/>
<g id="clust3" class="cluster">
<title>cluster_associated</title>
</g>
<!-- its&#45;location_LinearFeature -->
<g id="node1" class="node">
<title>its&#45;location_LinearFeature</title>
<g id="a_node1"><a xlink:href="https://w3id.org/itsdata/location/v1/LinearFeature" xlink:title="&lt;TABLE&gt;">
<polygon fill="lightgray" stroke="none" points="1,-244.88 1,-261.12 138.75,-261.12 138.75,-244.88 1,-244.88"/>
<text xml:space="preserve" text-anchor="start" x="2" y="-248.88" font-family="Arial" font-size="12.00">its&#45;location:LinearFeature</text>
<polygon fill="none" stroke="black" points="0,-243.88 0,-262.12 139.75,-262.12 139.75,-243.88 0,-243.88"/>
</a>
</g>
</g>
<!-- TrafficControlDevice -->
<g id="node2" class="node">
<title>TrafficControlDevice</title>
<g id="a_node2"><a xlink:href="../TrafficControlDevice" xlink:title="&lt;TABLE&gt;">
<polygon fill="lightgray" stroke="none" points="158.5,-244.88 158.5,-261.12 269.25,-261.12 269.25,-244.88 158.5,-244.88"/>
<text xml:space="preserve" text-anchor="start" x="159.5" y="-248.88" font-family="Arial" font-size="12.00">TrafficControlDevice</text>
<polygon fill="none" stroke="black" points="157.5,-243.88 157.5,-262.12 270.25,-262.12 270.25,-243.88 157.5,-243.88"/>
</a>
</g>
</g>
<!-- ChannelizationDevice -->
<g id="node3" class="node">
<title>ChannelizationDevice</title>
<g id="a_node3"><a xlink:href="../ChannelizationDevice" xlink:title="&lt;TABLE&gt;">
<polygon fill="lightgray" stroke="none" points="81.62,-171.88 81.62,-188.12 202.12,-188.12 202.12,-171.88 81.62,-171.88"/>
<text xml:space="preserve" text-anchor="start" x="82.62" y="-175.88" font-family="Arial" font-size="12.00">ChannelizationDevice</text>
<polygon fill="none" stroke="black" points="80.62,-170.88 80.62,-189.12 203.12,-189.12 203.12,-170.88 80.62,-170.88"/>
</a>
</g>
</g>
<!-- ChannelizationDevice&#45;&gt;its&#45;location_LinearFeature -->
<g id="edge1" class="edge">
<title>ChannelizationDevice&#45;&gt;its&#45;location_LinearFeature</title>
<path fill="none" stroke="black" d="M124.93,-197.71C115.99,-206.53 104.83,-217.53 94.91,-227.31"/>
<polygon fill="none" stroke="black" points="92.68,-224.6 88.02,-234.11 97.59,-229.58 92.68,-224.6"/>
</g>
<!-- ChannelizationDevice&#45;&gt;TrafficControlDevice -->
<g id="edge2" class="edge">
<title>ChannelizationDevice&#45;&gt;TrafficControlDevice</title>
<path fill="none" stroke="black" d="M158.82,-197.71C167.76,-206.53 178.92,-217.53 188.84,-227.31"/>
<polygon fill="none" stroke="black" points="186.16,-229.58 195.73,-234.11 191.07,-224.6 186.16,-229.58"/>
</g>
<!-- Invis -->
<!-- ChannelizationDevice&#45;&gt;Invis -->
<!-- ChannelizationTypeCode -->
<g id="node5" class="node">
<title>ChannelizationTypeCode</title>
<g id="a_node5"><a xlink:href="../ChannelizationTypeCode" xlink:title="&lt;TABLE&gt;">
<polygon fill="lightgray" stroke="none" points="63.62,-25.88 63.62,-42.12 202.12,-42.12 202.12,-25.88 63.62,-25.88"/>
<text xml:space="preserve" text-anchor="start" x="64.62" y="-29.88" font-family="Arial" font-size="12.00">ChannelizationTypeCode</text>
<polygon fill="none" stroke="black" points="62.62,-24.88 62.62,-43.12 203.12,-43.12 203.12,-24.88 62.62,-24.88"/>
</a>
</g>
</g>
<!-- ChannelizationDevice&#45;&gt;ChannelizationTypeCode -->
<g id="edge5" class="edge">
<title>ChannelizationDevice&#45;&gt;ChannelizationTypeCode</title>
<path fill="none" stroke="black" d="M144.11,-162.43C145.18,-153.69 146.34,-142.79 146.88,-133 147.93,-113.47 149.35,-108.4 146.88,-89 145.78,-80.38 143.73,-71.17 141.53,-62.84"/>
<polygon fill="black" stroke="black" points="144.91,-61.93 138.82,-53.27 138.18,-63.84 144.91,-61.93"/>
<text xml:space="preserve" text-anchor="middle" x="194" y="-103.3" font-family="Arial" font-size="11.00">channelizationType</text>
</g>
<!-- Invis&#45;&gt;ChannelizationTypeCode -->
</g>
</svg>
