<?xml version="1.0" encoding="UTF-8" standalone="no"?>
<!DOCTYPE svg PUBLIC "-//W3C//DTD SVG 1.1//EN"
 "http://www.w3.org/Graphics/SVG/1.1/DTD/svg11.dtd">
<!-- Generated by graphviz version 14.0.2 (20251019.1705)
 -->
<!-- Pages: 1 -->
<svg width="218pt" height="132pt"
 viewBox="0.00 0.00 218.00 132.00" xmlns="http://www.w3.org/2000/svg" xmlns:xlink="http://www.w3.org/1999/xlink">
<g id="graph0" class="graph" transform="scale(1 1) rotate(0) translate(4 128)">
<polygon fill="white" stroke="none" points="-4,4 -4,-128 214.25,-128 214.25,4 -4,4"/>
<g id="clust2" class="cluster">
<title>cluster_associated</title>
</g>
<!-- ChannelizationDevice -->
<g id="node1" class="node">
<title>ChannelizationDevice</title>
<g id="a_node1"><a xlink:href="../ChannelizationDevice" xlink:title="&lt;TABLE&gt;">
<polygon fill="lightgray" stroke="none" points="1,-81.88 1,-98.12 121.5,-98.12 121.5,-81.88 1,-81.88"/>
<text xml:space="preserve" text-anchor="start" x="2" y="-85.72" font-family="Arial" font-size="12.00">ChannelizationDevice</text>
<polygon fill="none" stroke="black" points="0,-80.88 0,-99.12 122.5,-99.12 122.5,-80.88 0,-80.88"/>
</a>
</g>
</g>
<!-- TrafficControlDevice -->
<g id="node3" class="node">
<title>TrafficControlDevice</title>
<g id="a_node3"><a xlink:href="../TrafficControlDevice" xlink:title="&lt;TABLE&gt;">
<polygon fill="lightgray" stroke="none" points="5.88,-9.88 5.88,-26.12 116.62,-26.12 116.62,-9.88 5.88,-9.88"/>
<text xml:space="preserve" text-anchor="start" x="6.88" y="-13.72" font-family="Arial" font-size="12.00">TrafficControlDevice</text>
<polygon fill="none" stroke="black" points="4.88,-8.88 4.88,-27.12 117.62,-27.12 117.62,-8.88 4.88,-8.88"/>
</a>
</g>
</g>
<!-- ChannelizationDevice&#45;&gt;TrafficControlDevice -->
<g id="edge1" class="edge">
<title>ChannelizationDevice&#45;&gt;TrafficControlDevice</title>
<path fill="none" stroke="black" d="M61.25,-72.05C61.25,-64.57 61.25,-55.58 61.25,-47.14"/>
<polygon fill="none" stroke="black" points="64.75,-47.3 61.25,-37.3 57.75,-47.3 64.75,-47.3"/>
</g>
<!-- Invis -->
</g>
</svg>
