<?xml version="1.0" encoding="UTF-8" standalone="no"?>
<!DOCTYPE svg PUBLIC "-//W3C//DTD SVG 1.1//EN"
 "http://www.w3.org/Graphics/SVG/1.1/DTD/svg11.dtd">
<!-- Generated by graphviz version 14.0.2 (20251019.1705)
 -->
<!-- Pages: 1 -->
<svg width="171pt" height="132pt"
 viewBox="0.00 0.00 171.00 132.00" xmlns="http://www.w3.org/2000/svg" xmlns:xlink="http://www.w3.org/1999/xlink">
<g id="graph0" class="graph" transform="scale(1 1) rotate(0) translate(4 128)">
<polygon fill="white" stroke="none" points="-4,4 -4,-128 166.62,-128 166.62,4 -4,4"/>
<g id="clust2" class="cluster">
<title>cluster_associated</title>
</g>
<!-- Condition -->
<g id="node1" class="node">
<title>Condition</title>
<g id="a_node1"><a xlink:href="../Condition.md" xlink:title="&lt;TABLE&gt;">
<polygon fill="lightgray" stroke="none" points="19.75,-25.88 19.75,-42.12 73.5,-42.12 73.5,-25.88 19.75,-25.88"/>
<text xml:space="preserve" text-anchor="start" x="20.75" y="-29.73" font-family="Arial" font-size="12.00">Condition</text>
<polygon fill="none" stroke="black" points="18.75,-24.88 18.75,-43.12 74.5,-43.12 74.5,-24.88 18.75,-24.88"/>
</a>
</g>
</g>
<!-- RegulationThing -->
<g id="node3" class="node">
<title>RegulationThing</title>
<g id="a_node3"><a xlink:href="../RegulationThing.md" xlink:title="&lt;TABLE&gt;">
<polygon fill="lightgray" stroke="none" points="1,-97.88 1,-114.12 92.25,-114.12 92.25,-97.88 1,-97.88"/>
<text xml:space="preserve" text-anchor="start" x="2" y="-101.72" font-family="Arial" font-size="12.00">RegulationThing</text>
<polygon fill="none" stroke="black" points="0,-96.88 0,-115.12 93.25,-115.12 93.25,-96.88 0,-96.88"/>
</a>
</g>
</g>
<!-- Condition&#45;&gt;RegulationThing -->
<g id="edge1" class="edge">
<title>Condition&#45;&gt;RegulationThing</title>
<path fill="none" stroke="black" d="M46.62,-51.79C46.62,-59.25 46.62,-68.24 46.62,-76.69"/>
<polygon fill="none" stroke="black" points="43.13,-76.54 46.63,-86.54 50.13,-76.54 43.13,-76.54"/>
</g>
<!-- Invis -->
</g>
</svg>
