<?xml version="1.0" encoding="UTF-8" standalone="no"?>
<!DOCTYPE svg PUBLIC "-//W3C//DTD SVG 1.1//EN"
 "http://www.w3.org/Graphics/SVG/1.1/DTD/svg11.dtd">
<!-- Generated by graphviz version 14.1.3 (20260303.0454)
 -->
<!-- Pages: 1 -->
<svg width="160pt" height="279pt"
 viewBox="0.00 0.00 160.00 279.00" xmlns="http://www.w3.org/2000/svg" xmlns:xlink="http://www.w3.org/1999/xlink">
<g id="graph0" class="graph" transform="scale(1 1) rotate(0) translate(4 275)">
<polygon fill="white" stroke="none" points="-4,4 -4,-275 155.62,-275 155.62,4 -4,4"/>
<g id="clust3" class="cluster">
<title>cluster_associated</title>
</g>
<!-- RegulationThing -->
<g id="node1" class="node">
<title>RegulationThing</title>
<g id="a_node1"><a xlink:href="../RegulationThing" xlink:title="&lt;TABLE&gt;">
<polygon fill="lightgray" stroke="none" points="32.38,-244.88 32.38,-261.12 123.62,-261.12 123.62,-244.88 32.38,-244.88"/>
<text xml:space="preserve" text-anchor="start" x="33.38" y="-248.88" font-family="Arial" font-size="12.00">RegulationThing</text>
<polygon fill="none" stroke="black" points="31.38,-243.88 31.38,-262.12 124.62,-262.12 124.62,-243.88 31.38,-243.88"/>
</a>
</g>
</g>
<!-- Condition -->
<g id="node2" class="node">
<title>Condition</title>
<g id="a_node2"><a xlink:href="../Condition" xlink:title="&lt;TABLE&gt;">
<polygon fill="lightgray" stroke="none" points="5.38,-180 5.38,-196.25 150.62,-196.25 150.62,-180 5.38,-180"/>
<text xml:space="preserve" text-anchor="start" x="52.12" y="-184" font-family="Arial" font-size="12.00">Condition</text>
<text xml:space="preserve" text-anchor="start" x="6.38" y="-167.75" font-family="Arial" font-size="12.00">cdm1:negate : xsd:boolean</text>
<polygon fill="none" stroke="black" points="4.38,-162.75 4.38,-197.25 151.62,-197.25 151.62,-162.75 4.38,-162.75"/>
</a>
</g>
</g>
<!-- Condition&#45;&gt;RegulationThing -->
<g id="edge1" class="edge">
<title>Condition&#45;&gt;RegulationThing</title>
<path fill="none" stroke="black" d="M78,-197.71C78,-205.47 78,-214.92 78,-223.74"/>
<polygon fill="none" stroke="black" points="74.5,-223.66 78,-233.66 81.5,-223.66 74.5,-223.66"/>
</g>
<!-- Invis -->
<!-- Condition&#45;&gt;Invis -->
<!-- xsd_boolean -->
<g id="node4" class="node">
<title>xsd_boolean</title>
<g id="a_node4"><a xlink:href="https://w3id.org/citydata/imported/xsd/latest/boolean" xlink:title="&lt;TABLE&gt;">
<polygon fill="lightgray" stroke="none" points="17.38,-25.88 17.38,-42.12 84.62,-42.12 84.62,-25.88 17.38,-25.88"/>
<text xml:space="preserve" text-anchor="start" x="18.38" y="-29.88" font-family="Arial" font-size="12.00">xsd:boolean</text>
<polygon fill="none" stroke="black" points="16.38,-24.88 16.38,-43.12 85.62,-43.12 85.62,-24.88 16.38,-24.88"/>
</a>
</g>
</g>
<!-- Condition&#45;&gt;xsd_boolean -->
<g id="edge4" class="edge">
<title>Condition&#45;&gt;xsd_boolean</title>
<path fill="none" stroke="black" d="M82.1,-162.07C85.82,-143.73 89.78,-113.75 83,-89 80.38,-79.44 75.58,-69.85 70.48,-61.46"/>
<polygon fill="black" stroke="black" points="73.46,-59.63 65.06,-53.18 67.6,-63.46 73.46,-59.63"/>
<text xml:space="preserve" text-anchor="middle" x="105.06" y="-103.3" font-family="Arial" font-size="11.00">isActive</text>
</g>
<!-- Invis&#45;&gt;xsd_boolean -->
</g>
</svg>
