<?xml version="1.0" encoding="UTF-8" standalone="no"?>
<!DOCTYPE svg PUBLIC "-//W3C//DTD SVG 1.1//EN"
 "http://www.w3.org/Graphics/SVG/1.1/DTD/svg11.dtd">
<!-- Generated by graphviz version 13.1.0 (20250701.0955)
 -->
<!-- Pages: 1 -->
<svg width="380pt" height="233pt"
 viewBox="0.00 0.00 380.00 233.00" xmlns="http://www.w3.org/2000/svg" xmlns:xlink="http://www.w3.org/1999/xlink">
<g id="graph0" class="graph" transform="scale(1 1) rotate(0) translate(4 229.25)">
<polygon fill="white" stroke="none" points="-4,4 -4,-229.25 375.75,-229.25 375.75,4 -4,4"/>
<g id="clust2" class="cluster">
<title>cluster_associated</title>
</g>
<!-- TimeThing -->
<g id="node1" class="node">
<title>TimeThing</title>
<g id="a_node1"><a xlink:href="../classes/TimeThing.md" xlink:title="&lt;TABLE&gt;">
<polygon fill="lightgray" stroke="none" points="93.25,-199.12 93.25,-215.38 152.25,-215.38 152.25,-199.12 93.25,-199.12"/>
<text xml:space="preserve" text-anchor="start" x="94.25" y="-202.97" font-family="Arial" font-size="12.00">TimeThing</text>
<polygon fill="none" stroke="black" points="92.25,-198.12 92.25,-216.38 153.25,-216.38 153.25,-198.12 92.25,-198.12"/>
</a>
</g>
</g>
<!-- DaySelector -->
<g id="node2" class="node">
<title>DaySelector</title>
<g id="a_node2"><a xlink:href="../classes/DaySelector.md" xlink:title="&lt;TABLE&gt;">
<polygon fill="lightgray" stroke="none" points="1,-135 1,-151.25 244.5,-151.25 244.5,-135 1,-135"/>
<text xml:space="preserve" text-anchor="start" x="89.75" y="-138.85" font-family="Arial" font-size="12.00">DaySelector</text>
<text xml:space="preserve" text-anchor="start" x="2" y="-122.6" font-family="Arial" font-size="12.00">applicableDayOfMonth: string «max 30, only»</text>
<text xml:space="preserve" text-anchor="start" x="2" y="-106.35" font-family="Arial" font-size="12.00">applicableMonth: string «max 11, only»</text>
<polygon fill="none" stroke="black" points="0,-101.5 0,-152.25 245.5,-152.25 245.5,-101.5 0,-101.5"/>
</a>
</g>
</g>
<!-- DaySelector&#45;&gt;TimeThing -->
<g id="edge1" class="edge">
<title>DaySelector&#45;&gt;TimeThing</title>
<path fill="none" stroke="black" d="M122.75,-152.21C122.75,-160.47 122.75,-169.77 122.75,-178.29"/>
<polygon fill="none" stroke="black" points="119.25,-178.12 122.75,-188.12 126.25,-178.12 119.25,-178.12"/>
</g>
<!-- Invis -->
<!-- DaySelector&#45;&gt;Invis -->
<!-- time_DayOfWeek -->
<g id="node4" class="node">
<title>time_DayOfWeek</title>
<polygon fill="lightgray" stroke="none" points="262.75,-25.88 262.75,-42.12 354.75,-42.12 354.75,-25.88 262.75,-25.88"/>
<text xml:space="preserve" text-anchor="start" x="263.75" y="-29.73" font-family="Arial" font-size="12.00">time:DayOfWeek</text>
<polygon fill="none" stroke="black" points="261.75,-24.88 261.75,-43.12 355.75,-43.12 355.75,-24.88 261.75,-24.88"/>
</g>
<!-- DaySelector&#45;&gt;time_DayOfWeek -->
<g id="edge4" class="edge">
<title>DaySelector&#45;&gt;time_DayOfWeek</title>
<path fill="none" stroke="black" d="M118.68,-101.55C118.27,-90.66 119.95,-78.4 127.5,-70 143.73,-51.95 204.24,-43 250.92,-38.71"/>
<polygon fill="black" stroke="black" points="250.99,-42.22 260.65,-37.87 250.39,-35.24 250.99,-42.22"/>
<text xml:space="preserve" text-anchor="middle" x="215.62" y="-73.05" font-family="Arial" font-size="11.00">«max 6, only» applicableDayOfWeek</text>
</g>
<!-- Invis&#45;&gt;time_DayOfWeek -->
</g>
</svg>
