<?xml version="1.0" encoding="UTF-8" standalone="no"?>
<!DOCTYPE svg PUBLIC "-//W3C//DTD SVG 1.1//EN"
 "http://www.w3.org/Graphics/SVG/1.1/DTD/svg11.dtd">
<!-- Generated by graphviz version 13.1.0 (20250701.0955)
 -->
<!-- Pages: 1 -->
<svg width="274pt" height="219pt"
 viewBox="0.00 0.00 274.00 219.00" xmlns="http://www.w3.org/2000/svg" xmlns:xlink="http://www.w3.org/1999/xlink">
<g id="graph0" class="graph" transform="scale(1 1) rotate(0) translate(4 214.5)">
<polygon fill="white" stroke="none" points="-4,4 -4,-214.5 270.38,-214.5 270.38,4 -4,4"/>
<g id="clust2" class="cluster">
<title>cluster_associated</title>
</g>
<!-- LocationReference -->
<g id="node1" class="node">
<title>LocationReference</title>
<g id="a_node1"><a xlink:href="../classes/LocationReference.md" xlink:title="&lt;TABLE&gt;">
<polygon fill="lightgray" stroke="none" points="28.75,-184.38 28.75,-200.62 132,-200.62 132,-184.38 28.75,-184.38"/>
<text xml:space="preserve" text-anchor="start" x="29.75" y="-188.22" font-family="Arial" font-size="12.00">LocationReference</text>
<polygon fill="none" stroke="black" points="27.75,-183.38 27.75,-201.62 133,-201.62 133,-183.38 27.75,-183.38"/>
</a>
</g>
</g>
<!-- IndexedLocation -->
<g id="node2" class="node">
<title>IndexedLocation</title>
<g id="a_node2"><a xlink:href="../classes/IndexedLocation.md" xlink:title="&lt;TABLE&gt;">
<polygon fill="lightgray" stroke="none" points="1,-119.5 1,-135.75 159.75,-135.75 159.75,-119.5 1,-119.5"/>
<text xml:space="preserve" text-anchor="start" x="36.12" y="-123.35" font-family="Arial" font-size="12.00">IndexedLocation</text>
<text xml:space="preserve" text-anchor="start" x="2" y="-107.1" font-family="Arial" font-size="12.00">index: string «exactly 1, only»</text>
<polygon fill="none" stroke="black" points="0,-102.25 0,-136.75 160.75,-136.75 160.75,-102.25 0,-102.25"/>
</a>
</g>
</g>
<!-- IndexedLocation&#45;&gt;LocationReference -->
<g id="edge1" class="edge">
<title>IndexedLocation&#45;&gt;LocationReference</title>
<path fill="none" stroke="black" d="M80.38,-137.21C80.38,-144.97 80.38,-154.42 80.38,-163.24"/>
<polygon fill="none" stroke="black" points="76.88,-163.16 80.38,-173.16 83.88,-163.16 76.88,-163.16"/>
</g>
<!-- Invis -->
<!-- IndexedLocation&#45;&gt;Invis -->
<!-- Location -->
<g id="node4" class="node">
<title>Location</title>
<g id="a_node4"><a xlink:href="../classes/Location" xlink:title="Location">
<polygon fill="lightgray" stroke="none" points="199.5,-25.88 199.5,-42.12 247.25,-42.12 247.25,-25.88 199.5,-25.88"/>
<text xml:space="preserve" text-anchor="start" x="200.5" y="-29.73" font-family="Arial" font-size="12.00">Location</text>
<polygon fill="none" stroke="black" points="198.5,-24.88 198.5,-43.12 248.25,-43.12 248.25,-24.88 198.5,-24.88"/>
</a>
</g>
</g>
<!-- IndexedLocation&#45;&gt;Location -->
<g id="edge4" class="edge">
<title>IndexedLocation&#45;&gt;Location</title>
<path fill="none" stroke="black" d="M83.25,-101.96C85.92,-91.42 90.91,-78.25 100.12,-70 123.51,-49.06 158.56,-40.57 185.32,-37.17"/>
<polygon fill="black" stroke="black" points="185.51,-40.67 195.08,-36.13 184.76,-33.71 185.51,-40.67"/>
<text xml:space="preserve" text-anchor="middle" x="159.75" y="-73.05" font-family="Arial" font-size="11.00">«exactly 1, only» location</text>
</g>
<!-- Invis&#45;&gt;Location -->
</g>
</svg>
