<?xml version="1.0" encoding="UTF-8" standalone="no"?>
<!DOCTYPE svg PUBLIC "-//W3C//DTD SVG 1.1//EN"
 "http://www.w3.org/Graphics/SVG/1.1/DTD/svg11.dtd">
<!-- Generated by graphviz version 13.1.0 (20250701.0955)
 -->
<!-- Pages: 1 -->
<svg width="204pt" height="219pt"
 viewBox="0.00 0.00 204.00 219.00" xmlns="http://www.w3.org/2000/svg" xmlns:xlink="http://www.w3.org/1999/xlink">
<g id="graph0" class="graph" transform="scale(1 1) rotate(0) translate(4 214.5)">
<polygon fill="white" stroke="none" points="-4,4 -4,-214.5 199.62,-214.5 199.62,4 -4,4"/>
<g id="clust2" class="cluster">
<title>cluster_associated</title>
</g>
<!-- LocationReference -->
<g id="node1" class="node">
<title>LocationReference</title>
<g id="a_node1"><a xlink:href="../classes/LocationReference.md" xlink:title="&lt;TABLE&gt;">
<polygon fill="lightgray" stroke="none" points="1,-184.38 1,-200.62 104.25,-200.62 104.25,-184.38 1,-184.38"/>
<text xml:space="preserve" text-anchor="start" x="2" y="-188.22" font-family="Arial" font-size="12.00">LocationReference</text>
<polygon fill="none" stroke="black" points="0,-183.38 0,-201.62 105.25,-201.62 105.25,-183.38 0,-183.38"/>
</a>
</g>
</g>
<!-- Itinerary -->
<g id="node2" class="node">
<title>Itinerary</title>
<g id="a_node2"><a xlink:href="../classes/Itinerary.md" xlink:title="&lt;TABLE&gt;">
<polygon fill="lightgray" stroke="none" points="30.25,-111.38 30.25,-127.62 75,-127.62 75,-111.38 30.25,-111.38"/>
<text xml:space="preserve" text-anchor="start" x="31.25" y="-115.22" font-family="Arial" font-size="12.00">Itinerary</text>
<polygon fill="none" stroke="black" points="29.25,-110.38 29.25,-128.62 76,-128.62 76,-110.38 29.25,-110.38"/>
</a>
</g>
</g>
<!-- Itinerary&#45;&gt;LocationReference -->
<g id="edge1" class="edge">
<title>Itinerary&#45;&gt;LocationReference</title>
<path fill="none" stroke="black" d="M52.62,-137.21C52.62,-144.97 52.62,-154.42 52.62,-163.24"/>
<polygon fill="none" stroke="black" points="49.13,-163.16 52.63,-173.16 56.13,-163.16 49.13,-163.16"/>
</g>
<!-- Invis -->
<!-- Itinerary&#45;&gt;Invis -->
<!-- Destination -->
<g id="node4" class="node">
<title>Destination</title>
<g id="a_node4"><a xlink:href="../classes/Destination" xlink:title="Destination">
<polygon fill="lightgray" stroke="none" points="116.25,-25.88 116.25,-42.12 179,-42.12 179,-25.88 116.25,-25.88"/>
<text xml:space="preserve" text-anchor="start" x="117.25" y="-29.73" font-family="Arial" font-size="12.00">Destination</text>
<polygon fill="none" stroke="black" points="115.25,-24.88 115.25,-43.12 180,-43.12 180,-24.88 115.25,-24.88"/>
</a>
</g>
</g>
<!-- Itinerary&#45;&gt;Destination -->
<g id="edge4" class="edge">
<title>Itinerary&#45;&gt;Destination</title>
<path fill="none" stroke="black" d="M43.57,-101.85C39.43,-91.79 36.77,-79.19 43.38,-70 57.23,-50.73 82.22,-41.92 104.26,-37.96"/>
<polygon fill="black" stroke="black" points="104.56,-41.45 113.94,-36.52 103.53,-34.53 104.56,-41.45"/>
<text xml:space="preserve" text-anchor="middle" x="100" y="-73.05" font-family="Arial" font-size="11.00">«only» routeDestination</text>
</g>
<!-- Invis&#45;&gt;Destination -->
</g>
</svg>
