<?xml version="1.0" encoding="UTF-8" standalone="no"?>
<!DOCTYPE svg PUBLIC "-//W3C//DTD SVG 1.1//EN"
 "http://www.w3.org/Graphics/SVG/1.1/DTD/svg11.dtd">
<!-- Generated by graphviz version 13.1.0 (20250701.0955)
 -->
<!-- Pages: 1 -->
<svg width="297pt" height="219pt"
 viewBox="0.00 0.00 297.00 219.00" xmlns="http://www.w3.org/2000/svg" xmlns:xlink="http://www.w3.org/1999/xlink">
<g id="graph0" class="graph" transform="scale(1 1) rotate(0) translate(4 214.5)">
<polygon fill="white" stroke="none" points="-4,4 -4,-214.5 292.75,-214.5 292.75,4 -4,4"/>
<g id="clust2" class="cluster">
<title>cluster_associated</title>
</g>
<!-- Itinerary -->
<g id="node1" class="node">
<title>Itinerary</title>
<g id="a_node1"><a xlink:href="../classes/Itinerary.md" xlink:title="&lt;TABLE&gt;">
<polygon fill="lightgray" stroke="none" points="55.38,-184.38 55.38,-200.62 100.12,-200.62 100.12,-184.38 55.38,-184.38"/>
<text xml:space="preserve" text-anchor="start" x="56.38" y="-188.22" font-family="Arial" font-size="12.00">Itinerary</text>
<polygon fill="none" stroke="black" points="54.38,-183.38 54.38,-201.62 101.12,-201.62 101.12,-183.38 54.38,-183.38"/>
</a>
</g>
</g>
<!-- ItineraryByIndexedLocations -->
<g id="node2" class="node">
<title>ItineraryByIndexedLocations</title>
<g id="a_node2"><a xlink:href="../classes/ItineraryByIndexedLocations.md" xlink:title="&lt;TABLE&gt;">
<polygon fill="lightgray" stroke="none" points="1,-111.38 1,-127.62 154.5,-127.62 154.5,-111.38 1,-111.38"/>
<text xml:space="preserve" text-anchor="start" x="2" y="-115.22" font-family="Arial" font-size="12.00">ItineraryByIndexedLocations</text>
<polygon fill="none" stroke="black" points="0,-110.38 0,-128.62 155.5,-128.62 155.5,-110.38 0,-110.38"/>
</a>
</g>
</g>
<!-- ItineraryByIndexedLocations&#45;&gt;Itinerary -->
<g id="edge1" class="edge">
<title>ItineraryByIndexedLocations&#45;&gt;Itinerary</title>
<path fill="none" stroke="black" d="M77.75,-137.21C77.75,-144.97 77.75,-154.42 77.75,-163.24"/>
<polygon fill="none" stroke="black" points="74.25,-163.16 77.75,-173.16 81.25,-163.16 74.25,-163.16"/>
</g>
<!-- Invis -->
<!-- ItineraryByIndexedLocations&#45;&gt;Invis -->
<!-- IndexedLocation -->
<g id="node4" class="node">
<title>IndexedLocation</title>
<g id="a_node4"><a xlink:href="../classes/IndexedLocation" xlink:title="IndexedLocation">
<polygon fill="lightgray" stroke="none" points="181.5,-25.88 181.5,-42.12 272,-42.12 272,-25.88 181.5,-25.88"/>
<text xml:space="preserve" text-anchor="start" x="182.5" y="-29.73" font-family="Arial" font-size="12.00">IndexedLocation</text>
<polygon fill="none" stroke="black" points="180.5,-24.88 180.5,-43.12 273,-43.12 273,-24.88 180.5,-24.88"/>
</a>
</g>
</g>
<!-- ItineraryByIndexedLocations&#45;&gt;IndexedLocation -->
<g id="edge4" class="edge">
<title>ItineraryByIndexedLocations&#45;&gt;IndexedLocation</title>
<path fill="none" stroke="black" d="M65.07,-101.78C59.06,-91.69 54.65,-79.08 62,-70 75.49,-53.35 127.53,-44.29 169.56,-39.59"/>
<polygon fill="black" stroke="black" points="169.75,-43.09 179.33,-38.56 169.02,-36.13 169.75,-43.09"/>
<text xml:space="preserve" text-anchor="middle" x="146.38" y="-73.05" font-family="Arial" font-size="11.00">«only» locationContainedInItinerary</text>
</g>
<!-- Invis&#45;&gt;IndexedLocation -->
</g>
</svg>
