<?xml version="1.0" encoding="UTF-8" standalone="no"?>
<!DOCTYPE svg PUBLIC "-//W3C//DTD SVG 1.1//EN"
 "http://www.w3.org/Graphics/SVG/1.1/DTD/svg11.dtd">
<!-- Generated by graphviz version 14.0.2 (20251019.1705)
 -->
<!-- Pages: 1 -->
<svg width="179pt" height="132pt"
 viewBox="0.00 0.00 179.00 132.00" xmlns="http://www.w3.org/2000/svg" xmlns:xlink="http://www.w3.org/1999/xlink">
<g id="graph0" class="graph" transform="scale(1 1) rotate(0) translate(4 128)">
<polygon fill="white" stroke="none" points="-4,4 -4,-128 175,-128 175,4 -4,4"/>
<g id="clust2" class="cluster">
<title>cluster_associated</title>
</g>
<!-- TroPattern -->
<g id="node1" class="node">
<title>TroPattern</title>
<g id="a_node1"><a xlink:href="../classes/itsRegulation__TroPattern.md" xlink:title="&lt;TABLE&gt;">
<polygon fill="lightgray" stroke="none" points="24.25,-25.88 24.25,-42.12 81.75,-42.12 81.75,-25.88 24.25,-25.88"/>
<text xml:space="preserve" text-anchor="start" x="25.25" y="-29.73" font-family="Arial" font-size="12.00">TroPattern</text>
<polygon fill="none" stroke="black" points="23.25,-24.88 23.25,-43.12 82.75,-43.12 82.75,-24.88 23.25,-24.88"/>
</a>
</g>
</g>
<!-- its&#45;core__ITSPattern -->
<g id="node2" class="node">
<title>its&#45;core__ITSPattern</title>
<polygon fill="lightgray" stroke="none" points="1,-97.88 1,-114.12 105,-114.12 105,-97.88 1,-97.88"/>
<text xml:space="preserve" text-anchor="start" x="2" y="-101.72" font-family="Arial" font-size="12.00">its&#45;core::ITSPattern</text>
<polygon fill="none" stroke="black" points="0,-96.88 0,-115.12 106,-115.12 106,-96.88 0,-96.88"/>
</g>
<!-- TroPattern&#45;&gt;its&#45;core__ITSPattern -->
<g id="edge1" class="edge">
<title>TroPattern&#45;&gt;its&#45;core__ITSPattern</title>
<path fill="none" stroke="black" d="M53,-51.79C53,-59.25 53,-68.24 53,-76.69"/>
<polygon fill="none" stroke="black" points="49.5,-76.54 53,-86.54 56.5,-76.54 49.5,-76.54"/>
</g>
<!-- Invis -->
</g>
</svg>
