<?xml version="1.0" encoding="UTF-8" standalone="no"?>
<!DOCTYPE svg PUBLIC "-//W3C//DTD SVG 1.1//EN"
 "http://www.w3.org/Graphics/SVG/1.1/DTD/svg11.dtd">
<!-- Generated by graphviz version 14.0.2 (20251019.1705)
 -->
<!-- Pages: 1 -->
<svg width="746pt" height="675pt"
 viewBox="0.00 0.00 746.00 675.00" xmlns="http://www.w3.org/2000/svg" xmlns:xlink="http://www.w3.org/1999/xlink">
<g id="graph0" class="graph" transform="scale(1 1) rotate(0) translate(4 671)">
<polygon fill="white" stroke="none" points="-4,4 -4,-671 741.75,-671 741.75,4 -4,4"/>
<g id="clust2" class="cluster">
<title>cluster_associated</title>
</g>
<!-- TrafficRegulationOrder -->
<g id="node1" class="node">
<title>TrafficRegulationOrder</title>
<g id="a_node1"><a xlink:href="../classes/itsRegulation__TrafficRegulationOrder.md" xlink:title="&lt;TABLE&gt;">
<polygon fill="lightgray" stroke="none" points="249.62,-541.88 249.62,-558.12 372.38,-558.12 372.38,-541.88 249.62,-541.88"/>
<text xml:space="preserve" text-anchor="start" x="250.62" y="-545.73" font-family="Arial" font-size="12.00">TrafficRegulationOrder</text>
<polygon fill="none" stroke="black" points="248.62,-540.88 248.62,-559.12 373.38,-559.12 373.38,-540.88 248.62,-540.88"/>
</a>
</g>
</g>
<!-- TroThing -->
<g id="node2" class="node">
<title>TroThing</title>
<g id="a_node2"><a xlink:href="../_counters/itsRegulation__TroThing.md" xlink:title="&lt;TABLE&gt;">
<polygon fill="lightgray" stroke="none" points="253,-640.88 253,-657.12 303,-657.12 303,-640.88 253,-640.88"/>
<text xml:space="preserve" text-anchor="start" x="254" y="-644.73" font-family="Arial" font-size="12.00">TroThing</text>
<polygon fill="none" stroke="black" points="252,-639.88 252,-658.12 304,-658.12 304,-639.88 252,-639.88"/>
</a>
</g>
</g>
<!-- TrafficRegulationOrder&#45;&gt;TroThing -->
<g id="edge1" class="edge">
<title>TrafficRegulationOrder&#45;&gt;TroThing</title>
<path fill="none" stroke="black" d="M300.75,-567.65C297.59,-573.31 294.34,-579.79 292,-586 287.92,-596.85 284.83,-609.23 282.61,-620.06"/>
<polygon fill="none" stroke="black" points="279.23,-619.09 280.81,-629.57 286.11,-620.39 279.23,-619.09"/>
</g>
<!-- Invis -->
<!-- TrafficRegulationOrder&#45;&gt;Invis -->
<!-- cdm2__Code -->
<g id="node4" class="node">
<title>cdm2__Code</title>
<polygon fill="lightgray" stroke="none" points="16.75,-442.88 16.75,-459.12 83.25,-459.12 83.25,-442.88 16.75,-442.88"/>
<text xml:space="preserve" text-anchor="start" x="17.75" y="-446.73" font-family="Arial" font-size="12.00">cdm2::Code</text>
<polygon fill="none" stroke="black" points="15.75,-441.88 15.75,-460.12 84.25,-460.12 84.25,-441.88 15.75,-441.88"/>
</g>
<!-- TrafficRegulationOrder&#45;&gt;cdm2__Code -->
<g id="edge12" class="edge">
<title>TrafficRegulationOrder&#45;&gt;cdm2__Code</title>
<path fill="none" stroke="black" d="M248.9,-543C171.52,-535.22 48.55,-521.74 41.75,-514 33.6,-504.73 34.32,-491.46 37.63,-479.58"/>
<polygon fill="black" stroke="black" points="40.91,-480.82 40.9,-470.22 34.3,-478.51 40.91,-480.82"/>
<text xml:space="preserve" text-anchor="middle" x="74.38" y="-503.55" font-family="Arial" font-size="11.00"> reasonCode </text>
<text xml:space="preserve" text-anchor="middle" x="74.38" y="-490.05" font-family="Arial" font-size="11.00"> «only» &#160;</text>
</g>
<!-- TrafficRegulationOrder&#45;&gt;cdm2__Code -->
<g id="edge13" class="edge">
<title>TrafficRegulationOrder&#45;&gt;cdm2__Code</title>
<path fill="none" stroke="black" d="M248.99,-546.97C212.43,-543.43 166.45,-534.73 130.5,-514 116.72,-506.05 119.14,-497.28 107,-487 102,-482.77 96.44,-478.7 90.81,-474.94"/>
<polygon fill="black" stroke="black" points="92.94,-472.14 82.62,-469.72 89.17,-478.05 92.94,-472.14"/>
<text xml:space="preserve" text-anchor="middle" x="174.75" y="-503.55" font-family="Arial" font-size="11.00"> status </text>
<text xml:space="preserve" text-anchor="middle" x="174.75" y="-490.05" font-family="Arial" font-size="11.00"> «exactly 1, only» &#160;</text>
</g>
<!-- its&#45;time__Validity -->
<g id="node5" class="node">
<title>its&#45;time__Validity</title>
<polygon fill="lightgray" stroke="none" points="24.75,-343.88 24.75,-360.12 109.25,-360.12 109.25,-343.88 24.75,-343.88"/>
<text xml:space="preserve" text-anchor="start" x="25.75" y="-347.73" font-family="Arial" font-size="12.00">its&#45;time::Validity</text>
<polygon fill="none" stroke="black" points="23.75,-342.88 23.75,-361.12 110.25,-361.12 110.25,-342.88 23.75,-342.88"/>
</g>
<!-- TrafficRegulationOrder&#45;&gt;its&#45;time__Validity -->
<g id="edge9" class="edge">
<title>TrafficRegulationOrder&#45;&gt;its&#45;time__Validity</title>
<path fill="none" stroke="black" d="M276.09,-532.09C266.35,-526.8 255.98,-520.6 247,-514 233.07,-503.76 234.27,-495.1 219,-487 184.79,-468.86 165.08,-491.76 133.75,-469 103.65,-447.13 85.09,-407.24 75.41,-380.42"/>
<polygon fill="black" stroke="black" points="78.82,-379.59 72.28,-371.25 72.2,-381.85 78.82,-379.59"/>
<text xml:space="preserve" text-anchor="middle" x="184.38" y="-454.05" font-family="Arial" font-size="11.00"> implementedValidity </text>
<text xml:space="preserve" text-anchor="middle" x="184.38" y="-440.55" font-family="Arial" font-size="11.00"> «max 1, only» &#160;</text>
</g>
<!-- TrafficRegulationOrder&#45;&gt;its&#45;time__Validity -->
<g id="edge15" class="edge">
<title>TrafficRegulationOrder&#45;&gt;its&#45;time__Validity</title>
<path fill="none" stroke="black" d="M303.71,-532.34C292.23,-507.78 267.83,-461.66 235,-433 201.7,-403.93 155.99,-383.08 120.66,-369.97"/>
<polygon fill="black" stroke="black" points="122.07,-366.76 111.48,-366.66 119.7,-373.34 122.07,-366.76"/>
<text xml:space="preserve" text-anchor="middle" x="305.22" y="-454.05" font-family="Arial" font-size="11.00"> validityByOrder </text>
<text xml:space="preserve" text-anchor="middle" x="305.22" y="-440.55" font-family="Arial" font-size="11.00"> «max 1, only» &#160;</text>
</g>
<!-- LegalBasis -->
<g id="node6" class="node">
<title>LegalBasis</title>
<g id="a_node6"><a xlink:href="../_counters/itsRegulation__LegalBasis.md" xlink:title="&lt;TABLE&gt;">
<polygon fill="lightgray" stroke="none" points="42,-244.88 42,-261.12 104,-261.12 104,-244.88 42,-244.88"/>
<text xml:space="preserve" text-anchor="start" x="43" y="-248.72" font-family="Arial" font-size="12.00">LegalBasis</text>
<polygon fill="none" stroke="black" points="41,-243.88 41,-262.12 105,-262.12 105,-243.88 41,-243.88"/>
</a>
</g>
</g>
<!-- TrafficRegulationOrder&#45;&gt;LegalBasis -->
<g id="edge11" class="edge">
<title>TrafficRegulationOrder&#45;&gt;LegalBasis</title>
<path fill="none" stroke="black" d="M325.01,-532.36C343.2,-508.62 370.24,-464.43 349,-433 337,-415.24 323.11,-425.19 304.25,-415 227.42,-373.5 145.3,-311.6 102.63,-277.92"/>
<polygon fill="black" stroke="black" points="104.83,-275.2 94.82,-271.73 100.48,-280.69 104.83,-275.2"/>
<text xml:space="preserve" text-anchor="middle" x="342.12" y="-404.55" font-family="Arial" font-size="11.00"> legalBasis </text>
<text xml:space="preserve" text-anchor="middle" x="342.12" y="-391.05" font-family="Arial" font-size="11.00"> «max 1, only» &#160;</text>
</g>
<!-- RuleMaker -->
<g id="node7" class="node">
<title>RuleMaker</title>
<g id="a_node7"><a xlink:href="../_counters/itsRegulation__RuleMaker.md" xlink:title="&lt;TABLE&gt;">
<polygon fill="lightgray" stroke="none" points="42.75,-171.88 42.75,-188.12 103.25,-188.12 103.25,-171.88 42.75,-171.88"/>
<text xml:space="preserve" text-anchor="start" x="43.75" y="-175.72" font-family="Arial" font-size="12.00">RuleMaker</text>
<polygon fill="none" stroke="black" points="41.75,-170.88 41.75,-189.12 104.25,-189.12 104.25,-170.88 41.75,-170.88"/>
</a>
</g>
</g>
<!-- TrafficRegulationOrder&#45;&gt;RuleMaker -->
<g id="edge10" class="edge">
<title>TrafficRegulationOrder&#45;&gt;RuleMaker</title>
<path fill="none" stroke="black" d="M341.01,-532.31C347.82,-527.24 354.4,-521.1 359,-514 389.87,-466.35 406.66,-438.12 380,-388 379.04,-386.2 187.48,-257.71 107.47,-204.09"/>
<polygon fill="black" stroke="black" points="109.8,-201.44 99.55,-198.78 105.91,-207.26 109.8,-201.44"/>
<text xml:space="preserve" text-anchor="middle" x="396.91" y="-355.05" font-family="Arial" font-size="11.00"> issuingAuthority </text>
<text xml:space="preserve" text-anchor="middle" x="396.91" y="-341.55" font-family="Arial" font-size="11.00"> «exactly 1, only» &#160;</text>
</g>
<!-- TrafficRegulation -->
<g id="node8" class="node">
<title>TrafficRegulation</title>
<g id="a_node8"><a xlink:href="../_counters/itsRegulation__TrafficRegulation.md" xlink:title="&lt;TABLE&gt;">
<polygon fill="lightgray" stroke="none" points="16.62,-98.88 16.62,-115.12 109.38,-115.12 109.38,-98.88 16.62,-98.88"/>
<text xml:space="preserve" text-anchor="start" x="17.62" y="-102.72" font-family="Arial" font-size="12.00">TrafficRegulation</text>
<polygon fill="none" stroke="black" points="15.62,-97.88 15.62,-116.12 110.38,-116.12 110.38,-97.88 15.62,-97.88"/>
</a>
</g>
</g>
<!-- TrafficRegulationOrder&#45;&gt;TrafficRegulation -->
<g id="edge14" class="edge">
<title>TrafficRegulationOrder&#45;&gt;TrafficRegulation</title>
<path fill="none" stroke="black" d="M355.74,-532.11C364.85,-527.24 373.83,-521.24 381,-514 440.56,-453.9 490.7,-403.89 443,-334 430.62,-315.87 416.62,-325.84 397,-316 281.61,-258.11 154.57,-172.34 95.96,-131.4"/>
<polygon fill="black" stroke="black" points="98.26,-128.74 88.06,-125.86 94.24,-134.47 98.26,-128.74"/>
<text xml:space="preserve" text-anchor="middle" x="439" y="-305.55" font-family="Arial" font-size="11.00"> trafficRegulation </text>
<text xml:space="preserve" text-anchor="middle" x="439" y="-292.05" font-family="Arial" font-size="11.00"> «min 1, only» &#160;</text>
</g>
<!-- xsd__string -->
<g id="node9" class="node">
<title>xsd__string</title>
<polygon fill="lightgray" stroke="none" points="53,-25.88 53,-42.12 109,-42.12 109,-25.88 53,-25.88"/>
<text xml:space="preserve" text-anchor="start" x="54" y="-29.73" font-family="Arial" font-size="12.00">xsd::string</text>
<polygon fill="none" stroke="black" points="52,-24.88 52,-43.12 110,-43.12 110,-24.88 52,-24.88"/>
</g>
<!-- TrafficRegulationOrder&#45;&gt;xsd__string -->
<g id="edge16" class="edge">
<title>TrafficRegulationOrder&#45;&gt;xsd__string</title>
<path fill="none" stroke="black" d="M373.29,-541.95C426.67,-532.03 495,-508.33 495,-452 495,-452 495,-452 495,-106 495,-68.3 224.89,-45.18 121.03,-37.68"/>
<polygon fill="black" stroke="black" points="121.52,-34.21 111.29,-36.99 121.02,-41.19 121.52,-34.21"/>
<text xml:space="preserve" text-anchor="middle" x="549.75" y="-256.05" font-family="Arial" font-size="11.00"> cdm1::hasDescription </text>
<text xml:space="preserve" text-anchor="middle" x="549.75" y="-242.55" font-family="Arial" font-size="11.00"> «only» &#160;</text>
</g>
<!-- TrafficRegulationOrder&#45;&gt;xsd__string -->
<g id="edge17" class="edge">
<title>TrafficRegulationOrder&#45;&gt;xsd__string</title>
<path fill="none" stroke="black" d="M373.07,-543.5C468.66,-533.3 641,-507.24 641,-452 641,-452 641,-452 641,-106 641,-53.55 249.43,-39.17 121.15,-35.87"/>
<polygon fill="black" stroke="black" points="121.53,-32.38 111.44,-35.63 121.35,-39.38 121.53,-32.38"/>
<text xml:space="preserve" text-anchor="middle" x="689.38" y="-256.05" font-family="Arial" font-size="11.00"> cdm1::hasIdentifier </text>
<text xml:space="preserve" text-anchor="middle" x="689.38" y="-242.55" font-family="Arial" font-size="11.00"> «only» &#160;</text>
</g>
<!-- owl__Thing -->
<g id="node10" class="node">
<title>owl__Thing</title>
<polygon fill="lightgray" stroke="none" points="363.25,-640.88 363.25,-657.12 420.75,-657.12 420.75,-640.88 363.25,-640.88"/>
<text xml:space="preserve" text-anchor="start" x="364.25" y="-644.73" font-family="Arial" font-size="12.00">owl::Thing</text>
<polygon fill="none" stroke="black" points="362.25,-639.88 362.25,-658.12 421.75,-658.12 421.75,-639.88 362.25,-639.88"/>
</g>
<!-- TrafficRegulationOrder&#45;&gt;owl__Thing -->
<g id="edge18" class="edge">
<title>TrafficRegulationOrder&#45;&gt;owl__Thing</title>
<path fill="none" stroke="black" d="M306.71,-567.99C304.35,-581.35 303.46,-599.84 312.25,-613 321.3,-626.56 336.88,-634.91 351.88,-640.02"/>
<polygon fill="black" stroke="black" points="350.56,-643.28 361.14,-642.78 352.55,-636.57 350.56,-643.28"/>
<text xml:space="preserve" text-anchor="middle" x="360.62" y="-602.55" font-family="Arial" font-size="11.00"> cdm1::hasIdentifier </text>
<text xml:space="preserve" text-anchor="middle" x="360.62" y="-589.05" font-family="Arial" font-size="11.00"> «exactly 1» &#160;</text>
</g>
<!-- TrafficRegulationOrder&#45;&gt;owl__Thing -->
<g id="edge19" class="edge">
<title>TrafficRegulationOrder&#45;&gt;owl__Thing</title>
<path fill="none" stroke="black" d="M373.2,-560.65C387.18,-565.85 400.41,-573.82 409,-586 416.24,-596.27 413.82,-609.49 408.85,-621.09"/>
<polygon fill="black" stroke="black" points="405.83,-619.29 404.44,-629.79 412.08,-622.45 405.83,-619.29"/>
<text xml:space="preserve" text-anchor="middle" x="468.3" y="-602.55" font-family="Arial" font-size="11.00"> cdm1::hasDescription </text>
<text xml:space="preserve" text-anchor="middle" x="468.3" y="-589.05" font-family="Arial" font-size="11.00"> «max 1» &#160;</text>
</g>
<!-- Invis&#45;&gt;cdm2__Code -->
<!-- cdm2__Code&#45;&gt;its&#45;time__Validity -->
<!-- its&#45;time__Validity&#45;&gt;LegalBasis -->
<!-- LegalBasis&#45;&gt;RuleMaker -->
<!-- RuleMaker&#45;&gt;TrafficRegulation -->
<!-- TrafficRegulation&#45;&gt;xsd__string -->
</g>
</svg>
