<?xml version="1.0" encoding="UTF-8" standalone="no"?>
<!DOCTYPE svg PUBLIC "-//W3C//DTD SVG 1.1//EN"
 "http://www.w3.org/Graphics/SVG/1.1/DTD/svg11.dtd">
<!-- Generated by graphviz version 14.0.2 (20251019.1705)
 -->
<!-- Pages: 1 -->
<svg width="255pt" height="258pt"
 viewBox="0.00 0.00 255.00 258.00" xmlns="http://www.w3.org/2000/svg" xmlns:xlink="http://www.w3.org/1999/xlink">
<g id="graph0" class="graph" transform="scale(1 1) rotate(0) translate(4 254)">
<polygon fill="white" stroke="none" points="-4,4 -4,-254 250.65,-254 250.65,4 -4,4"/>
<g id="clust2" class="cluster">
<title>cluster_associated</title>
</g>
<!-- LegalBasis -->
<g id="node1" class="node">
<title>LegalBasis</title>
<g id="a_node1"><a xlink:href="../classes/itsRegulation__LegalBasis.md" xlink:title="&lt;TABLE&gt;">
<polygon fill="lightgray" stroke="none" points="108,-124.88 108,-141.12 170,-141.12 170,-124.88 108,-124.88"/>
<text xml:space="preserve" text-anchor="start" x="109" y="-128.72" font-family="Arial" font-size="12.00">LegalBasis</text>
<polygon fill="none" stroke="black" points="107,-123.88 107,-142.12 171,-142.12 171,-123.88 107,-123.88"/>
</a>
</g>
</g>
<!-- TroThing -->
<g id="node2" class="node">
<title>TroThing</title>
<g id="a_node2"><a xlink:href="../_counters/itsRegulation__TroThing.md" xlink:title="&lt;TABLE&gt;">
<polygon fill="lightgray" stroke="none" points="76,-223.88 76,-240.12 126,-240.12 126,-223.88 76,-223.88"/>
<text xml:space="preserve" text-anchor="start" x="77" y="-227.72" font-family="Arial" font-size="12.00">TroThing</text>
<polygon fill="none" stroke="black" points="75,-222.88 75,-241.12 127,-241.12 127,-222.88 75,-222.88"/>
</a>
</g>
</g>
<!-- LegalBasis&#45;&gt;TroThing -->
<g id="edge1" class="edge">
<title>LegalBasis&#45;&gt;TroThing</title>
<path fill="none" stroke="black" d="M132.46,-150.7C126.76,-165.25 118.39,-186.61 111.71,-203.65"/>
<polygon fill="none" stroke="black" points="108.56,-202.11 108.17,-212.69 115.08,-204.66 108.56,-202.11"/>
</g>
<!-- Invis -->
<!-- LegalBasis&#45;&gt;Invis -->
<!-- xsd__string -->
<g id="node4" class="node">
<title>xsd__string</title>
<polygon fill="lightgray" stroke="none" points="17,-25.88 17,-42.12 73,-42.12 73,-25.88 17,-25.88"/>
<text xml:space="preserve" text-anchor="start" x="18" y="-29.73" font-family="Arial" font-size="12.00">xsd::string</text>
<polygon fill="none" stroke="black" points="16,-24.88 16,-43.12 74,-43.12 74,-24.88 16,-24.88"/>
</g>
<!-- LegalBasis&#45;&gt;xsd__string -->
<g id="edge4" class="edge">
<title>LegalBasis&#45;&gt;xsd__string</title>
<path fill="none" stroke="black" d="M122.63,-115.1C107.8,-99.8 85.77,-77.07 68.96,-59.73"/>
<polygon fill="black" stroke="black" points="71.71,-57.53 62.24,-52.79 66.68,-62.41 71.71,-57.53"/>
<text xml:space="preserve" text-anchor="middle" x="145.56" y="-86.55" font-family="Arial" font-size="11.00"> cdm1::hasName </text>
<text xml:space="preserve" text-anchor="middle" x="145.56" y="-73.05" font-family="Arial" font-size="11.00"> «only» &#160;</text>
</g>
<!-- owl__Thing -->
<g id="node5" class="node">
<title>owl__Thing</title>
<polygon fill="lightgray" stroke="none" points="147.25,-223.88 147.25,-240.12 204.75,-240.12 204.75,-223.88 147.25,-223.88"/>
<text xml:space="preserve" text-anchor="start" x="148.25" y="-227.72" font-family="Arial" font-size="12.00">owl::Thing</text>
<polygon fill="none" stroke="black" points="146.25,-222.88 146.25,-241.12 205.75,-241.12 205.75,-222.88 146.25,-222.88"/>
</g>
<!-- LegalBasis&#45;&gt;owl__Thing -->
<g id="edge5" class="edge">
<title>LegalBasis&#45;&gt;owl__Thing</title>
<path fill="none" stroke="black" d="M145.37,-150.7C150.92,-165.25 159.07,-186.61 165.57,-203.65"/>
<polygon fill="black" stroke="black" points="162.18,-204.59 169.02,-212.69 168.72,-202.1 162.18,-204.59"/>
<text xml:space="preserve" text-anchor="middle" x="204.28" y="-185.55" font-family="Arial" font-size="11.00"> cdm1::hasName </text>
<text xml:space="preserve" text-anchor="middle" x="204.28" y="-172.05" font-family="Arial" font-size="11.00"> «exactly 1» &#160;</text>
</g>
<!-- Invis&#45;&gt;xsd__string -->
</g>
</svg>
