<?xml version="1.0" encoding="UTF-8" standalone="no"?>
<!DOCTYPE svg PUBLIC "-//W3C//DTD SVG 1.1//EN"
 "http://www.w3.org/Graphics/SVG/1.1/DTD/svg11.dtd">
<!-- Generated by graphviz version 14.0.2 (20251019.1705)
 -->
<!-- Pages: 1 -->
<svg width="314pt" height="132pt"
 viewBox="0.00 0.00 314.00 132.00" xmlns="http://www.w3.org/2000/svg" xmlns:xlink="http://www.w3.org/1999/xlink">
<g id="graph0" class="graph" transform="scale(1 1) rotate(0) translate(4 128)">
<polygon fill="white" stroke="none" points="-4,4 -4,-128 309.5,-128 309.5,4 -4,4"/>
<g id="clust2" class="cluster">
<title>cluster_associated</title>
</g>
<!-- LegalBasis -->
<g id="node1" class="node">
<title>LegalBasis</title>
<g id="a_node1"><a xlink:href="../LegalBasis.md" xlink:title="&lt;TABLE&gt;">
<polygon fill="lightgray" stroke="none" points="1,-34 1,-50.25 216,-50.25 216,-34 1,-34"/>
<text xml:space="preserve" text-anchor="start" x="78.5" y="-37.85" font-family="Arial" font-size="12.00">LegalBasis</text>
<text xml:space="preserve" text-anchor="start" x="2" y="-21.6" font-family="Arial" font-size="12.00">«max 1» its&#45;time:approvalDate: xsd:date</text>
<polygon fill="black" stroke="black" points="0,-34 0,-34 217,-34 217,-34 0,-34"/>
<polygon fill="none" stroke="black" points="0,-16.75 0,-51.25 217,-51.25 217,-16.75 0,-16.75"/>
</a>
</g>
</g>
<!-- RegulationThing -->
<g id="node3" class="node">
<title>RegulationThing</title>
<g id="a_node3"><a xlink:href="../RegulationThing.md" xlink:title="&lt;TABLE&gt;">
<polygon fill="lightgray" stroke="none" points="62.88,-97.88 62.88,-114.12 154.12,-114.12 154.12,-97.88 62.88,-97.88"/>
<text xml:space="preserve" text-anchor="start" x="63.88" y="-101.72" font-family="Arial" font-size="12.00">RegulationThing</text>
<polygon fill="none" stroke="black" points="61.88,-96.88 61.88,-115.12 155.12,-115.12 155.12,-96.88 61.88,-96.88"/>
</a>
</g>
</g>
<!-- LegalBasis&#45;&gt;RegulationThing -->
<g id="edge1" class="edge">
<title>LegalBasis&#45;&gt;RegulationThing</title>
<path fill="none" stroke="black" d="M108.5,-51.79C108.5,-59.25 108.5,-68.24 108.5,-76.69"/>
<polygon fill="none" stroke="black" points="105,-76.54 108.5,-86.54 112,-76.54 105,-76.54"/>
</g>
<!-- Invis -->
</g>
</svg>
