<?xml version="1.0" encoding="UTF-8" standalone="no"?>
<!DOCTYPE svg PUBLIC "-//W3C//DTD SVG 1.1//EN"
 "http://www.w3.org/Graphics/SVG/1.1/DTD/svg11.dtd">
<!-- Generated by graphviz version 13.1.0 (20250701.0955)
 -->
<!-- Pages: 1 -->
<svg width="185pt" height="132pt"
 viewBox="0.00 0.00 185.00 132.00" xmlns="http://www.w3.org/2000/svg" xmlns:xlink="http://www.w3.org/1999/xlink">
<g id="graph0" class="graph" transform="scale(1 1) rotate(0) translate(4 128)">
<polygon fill="white" stroke="none" points="-4,4 -4,-128 181,-128 181,4 -4,4"/>
<g id="clust2" class="cluster">
<title>cluster_associated</title>
</g>
<!-- NetworkLocation -->
<g id="node1" class="node">
<title>NetworkLocation</title>
<g id="a_node1"><a xlink:href="../classes/NetworkLocation.md" xlink:title="&lt;TABLE&gt;">
<polygon fill="lightgray" stroke="none" points="1,-97.88 1,-114.12 93,-114.12 93,-97.88 1,-97.88"/>
<text xml:space="preserve" text-anchor="start" x="2" y="-101.72" font-family="Arial" font-size="12.00">NetworkLocation</text>
<polygon fill="none" stroke="black" points="0,-96.88 0,-115.12 94,-115.12 94,-96.88 0,-96.88"/>
</a>
</g>
</g>
<!-- LinearLocation -->
<g id="node2" class="node">
<title>LinearLocation</title>
<g id="a_node2"><a xlink:href="../classes/LinearLocation.md" xlink:title="&lt;TABLE&gt;">
<polygon fill="lightgray" stroke="none" points="6.25,-25.88 6.25,-42.12 87.75,-42.12 87.75,-25.88 6.25,-25.88"/>
<text xml:space="preserve" text-anchor="start" x="7.25" y="-29.73" font-family="Arial" font-size="12.00">LinearLocation</text>
<polygon fill="none" stroke="black" points="5.25,-24.88 5.25,-43.12 88.75,-43.12 88.75,-24.88 5.25,-24.88"/>
</a>
</g>
</g>
<!-- LinearLocation&#45;&gt;NetworkLocation -->
<g id="edge1" class="edge">
<title>LinearLocation&#45;&gt;NetworkLocation</title>
<path fill="none" stroke="black" d="M47,-51.79C47,-59.25 47,-68.24 47,-76.69"/>
<polygon fill="none" stroke="black" points="43.5,-76.54 47,-86.54 50.5,-76.54 43.5,-76.54"/>
</g>
<!-- Invis -->
</g>
</svg>
