<?xml version="1.0" encoding="UTF-8" standalone="no"?>
<!DOCTYPE svg PUBLIC "-//W3C//DTD SVG 1.1//EN"
 "http://www.w3.org/Graphics/SVG/1.1/DTD/svg11.dtd">
<!-- Generated by graphviz version 13.1.0 (20250701.0955)
 -->
<!-- Pages: 1 -->
<svg width="209pt" height="132pt"
 viewBox="0.00 0.00 209.00 132.00" xmlns="http://www.w3.org/2000/svg" xmlns:xlink="http://www.w3.org/1999/xlink">
<g id="graph0" class="graph" transform="scale(1 1) rotate(0) translate(4 128)">
<polygon fill="white" stroke="none" points="-4,4 -4,-128 204.5,-128 204.5,4 -4,4"/>
<g id="clust2" class="cluster">
<title>cluster_associated</title>
</g>
<!-- transportnetwork_ITSThing -->
<g id="node1" class="node">
<title>transportnetwork_ITSThing</title>
<g id="a_node1"><a xlink:href="../classes/transportnetwork:ITSThing.md" xlink:title="&lt;TABLE&gt;">
<polygon fill="lightgray" stroke="none" points="1,-97.88 1,-114.12 144,-114.12 144,-97.88 1,-97.88"/>
<text xml:space="preserve" text-anchor="start" x="2" y="-101.72" font-family="Arial" font-size="12.00">transportnetwork:ITSThing</text>
<polygon fill="none" stroke="black" points="0,-96.88 0,-115.12 145,-115.12 145,-96.88 0,-96.88"/>
</a>
</g>
</g>
<!-- LocationThing -->
<g id="node2" class="node">
<title>LocationThing</title>
<g id="a_node2"><a xlink:href="../classes/LocationThing.md" xlink:title="&lt;TABLE&gt;">
<polygon fill="lightgray" stroke="none" points="33.25,-25.88 33.25,-42.12 111.75,-42.12 111.75,-25.88 33.25,-25.88"/>
<text xml:space="preserve" text-anchor="start" x="34.25" y="-29.73" font-family="Arial" font-size="12.00">LocationThing</text>
<polygon fill="none" stroke="black" points="32.25,-24.88 32.25,-43.12 112.75,-43.12 112.75,-24.88 32.25,-24.88"/>
</a>
</g>
</g>
<!-- LocationThing&#45;&gt;transportnetwork_ITSThing -->
<g id="edge1" class="edge">
<title>LocationThing&#45;&gt;transportnetwork_ITSThing</title>
<path fill="none" stroke="black" d="M72.5,-51.79C72.5,-59.25 72.5,-68.24 72.5,-76.69"/>
<polygon fill="none" stroke="black" points="69,-76.54 72.5,-86.54 76,-76.54 69,-76.54"/>
</g>
<!-- Invis -->
</g>
</svg>
