<?xml version="1.0" encoding="UTF-8" standalone="no"?>
<!DOCTYPE svg PUBLIC "-//W3C//DTD SVG 1.1//EN"
 "http://www.w3.org/Graphics/SVG/1.1/DTD/svg11.dtd">
<!-- Generated by graphviz version 13.1.0 (20250701.0955)
 -->
<!-- Pages: 1 -->
<svg width="202pt" height="132pt"
 viewBox="0.00 0.00 202.00 132.00" xmlns="http://www.w3.org/2000/svg" xmlns:xlink="http://www.w3.org/1999/xlink">
<g id="graph0" class="graph" transform="scale(1 1) rotate(0) translate(4 128)">
<polygon fill="white" stroke="none" points="-4,4 -4,-128 197.62,-128 197.62,4 -4,4"/>
<g id="clust2" class="cluster">
<title>cluster_associated</title>
</g>
<!-- LocationThing -->
<g id="node1" class="node">
<title>LocationThing</title>
<g id="a_node1"><a xlink:href="../classes/LocationThing.md" xlink:title="&lt;TABLE&gt;">
<polygon fill="lightgray" stroke="none" points="13.38,-97.88 13.38,-114.12 91.88,-114.12 91.88,-97.88 13.38,-97.88"/>
<text xml:space="preserve" text-anchor="start" x="14.38" y="-101.72" font-family="Arial" font-size="12.00">LocationThing</text>
<polygon fill="none" stroke="black" points="12.38,-96.88 12.38,-115.12 92.88,-115.12 92.88,-96.88 12.38,-96.88"/>
</a>
</g>
</g>
<!-- LocationReference -->
<g id="node2" class="node">
<title>LocationReference</title>
<g id="a_node2"><a xlink:href="../classes/LocationReference.md" xlink:title="&lt;TABLE&gt;">
<polygon fill="lightgray" stroke="none" points="1,-25.88 1,-42.12 104.25,-42.12 104.25,-25.88 1,-25.88"/>
<text xml:space="preserve" text-anchor="start" x="2" y="-29.73" font-family="Arial" font-size="12.00">LocationReference</text>
<polygon fill="none" stroke="black" points="0,-24.88 0,-43.12 105.25,-43.12 105.25,-24.88 0,-24.88"/>
</a>
</g>
</g>
<!-- LocationReference&#45;&gt;LocationThing -->
<g id="edge1" class="edge">
<title>LocationReference&#45;&gt;LocationThing</title>
<path fill="none" stroke="black" d="M52.62,-51.79C52.62,-59.25 52.62,-68.24 52.62,-76.69"/>
<polygon fill="none" stroke="black" points="49.13,-76.54 52.63,-86.54 56.13,-76.54 49.13,-76.54"/>
</g>
<!-- Invis -->
</g>
</svg>
