<?xml version="1.0" encoding="UTF-8" standalone="no"?>
<!DOCTYPE svg PUBLIC "-//W3C//DTD SVG 1.1//EN"
 "http://www.w3.org/Graphics/SVG/1.1/DTD/svg11.dtd">
<!-- Generated by graphviz version 13.1.0 (20250701.0955)
 -->
<!-- Pages: 1 -->
<svg width="309pt" height="292pt"
 viewBox="0.00 0.00 309.00 292.00" xmlns="http://www.w3.org/2000/svg" xmlns:xlink="http://www.w3.org/1999/xlink">
<g id="graph0" class="graph" transform="scale(1 1) rotate(0) translate(4 287.5)">
<polygon fill="white" stroke="none" points="-4,4 -4,-287.5 304.62,-287.5 304.62,4 -4,4"/>
<g id="clust2" class="cluster">
<title>cluster_associated</title>
</g>
<!-- LocationReference -->
<g id="node1" class="node">
<title>LocationReference</title>
<g id="a_node1"><a xlink:href="../classes/LocationReference.md" xlink:title="&lt;TABLE&gt;">
<polygon fill="lightgray" stroke="none" points="1,-257.38 1,-273.62 104.25,-273.62 104.25,-257.38 1,-257.38"/>
<text xml:space="preserve" text-anchor="start" x="2" y="-261.23" font-family="Arial" font-size="12.00">LocationReference</text>
<polygon fill="none" stroke="black" points="0,-256.38 0,-274.62 105.25,-274.62 105.25,-256.38 0,-256.38"/>
</a>
</g>
</g>
<!-- Location -->
<g id="node2" class="node">
<title>Location</title>
<g id="a_node2"><a xlink:href="../classes/Location.md" xlink:title="&lt;TABLE&gt;">
<polygon fill="lightgray" stroke="none" points="28.75,-184.38 28.75,-200.62 76.5,-200.62 76.5,-184.38 28.75,-184.38"/>
<text xml:space="preserve" text-anchor="start" x="29.75" y="-188.22" font-family="Arial" font-size="12.00">Location</text>
<polygon fill="none" stroke="black" points="27.75,-183.38 27.75,-201.62 77.5,-201.62 77.5,-183.38 27.75,-183.38"/>
</a>
</g>
</g>
<!-- Location&#45;&gt;LocationReference -->
<g id="edge1" class="edge">
<title>Location&#45;&gt;LocationReference</title>
<path fill="none" stroke="black" d="M52.62,-210.21C52.62,-217.97 52.62,-227.42 52.62,-236.24"/>
<polygon fill="none" stroke="black" points="49.13,-236.16 52.63,-246.16 56.13,-236.16 49.13,-236.16"/>
</g>
<!-- Invis -->
<!-- Location&#45;&gt;Invis -->
<!-- PointCoordinates -->
<g id="node4" class="node">
<title>PointCoordinates</title>
<g id="a_node4"><a xlink:href="../classes/PointCoordinates" xlink:title="PointCoordinates">
<polygon fill="lightgray" stroke="none" points="188.12,-98.88 188.12,-115.12 283.12,-115.12 283.12,-98.88 188.12,-98.88"/>
<text xml:space="preserve" text-anchor="start" x="189.12" y="-102.72" font-family="Arial" font-size="12.00">PointCoordinates</text>
<polygon fill="none" stroke="black" points="187.12,-97.88 187.12,-116.12 284.12,-116.12 284.12,-97.88 187.12,-97.88"/>
</a>
</g>
</g>
<!-- Location&#45;&gt;PointCoordinates -->
<g id="edge5" class="edge">
<title>Location&#45;&gt;PointCoordinates</title>
<path fill="none" stroke="black" d="M46.19,-174.78C43.4,-164.44 42.23,-151.55 49.62,-143 67.84,-121.94 146.37,-130.69 173.62,-125 174.46,-124.82 175.31,-124.64 176.16,-124.46"/>
<polygon fill="black" stroke="black" points="176.94,-127.87 185.89,-122.2 175.36,-121.05 176.94,-127.87"/>
<text xml:space="preserve" text-anchor="middle" x="138.12" y="-146.05" font-family="Arial" font-size="11.00">«max 1, only» coordinatesForDisplay</text>
</g>
<!-- code_Code -->
<g id="node5" class="node">
<title>code_Code</title>
<polygon fill="lightgray" stroke="none" points="196.38,-25.88 196.38,-42.12 256.88,-42.12 256.88,-25.88 196.38,-25.88"/>
<text xml:space="preserve" text-anchor="start" x="197.38" y="-29.73" font-family="Arial" font-size="12.00">code:Code</text>
<polygon fill="none" stroke="black" points="195.38,-24.88 195.38,-43.12 257.88,-43.12 257.88,-24.88 195.38,-24.88"/>
</g>
<!-- Location&#45;&gt;code_Code -->
<g id="edge6" class="edge">
<title>Location&#45;&gt;code_Code</title>
<path fill="none" stroke="black" d="M37.32,-174.7C19.49,-153.03 -5.1,-115.04 15.12,-89 35.69,-62.53 128.84,-46.85 184.43,-39.7"/>
<polygon fill="black" stroke="black" points="184.69,-43.19 194.18,-38.48 183.83,-36.24 184.69,-43.19"/>
<text xml:space="preserve" text-anchor="middle" x="96.88" y="-103.3" font-family="Arial" font-size="11.00">«only» externalLocationReference</text>
</g>
<!-- Invis&#45;&gt;PointCoordinates -->
<!-- PointCoordinates&#45;&gt;code_Code -->
</g>
</svg>
