<?xml version="1.0" encoding="UTF-8" standalone="no"?>
<!DOCTYPE svg PUBLIC "-//W3C//DTD SVG 1.1//EN"
 "http://www.w3.org/Graphics/SVG/1.1/DTD/svg11.dtd">
<!-- Generated by graphviz version 14.0.2 (20251019.1705)
 -->
<!-- Pages: 1 -->
<svg width="194pt" height="132pt"
 viewBox="0.00 0.00 194.00 132.00" xmlns="http://www.w3.org/2000/svg" xmlns:xlink="http://www.w3.org/1999/xlink">
<g id="graph0" class="graph" transform="scale(1 1) rotate(0) translate(4 128)">
<polygon fill="white" stroke="none" points="-4,4 -4,-128 189.88,-128 189.88,4 -4,4"/>
<g id="clust2" class="cluster">
<title>cluster_associated</title>
</g>
<!-- PermitInformation -->
<g id="node1" class="node">
<title>PermitInformation</title>
<g id="a_node1"><a xlink:href="../PermitInformation" xlink:title="&lt;TABLE&gt;">
<polygon fill="lightgray" stroke="none" points="1,-81.88 1,-98.12 96.75,-98.12 96.75,-81.88 1,-81.88"/>
<text xml:space="preserve" text-anchor="start" x="2" y="-85.72" font-family="Arial" font-size="12.00">PermitInformation</text>
<polygon fill="none" stroke="black" points="0,-80.88 0,-99.12 97.75,-99.12 97.75,-80.88 0,-80.88"/>
</a>
</g>
</g>
<!-- RegulationThing -->
<g id="node3" class="node">
<title>RegulationThing</title>
<g id="a_node3"><a xlink:href="../RegulationThing" xlink:title="&lt;TABLE&gt;">
<polygon fill="lightgray" stroke="none" points="3.25,-9.88 3.25,-26.12 94.5,-26.12 94.5,-9.88 3.25,-9.88"/>
<text xml:space="preserve" text-anchor="start" x="4.25" y="-13.72" font-family="Arial" font-size="12.00">RegulationThing</text>
<polygon fill="none" stroke="black" points="2.25,-8.88 2.25,-27.12 95.5,-27.12 95.5,-8.88 2.25,-8.88"/>
</a>
</g>
</g>
<!-- PermitInformation&#45;&gt;RegulationThing -->
<g id="edge1" class="edge">
<title>PermitInformation&#45;&gt;RegulationThing</title>
<path fill="none" stroke="black" d="M48.88,-72.05C48.88,-64.57 48.88,-55.58 48.88,-47.14"/>
<polygon fill="none" stroke="black" points="52.38,-47.3 48.88,-37.3 45.38,-47.3 52.38,-47.3"/>
</g>
<!-- Invis -->
</g>
</svg>
