<?xml version="1.0" encoding="UTF-8" standalone="no"?>
<!DOCTYPE svg PUBLIC "-//W3C//DTD SVG 1.1//EN"
 "http://www.w3.org/Graphics/SVG/1.1/DTD/svg11.dtd">
<!-- Generated by graphviz version 14.0.2 (20251019.1705)
 -->
<!-- Pages: 1 -->
<svg width="194pt" height="132pt"
 viewBox="0.00 0.00 194.00 132.00" xmlns="http://www.w3.org/2000/svg" xmlns:xlink="http://www.w3.org/1999/xlink">
<g id="graph0" class="graph" transform="scale(1 1) rotate(0) translate(4 128)">
<polygon fill="white" stroke="none" points="-4,4 -4,-128 189.88,-128 189.88,4 -4,4"/>
<g id="clust2" class="cluster">
<title>cluster_associated</title>
</g>
<!-- PermitInformation -->
<g id="node1" class="node">
<title>PermitInformation</title>
<g id="a_node1"><a xlink:href="../PermitInformation.md" xlink:title="&lt;TABLE&gt;">
<polygon fill="lightgray" stroke="none" points="1,-25.88 1,-42.12 96.75,-42.12 96.75,-25.88 1,-25.88"/>
<text xml:space="preserve" text-anchor="start" x="2" y="-29.73" font-family="Arial" font-size="12.00">PermitInformation</text>
<polygon fill="none" stroke="black" points="0,-24.88 0,-43.12 97.75,-43.12 97.75,-24.88 0,-24.88"/>
</a>
</g>
</g>
<!-- RegulationThing -->
<g id="node3" class="node">
<title>RegulationThing</title>
<g id="a_node3"><a xlink:href="../RegulationThing.md" xlink:title="&lt;TABLE&gt;">
<polygon fill="lightgray" stroke="none" points="3.25,-97.88 3.25,-114.12 94.5,-114.12 94.5,-97.88 3.25,-97.88"/>
<text xml:space="preserve" text-anchor="start" x="4.25" y="-101.72" font-family="Arial" font-size="12.00">RegulationThing</text>
<polygon fill="none" stroke="black" points="2.25,-96.88 2.25,-115.12 95.5,-115.12 95.5,-96.88 2.25,-96.88"/>
</a>
</g>
</g>
<!-- PermitInformation&#45;&gt;RegulationThing -->
<g id="edge1" class="edge">
<title>PermitInformation&#45;&gt;RegulationThing</title>
<path fill="none" stroke="black" d="M48.88,-51.79C48.88,-59.25 48.88,-68.24 48.88,-76.69"/>
<polygon fill="none" stroke="black" points="45.38,-76.54 48.88,-86.54 52.38,-76.54 45.38,-76.54"/>
</g>
<!-- Invis -->
</g>
</svg>
