<?xml version="1.0" encoding="UTF-8" standalone="no"?>
<!DOCTYPE svg PUBLIC "-//W3C//DTD SVG 1.1//EN"
 "http://www.w3.org/Graphics/SVG/1.1/DTD/svg11.dtd">
<!-- Generated by graphviz version 14.1.3 (20260303.0454)
 -->
<!-- Pages: 1 -->
<svg width="1151pt" height="377pt"
 viewBox="0.00 0.00 1151.00 377.00" xmlns="http://www.w3.org/2000/svg" xmlns:xlink="http://www.w3.org/1999/xlink">
<g id="graph0" class="graph" transform="scale(1 1) rotate(0) translate(4 373)">
<polygon fill="white" stroke="none" points="-4,4 -4,-373 1146.66,-373 1146.66,4 -4,4"/>
<g id="clust3" class="cluster">
<title>cluster_associated</title>
</g>
<!-- RegulationThing -->
<g id="node1" class="node">
<title>RegulationThing</title>
<g id="a_node1"><a xlink:href="../RegulationThing" xlink:title="&lt;TABLE&gt;">
<polygon fill="lightgray" stroke="none" points="484.38,-342.88 484.38,-359.12 575.62,-359.12 575.62,-342.88 484.38,-342.88"/>
<text xml:space="preserve" text-anchor="start" x="485.38" y="-346.88" font-family="Arial" font-size="12.00">RegulationThing</text>
<polygon fill="none" stroke="black" points="483.38,-341.88 483.38,-360.12 576.62,-360.12 576.62,-341.88 483.38,-341.88"/>
</a>
</g>
</g>
<!-- PermitInformation -->
<g id="node2" class="node">
<title>PermitInformation</title>
<g id="a_node2"><a xlink:href="../PermitInformation" xlink:title="&lt;TABLE&gt;">
<polygon fill="lightgray" stroke="none" points="409.38,-278 409.38,-294.25 650.62,-294.25 650.62,-278 409.38,-278"/>
<text xml:space="preserve" text-anchor="start" x="483.12" y="-282" font-family="Arial" font-size="12.00">PermitInformation</text>
<text xml:space="preserve" text-anchor="start" x="410.38" y="-265.75" font-family="Arial" font-size="12.00">contactInformation : cdm2:ContactInformation</text>
<polygon fill="none" stroke="black" points="408.38,-260.75 408.38,-295.25 651.62,-295.25 651.62,-260.75 408.38,-260.75"/>
</a>
</g>
</g>
<!-- PermitInformation&#45;&gt;RegulationThing -->
<g id="edge1" class="edge">
<title>PermitInformation&#45;&gt;RegulationThing</title>
<path fill="none" stroke="black" d="M530,-295.71C530,-303.47 530,-312.92 530,-321.74"/>
<polygon fill="none" stroke="black" points="526.5,-321.66 530,-331.66 533.5,-321.66 526.5,-321.66"/>
</g>
<!-- Invis -->
<!-- PermitInformation&#45;&gt;Invis -->
<!-- owl_Thing -->
<g id="node4" class="node">
<title>owl_Thing</title>
<g id="a_node4"><a xlink:href="https://w3id.org/citydata/imported/owl/latest/Thing" xlink:title="&lt;TABLE&gt;">
<polygon fill="lightgray" stroke="none" points="74.75,-184.38 74.75,-200.62 129.25,-200.62 129.25,-184.38 74.75,-184.38"/>
<text xml:space="preserve" text-anchor="start" x="75.75" y="-188.38" font-family="Arial" font-size="12.00">owl:Thing</text>
<polygon fill="none" stroke="black" points="73.75,-183.38 73.75,-201.62 130.25,-201.62 130.25,-183.38 73.75,-183.38"/>
</a>
</g>
</g>
<!-- PermitInformation&#45;&gt;owl_Thing -->
<g id="edge6" class="edge">
<title>PermitInformation&#45;&gt;owl_Thing</title>
<path fill="none" stroke="black" d="M408.67,-272.4C268.13,-266.46 54.14,-255.31 41.75,-242 29.94,-229.31 45.36,-217.09 63.55,-208.09"/>
<polygon fill="black" stroke="black" points="64.76,-211.38 72.41,-204.06 61.86,-205.01 64.76,-211.38"/>
<text xml:space="preserve" text-anchor="middle" x="69.88" y="-231.55" font-family="Arial" font-size="11.00">displayType</text>
</g>
<!-- PermitInformation&#45;&gt;owl_Thing -->
<g id="edge7" class="edge">
<title>PermitInformation&#45;&gt;owl_Thing</title>
<path fill="none" stroke="black" d="M408.55,-273.08C296.28,-268.42 143.46,-259.04 120.75,-242 113.98,-236.92 109.65,-229.05 106.89,-221.12"/>
<polygon fill="black" stroke="black" points="110.3,-220.35 104.32,-211.61 103.55,-222.18 110.3,-220.35"/>
<text xml:space="preserve" text-anchor="middle" x="162.38" y="-231.55" font-family="Arial" font-size="11.00">grantsPermission</text>
</g>
<!-- PermitInformation&#45;&gt;owl_Thing -->
<g id="edge10" class="edge">
<title>PermitInformation&#45;&gt;owl_Thing</title>
<path fill="none" stroke="black" d="M408.7,-274.19C352.44,-270.06 285.37,-261.07 227.5,-242 216.06,-238.23 214.97,-233.48 204,-228.5 183.62,-219.25 160.03,-211.01 140.68,-204.85"/>
<polygon fill="black" stroke="black" points="141.86,-201.55 131.27,-201.92 139.78,-208.24 141.86,-201.55"/>
<text xml:space="preserve" text-anchor="middle" x="274.75" y="-231.55" font-family="Arial" font-size="11.00">howToObtainPermit</text>
</g>
<!-- PermitInformation&#45;&gt;owl_Thing -->
<g id="edge11" class="edge">
<title>PermitInformation&#45;&gt;owl_Thing</title>
<path fill="none" stroke="black" d="M408.82,-260.01C387.38,-255.32 365.53,-249.41 345.5,-242 334.2,-237.82 333.36,-232.51 322,-228.5 261.24,-207.04 186.38,-198.69 141.51,-195.47"/>
<polygon fill="black" stroke="black" points="141.95,-191.99 131.75,-194.83 141.49,-198.98 141.95,-191.99"/>
<text xml:space="preserve" text-anchor="middle" x="388.25" y="-231.55" font-family="Arial" font-size="11.00">isLocationSpecific</text>
</g>
<!-- PermitInformation&#45;&gt;owl_Thing -->
<g id="edge12" class="edge">
<title>PermitInformation&#45;&gt;owl_Thing</title>
<path fill="none" stroke="black" d="M491.66,-260.01C479.66,-254.49 466.43,-248.18 454.5,-242 443.8,-236.46 442.46,-232.22 431,-228.5 378.04,-211.32 216.59,-200.09 141.36,-195.65"/>
<polygon fill="black" stroke="black" points="141.75,-192.16 131.57,-195.08 141.35,-199.15 141.75,-192.16"/>
<text xml:space="preserve" text-anchor="middle" x="519.75" y="-231.55" font-family="Arial" font-size="11.00">maximumDurationOfPermit</text>
</g>
<!-- PermitInformation&#45;&gt;owl_Thing -->
<g id="edge13" class="edge">
<title>PermitInformation&#45;&gt;owl_Thing</title>
<path fill="none" stroke="black" d="M568.51,-260.17C583.78,-251.23 595.49,-239.78 585,-228.5 555.03,-196.28 251.01,-193.35 141.25,-193.35"/>
<polygon fill="black" stroke="black" points="141.56,-189.85 131.56,-193.36 141.57,-196.85 141.56,-189.85"/>
<text xml:space="preserve" text-anchor="middle" x="652" y="-231.55" font-family="Arial" font-size="11.00">minimumTimeToNextEntry</text>
</g>
<!-- PermitInformation&#45;&gt;owl_Thing -->
<g id="edge14" class="edge">
<title>PermitInformation&#45;&gt;owl_Thing</title>
<path fill="none" stroke="black" d="M651.48,-266.8C682.16,-261.6 709.21,-253.77 719,-242 722.84,-237.39 723.12,-232.86 719,-228.5 699.11,-207.45 273.6,-197 141.06,-194.25"/>
<polygon fill="black" stroke="black" points="141.46,-190.76 131.39,-194.06 141.32,-197.76 141.46,-190.76"/>
<text xml:space="preserve" text-anchor="middle" x="769.61" y="-231.55" font-family="Arial" font-size="11.00">permittedEntityType</text>
</g>
<!-- PermitInformation&#45;&gt;owl_Thing -->
<g id="edge15" class="edge">
<title>PermitInformation&#45;&gt;owl_Thing</title>
<path fill="none" stroke="black" d="M651.53,-273.27C742.68,-268.22 847.54,-256.36 821,-228.5 797.4,-203.72 287.68,-195.72 141.1,-193.93"/>
<polygon fill="black" stroke="black" points="141.56,-190.43 131.52,-193.81 141.48,-197.43 141.56,-190.43"/>
<text xml:space="preserve" text-anchor="middle" x="866.42" y="-231.55" font-family="Arial" font-size="11.00">urlForInformation</text>
</g>
<!-- PermitInformation&#45;&gt;owl_Thing -->
<g id="edge16" class="edge">
<title>PermitInformation&#45;&gt;owl_Thing</title>
<path fill="none" stroke="black" d="M651.57,-273.92C756.69,-269.97 894.51,-261.17 912,-242 916.04,-237.57 916.15,-232.83 912,-228.5 885.08,-200.39 299.86,-194.73 141.31,-193.71"/>
<polygon fill="black" stroke="black" points="141.76,-190.21 131.74,-193.65 141.72,-197.21 141.76,-190.21"/>
<text xml:space="preserve" text-anchor="middle" x="955.57" y="-231.55" font-family="Arial" font-size="11.00">urlForApplication</text>
</g>
<!-- PermitFee -->
<g id="node5" class="node">
<title>PermitFee</title>
<g id="a_node5"><a xlink:href="../PermitFee" xlink:title="&lt;TABLE&gt;">
<polygon fill="lightgray" stroke="none" points="71.25,-98.88 71.25,-115.12 128.75,-115.12 128.75,-98.88 71.25,-98.88"/>
<text xml:space="preserve" text-anchor="start" x="72.25" y="-102.88" font-family="Arial" font-size="12.00">PermitFee</text>
<polygon fill="none" stroke="black" points="70.25,-97.88 70.25,-116.12 129.75,-116.12 129.75,-97.88 70.25,-97.88"/>
</a>
</g>
</g>
<!-- PermitInformation&#45;&gt;PermitFee -->
<g id="edge8" class="edge">
<title>PermitInformation&#45;&gt;PermitFee</title>
<path fill="none" stroke="black" d="M651.61,-276.34C782.96,-274.34 976.71,-267.09 1000,-242 1004.08,-237.6 1003.95,-233.02 1000,-228.5 942.4,-162.68 308.32,-120.42 140.53,-110.34"/>
<polygon fill="black" stroke="black" points="140.97,-106.86 130.78,-109.76 140.56,-113.85 140.97,-106.86"/>
<text xml:space="preserve" text-anchor="middle" x="1009.47" y="-188.8" font-family="Arial" font-size="11.00">hasAssociatedFee</text>
</g>
<!-- RegistrationMachine -->
<g id="node6" class="node">
<title>RegistrationMachine</title>
<g id="a_node6"><a xlink:href="../RegistrationMachine" xlink:title="&lt;TABLE&gt;">
<polygon fill="lightgray" stroke="none" points="16.88,-25.88 16.88,-42.12 129.12,-42.12 129.12,-25.88 16.88,-25.88"/>
<text xml:space="preserve" text-anchor="start" x="17.88" y="-29.88" font-family="Arial" font-size="12.00">RegistrationMachine</text>
<polygon fill="none" stroke="black" points="15.88,-24.88 15.88,-43.12 130.12,-43.12 130.12,-24.88 15.88,-24.88"/>
</a>
</g>
</g>
<!-- PermitInformation&#45;&gt;RegistrationMachine -->
<g id="edge9" class="edge">
<title>PermitInformation&#45;&gt;RegistrationMachine</title>
<path fill="none" stroke="black" d="M651.37,-276.03C773.15,-273.68 951.62,-266.06 1016,-242 1049.1,-229.63 1081.17,-201.18 1058,-174.5 997.64,-104.99 354.63,-54.5 141.32,-39.56"/>
<polygon fill="black" stroke="black" points="141.72,-36.08 131.5,-38.88 141.23,-43.07 141.72,-36.08"/>
<text xml:space="preserve" text-anchor="middle" x="1084.91" y="-146.05" font-family="Arial" font-size="11.00">hasRegistrationMachine</text>
</g>
<!-- Invis&#45;&gt;owl_Thing -->
<!-- owl_Thing&#45;&gt;PermitFee -->
<!-- PermitFee&#45;&gt;RegistrationMachine -->
</g>
</svg>
