<?xml version="1.0" encoding="UTF-8" standalone="no"?>
<!DOCTYPE svg PUBLIC "-//W3C//DTD SVG 1.1//EN"
 "http://www.w3.org/Graphics/SVG/1.1/DTD/svg11.dtd">
<!-- Generated by graphviz version 13.1.0 (20250701.0955)
 -->
<!-- Pages: 1 -->
<svg width="416pt" height="266pt"
 viewBox="0.00 0.00 416.00 266.00" xmlns="http://www.w3.org/2000/svg" xmlns:xlink="http://www.w3.org/1999/xlink">
<g id="graph0" class="graph" transform="scale(1 1) rotate(0) translate(4 261.75)">
<polygon fill="white" stroke="none" points="-4,4 -4,-261.75 412.25,-261.75 412.25,4 -4,4"/>
<g id="clust2" class="cluster">
<title>cluster_associated</title>
</g>
<!-- LocationThing -->
<g id="node1" class="node">
<title>LocationThing</title>
<g id="a_node1"><a xlink:href="../classes/LocationThing.md" xlink:title="&lt;TABLE&gt;">
<polygon fill="lightgray" stroke="none" points="76,-231.62 76,-247.88 154.5,-247.88 154.5,-231.62 76,-231.62"/>
<text xml:space="preserve" text-anchor="start" x="77" y="-235.47" font-family="Arial" font-size="12.00">LocationThing</text>
<polygon fill="none" stroke="black" points="75,-230.62 75,-248.88 155.5,-248.88 155.5,-230.62 75,-230.62"/>
</a>
</g>
</g>
<!-- PointCoordinates -->
<g id="node2" class="node">
<title>PointCoordinates</title>
<g id="a_node2"><a xlink:href="../classes/PointCoordinates.md" xlink:title="&lt;TABLE&gt;">
<polygon fill="lightgray" stroke="none" points="1,-167.5 1,-183.75 229.5,-183.75 229.5,-167.5 1,-167.5"/>
<text xml:space="preserve" text-anchor="start" x="68.75" y="-171.35" font-family="Arial" font-size="12.00">PointCoordinates</text>
<text xml:space="preserve" text-anchor="start" x="2" y="-155.1" font-family="Arial" font-size="12.00">elevation: string «max 1, only»</text>
<text xml:space="preserve" text-anchor="start" x="2" y="-138.85" font-family="Arial" font-size="12.00">genProp:hasIdentifier: string «max 1, only»</text>
<text xml:space="preserve" text-anchor="start" x="2" y="-122.6" font-family="Arial" font-size="12.00">latitude: string «exactly 1, only»</text>
<text xml:space="preserve" text-anchor="start" x="2" y="-106.35" font-family="Arial" font-size="12.00">longitude: string «exactly 1, only»</text>
<polygon fill="none" stroke="black" points="0,-101.5 0,-184.75 230.5,-184.75 230.5,-101.5 0,-101.5"/>
</a>
</g>
</g>
<!-- PointCoordinates&#45;&gt;LocationThing -->
<g id="edge1" class="edge">
<title>PointCoordinates&#45;&gt;LocationThing</title>
<path fill="none" stroke="black" d="M115.25,-184.48C115.25,-193.18 115.25,-202.2 115.25,-210.33"/>
<polygon fill="none" stroke="black" points="111.75,-210.32 115.25,-220.32 118.75,-210.32 111.75,-210.32"/>
</g>
<!-- Invis -->
<!-- PointCoordinates&#45;&gt;Invis -->
<!-- PositionConfidenceEllipse -->
<g id="node4" class="node">
<title>PositionConfidenceEllipse</title>
<g id="a_node4"><a xlink:href="../classes/PositionConfidenceEllipse" xlink:title="PositionConfidenceEllipse">
<polygon fill="lightgray" stroke="none" points="247.38,-25.88 247.38,-42.12 391.12,-42.12 391.12,-25.88 247.38,-25.88"/>
<text xml:space="preserve" text-anchor="start" x="248.38" y="-29.73" font-family="Arial" font-size="12.00">PositionConfidenceEllipse</text>
<polygon fill="none" stroke="black" points="246.38,-24.88 246.38,-43.12 392.12,-43.12 392.12,-24.88 246.38,-24.88"/>
</a>
</g>
</g>
<!-- PointCoordinates&#45;&gt;PositionConfidenceEllipse -->
<g id="edge4" class="edge">
<title>PointCoordinates&#45;&gt;PositionConfidenceEllipse</title>
<path fill="none" stroke="black" d="M125.85,-101.71C130.79,-89.92 137.89,-78.06 148,-70 161.92,-58.9 199.07,-50.62 235.22,-44.91"/>
<polygon fill="black" stroke="black" points="235.52,-48.4 244.89,-43.45 234.48,-41.48 235.52,-48.4"/>
<text xml:space="preserve" text-anchor="middle" x="228.62" y="-73.05" font-family="Arial" font-size="11.00">«max 1, only» positionConfidence</text>
</g>
<!-- Invis&#45;&gt;PositionConfidenceEllipse -->
</g>
</svg>
