<?xml version="1.0" encoding="UTF-8" standalone="no"?>
<!DOCTYPE svg PUBLIC "-//W3C//DTD SVG 1.1//EN"
 "http://www.w3.org/Graphics/SVG/1.1/DTD/svg11.dtd">
<!-- Generated by graphviz version 13.1.0 (20250701.0955)
 -->
<!-- Pages: 1 -->
<svg width="221pt" height="219pt"
 viewBox="0.00 0.00 221.00 219.00" xmlns="http://www.w3.org/2000/svg" xmlns:xlink="http://www.w3.org/1999/xlink">
<g id="graph0" class="graph" transform="scale(1 1) rotate(0) translate(4 214.5)">
<polygon fill="white" stroke="none" points="-4,4 -4,-214.5 217.25,-214.5 217.25,4 -4,4"/>
<g id="clust2" class="cluster">
<title>cluster_associated</title>
</g>
<!-- Destination -->
<g id="node1" class="node">
<title>Destination</title>
<g id="a_node1"><a xlink:href="../classes/Destination.md" xlink:title="&lt;TABLE&gt;">
<polygon fill="lightgray" stroke="none" points="14.88,-184.38 14.88,-200.62 77.62,-200.62 77.62,-184.38 14.88,-184.38"/>
<text xml:space="preserve" text-anchor="start" x="15.88" y="-188.22" font-family="Arial" font-size="12.00">Destination</text>
<polygon fill="none" stroke="black" points="13.88,-183.38 13.88,-201.62 78.62,-201.62 78.62,-183.38 13.88,-183.38"/>
</a>
</g>
</g>
<!-- PointDestination -->
<g id="node2" class="node">
<title>PointDestination</title>
<g id="a_node2"><a xlink:href="../classes/PointDestination.md" xlink:title="&lt;TABLE&gt;">
<polygon fill="lightgray" stroke="none" points="1,-111.38 1,-127.62 91.5,-127.62 91.5,-111.38 1,-111.38"/>
<text xml:space="preserve" text-anchor="start" x="2" y="-115.22" font-family="Arial" font-size="12.00">PointDestination</text>
<polygon fill="none" stroke="black" points="0,-110.38 0,-128.62 92.5,-128.62 92.5,-110.38 0,-110.38"/>
</a>
</g>
</g>
<!-- PointDestination&#45;&gt;Destination -->
<g id="edge1" class="edge">
<title>PointDestination&#45;&gt;Destination</title>
<path fill="none" stroke="black" d="M46.25,-137.21C46.25,-144.97 46.25,-154.42 46.25,-163.24"/>
<polygon fill="none" stroke="black" points="42.75,-163.16 46.25,-173.16 49.75,-163.16 42.75,-163.16"/>
</g>
<!-- Invis -->
<!-- PointDestination&#45;&gt;Invis -->
<!-- PointLocation -->
<g id="node4" class="node">
<title>PointLocation</title>
<g id="a_node4"><a xlink:href="../classes/PointLocation" xlink:title="PointLocation">
<polygon fill="lightgray" stroke="none" points="120.5,-25.88 120.5,-42.12 196,-42.12 196,-25.88 120.5,-25.88"/>
<text xml:space="preserve" text-anchor="start" x="121.5" y="-29.73" font-family="Arial" font-size="12.00">PointLocation</text>
<polygon fill="none" stroke="black" points="119.5,-24.88 119.5,-43.12 197,-43.12 197,-24.88 119.5,-24.88"/>
</a>
</g>
</g>
<!-- PointDestination&#45;&gt;PointLocation -->
<g id="edge4" class="edge">
<title>PointDestination&#45;&gt;PointLocation</title>
<path fill="none" stroke="black" d="M31.1,-101.65C24.1,-91.76 18.76,-79.4 26,-70 36.25,-56.68 75.58,-47.4 108.7,-41.75"/>
<polygon fill="black" stroke="black" points="108.84,-45.27 118.15,-40.22 107.72,-38.36 108.84,-45.27"/>
<text xml:space="preserve" text-anchor="middle" x="99.12" y="-73.05" font-family="Arial" font-size="11.00">«exactly 1, only» pointLocation</text>
</g>
<!-- Invis&#45;&gt;PointLocation -->
</g>
</svg>
