<?xml version="1.0" encoding="UTF-8" standalone="no"?>
<!DOCTYPE svg PUBLIC "-//W3C//DTD SVG 1.1//EN"
 "http://www.w3.org/Graphics/SVG/1.1/DTD/svg11.dtd">
<!-- Generated by graphviz version 13.1.0 (20250701.0955)
 -->
<!-- Pages: 1 -->
<svg width="242pt" height="132pt"
 viewBox="0.00 0.00 242.00 132.00" xmlns="http://www.w3.org/2000/svg" xmlns:xlink="http://www.w3.org/1999/xlink">
<g id="graph0" class="graph" transform="scale(1 1) rotate(0) translate(4 128)">
<polygon fill="white" stroke="none" points="-4,4 -4,-128 237.88,-128 237.88,4 -4,4"/>
<g id="clust2" class="cluster">
<title>cluster_associated</title>
</g>
<!-- LocationThing -->
<g id="node1" class="node">
<title>LocationThing</title>
<g id="a_node1"><a xlink:href="../classes/LocationThing.md" xlink:title="&lt;TABLE&gt;">
<polygon fill="lightgray" stroke="none" points="33.62,-97.88 33.62,-114.12 112.12,-114.12 112.12,-97.88 33.62,-97.88"/>
<text xml:space="preserve" text-anchor="start" x="34.62" y="-101.72" font-family="Arial" font-size="12.00">LocationThing</text>
<polygon fill="none" stroke="black" points="32.62,-96.88 32.62,-115.12 113.12,-115.12 113.12,-96.88 32.62,-96.88"/>
</a>
</g>
</g>
<!-- PositionConfidenceEllipse -->
<g id="node2" class="node">
<title>PositionConfidenceEllipse</title>
<g id="a_node2"><a xlink:href="../classes/PositionConfidenceEllipse.md" xlink:title="&lt;TABLE&gt;">
<polygon fill="lightgray" stroke="none" points="1,-25.88 1,-42.12 144.75,-42.12 144.75,-25.88 1,-25.88"/>
<text xml:space="preserve" text-anchor="start" x="2" y="-29.73" font-family="Arial" font-size="12.00">PositionConfidenceEllipse</text>
<polygon fill="none" stroke="black" points="0,-24.88 0,-43.12 145.75,-43.12 145.75,-24.88 0,-24.88"/>
</a>
</g>
</g>
<!-- PositionConfidenceEllipse&#45;&gt;LocationThing -->
<g id="edge1" class="edge">
<title>PositionConfidenceEllipse&#45;&gt;LocationThing</title>
<path fill="none" stroke="black" d="M72.88,-51.79C72.88,-59.25 72.88,-68.24 72.88,-76.69"/>
<polygon fill="none" stroke="black" points="69.38,-76.54 72.88,-86.54 76.38,-76.54 69.38,-76.54"/>
</g>
<!-- Invis -->
</g>
</svg>
