<?xml version="1.0" encoding="UTF-8" standalone="no"?>
<!DOCTYPE svg PUBLIC "-//W3C//DTD SVG 1.1//EN"
 "http://www.w3.org/Graphics/SVG/1.1/DTD/svg11.dtd">
<!-- Generated by graphviz version 14.0.2 (20251019.1705)
 -->
<!-- Pages: 1 -->
<svg width="191pt" height="132pt"
 viewBox="0.00 0.00 191.00 132.00" xmlns="http://www.w3.org/2000/svg" xmlns:xlink="http://www.w3.org/1999/xlink">
<g id="graph0" class="graph" transform="scale(1 1) rotate(0) translate(4 128)">
<polygon fill="white" stroke="none" points="-4,4 -4,-128 186.75,-128 186.75,4 -4,4"/>
<g id="clust2" class="cluster">
<title>cluster_associated</title>
</g>
<!-- RegulationThing -->
<g id="node1" class="node">
<title>RegulationThing</title>
<g id="a_node1"><a xlink:href="../RegulationThing.md" xlink:title="&lt;TABLE&gt;">
<polygon fill="lightgray" stroke="none" points="2.12,-25.88 2.12,-42.12 93.38,-42.12 93.38,-25.88 2.12,-25.88"/>
<text xml:space="preserve" text-anchor="start" x="3.12" y="-29.73" font-family="Arial" font-size="12.00">RegulationThing</text>
<polygon fill="none" stroke="black" points="1.12,-24.88 1.12,-43.12 94.38,-43.12 94.38,-24.88 1.12,-24.88"/>
</a>
</g>
</g>
<!-- its&#45;core_ITSThing -->
<g id="node3" class="node">
<title>its&#45;core_ITSThing</title>
<polygon fill="lightgray" stroke="none" points="1,-97.88 1,-114.12 94.5,-114.12 94.5,-97.88 1,-97.88"/>
<text xml:space="preserve" text-anchor="start" x="2" y="-101.72" font-family="Arial" font-size="12.00">its&#45;core:ITSThing</text>
<polygon fill="none" stroke="black" points="0,-96.88 0,-115.12 95.5,-115.12 95.5,-96.88 0,-96.88"/>
</g>
<!-- RegulationThing&#45;&gt;its&#45;core_ITSThing -->
<g id="edge1" class="edge">
<title>RegulationThing&#45;&gt;its&#45;core_ITSThing</title>
<path fill="none" stroke="black" d="M47.75,-51.79C47.75,-59.25 47.75,-68.24 47.75,-76.69"/>
<polygon fill="none" stroke="black" points="44.25,-76.54 47.75,-86.54 51.25,-76.54 44.25,-76.54"/>
</g>
<!-- Invis -->
</g>
</svg>
