<?xml version="1.0" encoding="UTF-8" standalone="no"?>
<!DOCTYPE svg PUBLIC "-//W3C//DTD SVG 1.1//EN"
 "http://www.w3.org/Graphics/SVG/1.1/DTD/svg11.dtd">
<!-- Generated by graphviz version 13.1.0 (20250701.0955)
 -->
<!-- Pages: 1 -->
<svg width="212pt" height="132pt"
 viewBox="0.00 0.00 212.00 132.00" xmlns="http://www.w3.org/2000/svg" xmlns:xlink="http://www.w3.org/1999/xlink">
<g id="graph0" class="graph" transform="scale(1 1) rotate(0) translate(4 128)">
<polygon fill="white" stroke="none" points="-4,4 -4,-128 207.88,-128 207.88,4 -4,4"/>
<g id="clust2" class="cluster">
<title>cluster_associated</title>
</g>
<!-- TrafficControlDevice -->
<g id="node1" class="node">
<title>TrafficControlDevice</title>
<g id="a_node1"><a xlink:href="../classes/TrafficControlDevice.md" xlink:title="&lt;TABLE&gt;">
<polygon fill="lightgray" stroke="none" points="2.5,-97.88 2.5,-114.12 113.25,-114.12 113.25,-97.88 2.5,-97.88"/>
<text xml:space="preserve" text-anchor="start" x="3.5" y="-101.72" font-family="Arial" font-size="12.00">TrafficControlDevice</text>
<polygon fill="none" stroke="black" points="1.5,-96.88 1.5,-115.12 114.25,-115.12 114.25,-96.88 1.5,-96.88"/>
</a>
</g>
</g>
<!-- RoadSurfaceFeature -->
<g id="node2" class="node">
<title>RoadSurfaceFeature</title>
<g id="a_node2"><a xlink:href="../classes/RoadSurfaceFeature.md" xlink:title="&lt;TABLE&gt;">
<polygon fill="lightgray" stroke="none" points="1,-25.88 1,-42.12 114.75,-42.12 114.75,-25.88 1,-25.88"/>
<text xml:space="preserve" text-anchor="start" x="2" y="-29.73" font-family="Arial" font-size="12.00">RoadSurfaceFeature</text>
<polygon fill="none" stroke="black" points="0,-24.88 0,-43.12 115.75,-43.12 115.75,-24.88 0,-24.88"/>
</a>
</g>
</g>
<!-- RoadSurfaceFeature&#45;&gt;TrafficControlDevice -->
<g id="edge1" class="edge">
<title>RoadSurfaceFeature&#45;&gt;TrafficControlDevice</title>
<path fill="none" stroke="black" d="M57.88,-51.79C57.88,-59.25 57.88,-68.24 57.88,-76.69"/>
<polygon fill="none" stroke="black" points="54.38,-76.54 57.88,-86.54 61.38,-76.54 54.38,-76.54"/>
</g>
<!-- Invis -->
</g>
</svg>
