<?xml version="1.0" encoding="UTF-8" standalone="no"?>
<!DOCTYPE svg PUBLIC "-//W3C//DTD SVG 1.1//EN"
 "http://www.w3.org/Graphics/SVG/1.1/DTD/svg11.dtd">
<!-- Generated by graphviz version 14.0.2 (20251019.1705)
 -->
<!-- Pages: 1 -->
<svg width="231pt" height="132pt"
 viewBox="0.00 0.00 231.00 132.00" xmlns="http://www.w3.org/2000/svg" xmlns:xlink="http://www.w3.org/1999/xlink">
<g id="graph0" class="graph" transform="scale(1 1) rotate(0) translate(4 128)">
<polygon fill="white" stroke="none" points="-4,4 -4,-128 227.12,-128 227.12,4 -4,4"/>
<g id="clust2" class="cluster">
<title>cluster_associated</title>
</g>
<!-- RuleMakerRole -->
<g id="node1" class="node">
<title>RuleMakerRole</title>
<g id="a_node1"><a xlink:href="../RuleMakerRole" xlink:title="&lt;TABLE&gt;">
<polygon fill="lightgray" stroke="none" points="48.12,-81.88 48.12,-98.12 134.12,-98.12 134.12,-81.88 48.12,-81.88"/>
<text xml:space="preserve" text-anchor="start" x="49.12" y="-85.72" font-family="Arial" font-size="12.00">RuleMakerRole</text>
<polygon fill="none" stroke="black" points="47.12,-80.88 47.12,-99.12 135.12,-99.12 135.12,-80.88 47.12,-80.88"/>
</a>
</g>
</g>
<!-- its&#45;agent_Role -->
<g id="node3" class="node">
<title>its&#45;agent_Role</title>
<g id="a_node3"><a xlink:href="https://w3id.org/itsdata/agent/v1/Role" xlink:title="&lt;TABLE&gt;">
<polygon fill="lightgray" stroke="none" points="1,-9.88 1,-26.12 77.25,-26.12 77.25,-9.88 1,-9.88"/>
<text xml:space="preserve" text-anchor="start" x="2" y="-13.72" font-family="Arial" font-size="12.00">its&#45;agent:Role</text>
<polygon fill="none" stroke="black" points="0,-8.88 0,-27.12 78.25,-27.12 78.25,-8.88 0,-8.88"/>
</a>
</g>
</g>
<!-- RuleMakerRole&#45;&gt;its&#45;agent_Role -->
<g id="edge1" class="edge">
<title>RuleMakerRole&#45;&gt;its&#45;agent_Role</title>
<path fill="none" stroke="black" d="M78.54,-72.05C72.47,-63.89 65.06,-53.91 58.31,-44.82"/>
<polygon fill="none" stroke="black" points="61.27,-42.94 52.5,-37 55.65,-47.12 61.27,-42.94"/>
</g>
<!-- RegulationThing -->
<g id="node4" class="node">
<title>RegulationThing</title>
<g id="a_node4"><a xlink:href="../RegulationThing" xlink:title="&lt;TABLE&gt;">
<polygon fill="lightgray" stroke="none" points="97.5,-9.88 97.5,-26.12 188.75,-26.12 188.75,-9.88 97.5,-9.88"/>
<text xml:space="preserve" text-anchor="start" x="98.5" y="-13.72" font-family="Arial" font-size="12.00">RegulationThing</text>
<polygon fill="none" stroke="black" points="96.5,-8.88 96.5,-27.12 189.75,-27.12 189.75,-8.88 96.5,-8.88"/>
</a>
</g>
</g>
<!-- RuleMakerRole&#45;&gt;RegulationThing -->
<g id="edge2" class="edge">
<title>RuleMakerRole&#45;&gt;RegulationThing</title>
<path fill="none" stroke="black" d="M103.71,-72.05C109.78,-63.89 117.19,-53.91 123.94,-44.82"/>
<polygon fill="none" stroke="black" points="126.6,-47.12 129.75,-37 120.98,-42.94 126.6,-47.12"/>
</g>
<!-- Invis -->
</g>
</svg>
