<?xml version="1.0" encoding="UTF-8" standalone="no"?>
<!DOCTYPE svg PUBLIC "-//W3C//DTD SVG 1.1//EN"
 "http://www.w3.org/Graphics/SVG/1.1/DTD/svg11.dtd">
<!-- Generated by graphviz version 13.1.0 (20250701.0955)
 -->
<!-- Pages: 1 -->
<svg width="185pt" height="219pt"
 viewBox="0.00 0.00 185.00 219.00" xmlns="http://www.w3.org/2000/svg" xmlns:xlink="http://www.w3.org/1999/xlink">
<g id="graph0" class="graph" transform="scale(1 1) rotate(0) translate(4 214.5)">
<polygon fill="white" stroke="none" points="-4,4 -4,-214.5 181.25,-214.5 181.25,4 -4,4"/>
<g id="clust2" class="cluster">
<title>cluster_associated</title>
</g>
<!-- TroThing -->
<g id="node1" class="node">
<title>TroThing</title>
<g id="a_node1"><a xlink:href="../classes/TroThing.md" xlink:title="&lt;TABLE&gt;">
<polygon fill="lightgray" stroke="none" points="6.25,-184.38 6.25,-200.62 56.25,-200.62 56.25,-184.38 6.25,-184.38"/>
<text xml:space="preserve" text-anchor="start" x="7.25" y="-188.22" font-family="Arial" font-size="12.00">TroThing</text>
<polygon fill="none" stroke="black" points="5.25,-183.38 5.25,-201.62 57.25,-201.62 57.25,-183.38 5.25,-183.38"/>
</a>
</g>
</g>
<!-- RuleMaker -->
<g id="node2" class="node">
<title>RuleMaker</title>
<g id="a_node2"><a xlink:href="../classes/RuleMaker.md" xlink:title="&lt;TABLE&gt;">
<polygon fill="lightgray" stroke="none" points="1,-111.38 1,-127.62 61.5,-127.62 61.5,-111.38 1,-111.38"/>
<text xml:space="preserve" text-anchor="start" x="2" y="-115.22" font-family="Arial" font-size="12.00">RuleMaker</text>
<polygon fill="none" stroke="black" points="0,-110.38 0,-128.62 62.5,-128.62 62.5,-110.38 0,-110.38"/>
</a>
</g>
</g>
<!-- RuleMaker&#45;&gt;TroThing -->
<g id="edge1" class="edge">
<title>RuleMaker&#45;&gt;TroThing</title>
<path fill="none" stroke="black" d="M31.25,-137.21C31.25,-144.97 31.25,-154.42 31.25,-163.24"/>
<polygon fill="none" stroke="black" points="27.75,-163.16 31.25,-173.16 34.75,-163.16 27.75,-163.16"/>
</g>
<!-- Invis -->
<!-- RuleMaker&#45;&gt;Invis -->
<!-- LegalBasis -->
<g id="node4" class="node">
<title>LegalBasis</title>
<g id="a_node4"><a xlink:href="../classes/LegalBasis" xlink:title="LegalBasis">
<polygon fill="lightgray" stroke="none" points="98.25,-25.88 98.25,-42.12 160.25,-42.12 160.25,-25.88 98.25,-25.88"/>
<text xml:space="preserve" text-anchor="start" x="99.25" y="-29.73" font-family="Arial" font-size="12.00">LegalBasis</text>
<polygon fill="none" stroke="black" points="97.25,-24.88 97.25,-43.12 161.25,-43.12 161.25,-24.88 97.25,-24.88"/>
</a>
</g>
</g>
<!-- RuleMaker&#45;&gt;LegalBasis -->
<g id="edge4" class="edge">
<title>RuleMaker&#45;&gt;LegalBasis</title>
<path fill="none" stroke="black" d="M25.77,-101.77C23.55,-91.68 22.81,-79.07 29.25,-70 42.18,-51.77 65.36,-42.96 86.15,-38.74"/>
<polygon fill="black" stroke="black" points="86.61,-42.21 95.88,-37.08 85.44,-35.31 86.61,-42.21"/>
<text xml:space="preserve" text-anchor="middle" x="77.25" y="-73.05" font-family="Arial" font-size="11.00">legalBasis «max 1» </text>
</g>
<!-- Invis&#45;&gt;LegalBasis -->
</g>
</svg>
