<?xml version="1.0" encoding="UTF-8" standalone="no"?>
<!DOCTYPE svg PUBLIC "-//W3C//DTD SVG 1.1//EN"
 "http://www.w3.org/Graphics/SVG/1.1/DTD/svg11.dtd">
<!-- Generated by graphviz version 14.1.3 (20260303.0454)
 -->
<!-- Pages: 1 -->
<svg width="233pt" height="365pt"
 viewBox="0.00 0.00 233.00 365.00" xmlns="http://www.w3.org/2000/svg" xmlns:xlink="http://www.w3.org/1999/xlink">
<g id="graph0" class="graph" transform="scale(1 1) rotate(0) translate(4 360.5)">
<polygon fill="white" stroke="none" points="-4,4 -4,-360.5 228.53,-360.5 228.53,4 -4,4"/>
<g id="clust3" class="cluster">
<title>cluster_associated</title>
</g>
<!-- its&#45;agent_Role -->
<g id="node1" class="node">
<title>its&#45;agent_Role</title>
<g id="a_node1"><a xlink:href="https://w3id.org/itsdata/agent/v1/Role" xlink:title="&lt;TABLE&gt;">
<polygon fill="lightgray" stroke="none" points="15.88,-330.38 15.88,-346.62 92.12,-346.62 92.12,-330.38 15.88,-330.38"/>
<text xml:space="preserve" text-anchor="start" x="16.88" y="-334.38" font-family="Arial" font-size="12.00">its&#45;agent:Role</text>
<polygon fill="none" stroke="black" points="14.88,-329.38 14.88,-347.62 93.12,-347.62 93.12,-329.38 14.88,-329.38"/>
</a>
</g>
</g>
<!-- RegulationThing -->
<g id="node2" class="node">
<title>RegulationThing</title>
<g id="a_node2"><a xlink:href="../RegulationThing" xlink:title="&lt;TABLE&gt;">
<polygon fill="lightgray" stroke="none" points="112.38,-330.38 112.38,-346.62 203.62,-346.62 203.62,-330.38 112.38,-330.38"/>
<text xml:space="preserve" text-anchor="start" x="113.38" y="-334.38" font-family="Arial" font-size="12.00">RegulationThing</text>
<polygon fill="none" stroke="black" points="111.38,-329.38 111.38,-347.62 204.62,-347.62 204.62,-329.38 111.38,-329.38"/>
</a>
</g>
</g>
<!-- RuleMakerRole -->
<g id="node3" class="node">
<title>RuleMakerRole</title>
<g id="a_node3"><a xlink:href="../RuleMakerRole" xlink:title="&lt;TABLE&gt;">
<polygon fill="lightgray" stroke="none" points="55.12,-265.5 55.12,-281.75 156.88,-281.75 156.88,-265.5 55.12,-265.5"/>
<text xml:space="preserve" text-anchor="start" x="64" y="-269.5" font-family="Arial" font-size="12.00">RuleMakerRole</text>
<text xml:space="preserve" text-anchor="start" x="56.12" y="-253.25" font-family="Arial" font-size="12.00">its&#45;core:jurisdiction</text>
<polygon fill="none" stroke="black" points="54.12,-248.25 54.12,-282.75 157.88,-282.75 157.88,-248.25 54.12,-248.25"/>
</a>
</g>
</g>
<!-- RuleMakerRole&#45;&gt;its&#45;agent_Role -->
<g id="edge1" class="edge">
<title>RuleMakerRole&#45;&gt;its&#45;agent_Role</title>
<path fill="none" stroke="black" d="M93.77,-283.21C87.56,-291.67 79.89,-302.15 72.95,-311.63"/>
<polygon fill="none" stroke="black" points="70.3,-309.32 67.22,-319.45 75.95,-313.45 70.3,-309.32"/>
</g>
<!-- RuleMakerRole&#45;&gt;RegulationThing -->
<g id="edge2" class="edge">
<title>RuleMakerRole&#45;&gt;RegulationThing</title>
<path fill="none" stroke="black" d="M118.23,-283.21C124.44,-291.67 132.11,-302.15 139.05,-311.63"/>
<polygon fill="none" stroke="black" points="136.05,-313.45 144.78,-319.45 141.7,-309.32 136.05,-313.45"/>
</g>
<!-- Invis -->
<!-- RuleMakerRole&#45;&gt;Invis -->
<!-- RegulatoryScopeCode -->
<g id="node5" class="node">
<title>RegulatoryScopeCode</title>
<g id="a_node5"><a xlink:href="../RegulatoryScopeCode" xlink:title="&lt;TABLE&gt;">
<polygon fill="lightgray" stroke="none" points="16.88,-98.88 16.88,-115.12 141.12,-115.12 141.12,-98.88 16.88,-98.88"/>
<text xml:space="preserve" text-anchor="start" x="17.88" y="-102.88" font-family="Arial" font-size="12.00">RegulatoryScopeCode</text>
<polygon fill="none" stroke="black" points="15.88,-97.88 15.88,-116.12 142.12,-116.12 142.12,-97.88 15.88,-97.88"/>
</a>
</g>
</g>
<!-- RuleMakerRole&#45;&gt;RegulatoryScopeCode -->
<g id="edge7" class="edge">
<title>RuleMakerRole&#45;&gt;RegulatoryScopeCode</title>
<path fill="none" stroke="black" d="M103.11,-247.75C98.48,-220.92 89.36,-168.04 83.76,-135.58"/>
<polygon fill="black" stroke="black" points="87.28,-135.38 82.13,-126.12 80.38,-136.57 87.28,-135.38"/>
<text xml:space="preserve" text-anchor="middle" x="137.36" y="-188.8" font-family="Arial" font-size="11.00">regulatoryScope</text>
</g>
<!-- TrafficRegulationOrder -->
<g id="node6" class="node">
<title>TrafficRegulationOrder</title>
<g id="a_node6"><a xlink:href="../TrafficRegulationOrder" xlink:title="&lt;TABLE&gt;">
<polygon fill="lightgray" stroke="none" points="18.62,-25.88 18.62,-42.12 141.38,-42.12 141.38,-25.88 18.62,-25.88"/>
<text xml:space="preserve" text-anchor="start" x="19.62" y="-29.88" font-family="Arial" font-size="12.00">TrafficRegulationOrder</text>
<polygon fill="none" stroke="black" points="17.62,-24.88 17.62,-43.12 142.38,-43.12 142.38,-24.88 17.62,-24.88"/>
</a>
</g>
</g>
<!-- RuleMakerRole&#45;&gt;TrafficRegulationOrder -->
<g id="edge6" class="edge">
<title>RuleMakerRole&#45;&gt;TrafficRegulationOrder</title>
<path fill="none" stroke="black" d="M149.66,-247.6C162.01,-240.56 173.99,-231.03 181,-218.5 190.55,-201.44 184.28,-193.78 181,-174.5 174.24,-134.8 174.69,-121.56 151,-89 142.37,-77.14 130.41,-66.67 118.77,-58.18"/>
<polygon fill="black" stroke="black" points="121.02,-55.48 110.81,-52.67 117.04,-61.24 121.02,-55.48"/>
<text xml:space="preserve" text-anchor="middle" x="201.28" y="-146.05" font-family="Arial" font-size="11.00">issuedTro</text>
</g>
<!-- Invis&#45;&gt;RegulatoryScopeCode -->
<!-- RegulatoryScopeCode&#45;&gt;TrafficRegulationOrder -->
</g>
</svg>
