<?xml version="1.0" encoding="UTF-8" standalone="no"?>
<!DOCTYPE svg PUBLIC "-//W3C//DTD SVG 1.1//EN"
 "http://www.w3.org/Graphics/SVG/1.1/DTD/svg11.dtd">
<!-- Generated by graphviz version 14.0.2 (20251019.1705)
 -->
<!-- Pages: 1 -->
<svg width="229pt" height="132pt"
 viewBox="0.00 0.00 229.00 132.00" xmlns="http://www.w3.org/2000/svg" xmlns:xlink="http://www.w3.org/1999/xlink">
<g id="graph0" class="graph" transform="scale(1 1) rotate(0) translate(4 128)">
<polygon fill="white" stroke="none" points="-4,4 -4,-128 224.62,-128 224.62,4 -4,4"/>
<g id="clust2" class="cluster">
<title>cluster_associated</title>
</g>
<!-- RuleMakerRole -->
<g id="node1" class="node">
<title>RuleMakerRole</title>
<g id="a_node1"><a xlink:href="../RuleMakerRole.md" xlink:title="&lt;TABLE&gt;">
<polygon fill="lightgray" stroke="none" points="45.62,-25.88 45.62,-42.12 131.62,-42.12 131.62,-25.88 45.62,-25.88"/>
<text xml:space="preserve" text-anchor="start" x="46.62" y="-29.73" font-family="Arial" font-size="12.00">RuleMakerRole</text>
<polygon fill="none" stroke="black" points="44.62,-24.88 44.62,-43.12 132.62,-43.12 132.62,-24.88 44.62,-24.88"/>
</a>
</g>
</g>
<!-- default1_Role -->
<g id="node3" class="node">
<title>default1_Role</title>
<polygon fill="lightgray" stroke="none" points="1,-97.88 1,-114.12 74.25,-114.12 74.25,-97.88 1,-97.88"/>
<text xml:space="preserve" text-anchor="start" x="2" y="-101.72" font-family="Arial" font-size="12.00">default1:Role</text>
<polygon fill="none" stroke="black" points="0,-96.88 0,-115.12 75.25,-115.12 75.25,-96.88 0,-96.88"/>
</g>
<!-- RuleMakerRole&#45;&gt;default1_Role -->
<g id="edge1" class="edge">
<title>RuleMakerRole&#45;&gt;default1_Role</title>
<path fill="none" stroke="black" d="M76.39,-51.79C70.46,-59.93 63.2,-69.9 56.57,-79"/>
<polygon fill="none" stroke="black" points="53.92,-76.69 50.86,-86.83 59.58,-80.81 53.92,-76.69"/>
</g>
<!-- RegulationThing -->
<g id="node4" class="node">
<title>RegulationThing</title>
<g id="a_node4"><a xlink:href="../RegulationThing.md" xlink:title="&lt;TABLE&gt;">
<polygon fill="lightgray" stroke="none" points="94,-97.88 94,-114.12 185.25,-114.12 185.25,-97.88 94,-97.88"/>
<text xml:space="preserve" text-anchor="start" x="95" y="-101.72" font-family="Arial" font-size="12.00">RegulationThing</text>
<polygon fill="none" stroke="black" points="93,-96.88 93,-115.12 186.25,-115.12 186.25,-96.88 93,-96.88"/>
</a>
</g>
</g>
<!-- RuleMakerRole&#45;&gt;RegulationThing -->
<g id="edge2" class="edge">
<title>RuleMakerRole&#45;&gt;RegulationThing</title>
<path fill="none" stroke="black" d="M100.86,-51.79C106.79,-59.93 114.05,-69.9 120.68,-79"/>
<polygon fill="none" stroke="black" points="117.67,-80.81 126.39,-86.83 123.33,-76.69 117.67,-80.81"/>
</g>
<!-- Invis -->
</g>
</svg>
