<?xml version="1.0" encoding="UTF-8" standalone="no"?>
<!DOCTYPE svg PUBLIC "-//W3C//DTD SVG 1.1//EN"
 "http://www.w3.org/Graphics/SVG/1.1/DTD/svg11.dtd">
<!-- Generated by graphviz version 14.1.3 (20260303.0454)
 -->
<!-- Pages: 1 -->
<svg width="523pt" height="682pt"
 viewBox="0.00 0.00 523.00 682.00" xmlns="http://www.w3.org/2000/svg" xmlns:xlink="http://www.w3.org/1999/xlink">
<g id="graph0" class="graph" transform="scale(1 1) rotate(0) translate(4 677.5)">
<polygon fill="white" stroke="none" points="-4,4 -4,-677.5 518.5,-677.5 518.5,4 -4,4"/>
<g id="clust3" class="cluster">
<title>cluster_associated</title>
</g>
<!-- RegulationThing -->
<g id="node1" class="node">
<title>RegulationThing</title>
<g id="a_node1"><a xlink:href="../RegulationThing" xlink:title="&lt;TABLE&gt;">
<polygon fill="lightgray" stroke="none" points="218.38,-647.38 218.38,-663.62 309.62,-663.62 309.62,-647.38 218.38,-647.38"/>
<text xml:space="preserve" text-anchor="start" x="219.38" y="-651.38" font-family="Arial" font-size="12.00">RegulationThing</text>
<polygon fill="none" stroke="black" points="217.38,-646.38 217.38,-664.62 310.62,-664.62 310.62,-646.38 217.38,-646.38"/>
</a>
</g>
</g>
<!-- SignDestination -->
<g id="node2" class="node">
<title>SignDestination</title>
<g id="a_node2"><a xlink:href="../SignDestination" xlink:title="&lt;TABLE&gt;">
<polygon fill="lightgray" stroke="none" points="220.25,-574.38 220.25,-590.62 307.75,-590.62 307.75,-574.38 220.25,-574.38"/>
<text xml:space="preserve" text-anchor="start" x="221.25" y="-578.38" font-family="Arial" font-size="12.00">SignDestination</text>
<polygon fill="none" stroke="black" points="219.25,-573.38 219.25,-591.62 308.75,-591.62 308.75,-573.38 219.25,-573.38"/>
</a>
</g>
</g>
<!-- SignDestination&#45;&gt;RegulationThing -->
<g id="edge1" class="edge">
<title>SignDestination&#45;&gt;RegulationThing</title>
<path fill="none" stroke="black" d="M264,-600.21C264,-607.97 264,-617.42 264,-626.24"/>
<polygon fill="none" stroke="black" points="260.5,-626.16 264,-636.16 267.5,-626.16 260.5,-626.16"/>
</g>
<!-- Invis -->
<!-- SignDestination&#45;&gt;Invis -->
<!-- cdm1_Length -->
<g id="node4" class="node">
<title>cdm1_Length</title>
<g id="a_node4"><a xlink:href="https://w3id.org/citydata/part1/v1/Length" xlink:title="&lt;TABLE&gt;">
<polygon fill="lightgray" stroke="none" points="30.5,-415.88 30.5,-432.12 101.5,-432.12 101.5,-415.88 30.5,-415.88"/>
<text xml:space="preserve" text-anchor="start" x="31.5" y="-419.88" font-family="Arial" font-size="12.00">cdm1:Length</text>
<polygon fill="none" stroke="black" points="29.5,-414.88 29.5,-433.12 102.5,-433.12 102.5,-414.88 29.5,-414.88"/>
</a>
</g>
</g>
<!-- SignDestination&#45;&gt;cdm1_Length -->
<g id="edge15" class="edge">
<title>SignDestination&#45;&gt;cdm1_Length</title>
<path fill="none" stroke="black" d="M219.31,-576.49C188.41,-570.98 148.02,-559.47 120.25,-535.5 95.11,-513.8 80.5,-477.73 72.9,-452.73"/>
<polygon fill="black" stroke="black" points="76.31,-451.91 70.22,-443.24 69.57,-453.82 76.31,-451.91"/>
<text xml:space="preserve" text-anchor="middle" x="156.62" y="-505.8" font-family="Arial" font-size="11.00">divergeHorizon</text>
</g>
<!-- DestinationPlace -->
<g id="node5" class="node">
<title>DestinationPlace</title>
<g id="a_node5"><a xlink:href="../DestinationPlace" xlink:title="&lt;TABLE&gt;">
<polygon fill="lightgray" stroke="none" points="41.25,-330.38 41.25,-346.62 134.75,-346.62 134.75,-330.38 41.25,-330.38"/>
<text xml:space="preserve" text-anchor="start" x="42.25" y="-334.38" font-family="Arial" font-size="12.00">DestinationPlace</text>
<polygon fill="none" stroke="black" points="40.25,-329.38 40.25,-347.62 135.75,-347.62 135.75,-329.38 40.25,-329.38"/>
</a>
</g>
</g>
<!-- SignDestination&#45;&gt;DestinationPlace -->
<g id="edge9" class="edge">
<title>SignDestination&#45;&gt;DestinationPlace</title>
<path fill="none" stroke="black" d="M247.01,-564.52C241.7,-558.94 235.94,-552.6 231,-546.5 212.31,-523.4 216.35,-509.88 193,-491.5 175.51,-477.73 162.32,-488.91 146.25,-473.5 138.1,-465.69 113.1,-403.9 98.64,-367.02"/>
<polygon fill="black" stroke="black" points="101.96,-365.91 95.07,-357.86 95.44,-368.45 101.96,-365.91"/>
<text xml:space="preserve" text-anchor="middle" x="185.62" y="-463.05" font-family="Arial" font-size="11.00">destinationPlace</text>
</g>
<!-- DestinationRoad -->
<g id="node6" class="node">
<title>DestinationRoad</title>
<g id="a_node6"><a xlink:href="../DestinationRoad" xlink:title="&lt;TABLE&gt;">
<polygon fill="lightgray" stroke="none" points="43,-244.88 43,-261.12 135,-261.12 135,-244.88 43,-244.88"/>
<text xml:space="preserve" text-anchor="start" x="44" y="-248.88" font-family="Arial" font-size="12.00">DestinationRoad</text>
<polygon fill="none" stroke="black" points="42,-243.88 42,-262.12 136,-262.12 136,-243.88 42,-243.88"/>
</a>
</g>
</g>
<!-- SignDestination&#45;&gt;DestinationRoad -->
<g id="edge10" class="edge">
<title>SignDestination&#45;&gt;DestinationRoad</title>
<path fill="none" stroke="black" d="M262.6,-564.66C259.68,-539.28 250.89,-490.91 225,-460 214.02,-446.89 202.31,-454.82 191,-442 152.8,-398.7 174.24,-370.29 145,-320.5 136.35,-305.77 124.41,-291.07 113.77,-279.25"/>
<polygon fill="black" stroke="black" points="116.36,-276.89 107,-271.93 111.22,-281.65 116.36,-276.89"/>
<text xml:space="preserve" text-anchor="middle" x="230" y="-420.3" font-family="Arial" font-size="11.00">destinationRoad</text>
</g>
<!-- Horizon -->
<g id="node7" class="node">
<title>Horizon</title>
<g id="a_node7"><a xlink:href="../Horizon" xlink:title="&lt;TABLE&gt;">
<polygon fill="lightgray" stroke="none" points="67,-171.88 67,-188.12 111,-188.12 111,-171.88 67,-171.88"/>
<text xml:space="preserve" text-anchor="start" x="68" y="-175.88" font-family="Arial" font-size="12.00">Horizon</text>
<polygon fill="none" stroke="black" points="66,-170.88 66,-189.12 112,-189.12 112,-170.88 66,-170.88"/>
</a>
</g>
</g>
<!-- SignDestination&#45;&gt;Horizon -->
<g id="edge11" class="edge">
<title>SignDestination&#45;&gt;Horizon</title>
<path fill="none" stroke="black" d="M270.57,-564.62C282.48,-530.94 303.37,-454.5 269,-406 255.04,-386.3 235.7,-404.14 217.75,-388 161.76,-337.66 188.98,-296.12 145,-235 137.39,-224.42 127.56,-214.15 118.27,-205.45"/>
<polygon fill="black" stroke="black" points="120.86,-203.07 111.09,-198.96 116.16,-208.26 120.86,-203.07"/>
<text xml:space="preserve" text-anchor="middle" x="262.38" y="-377.55" font-family="Arial" font-size="11.00">destinationHorizon</text>
</g>
<!-- OrdinalDirectionCode -->
<g id="node8" class="node">
<title>OrdinalDirectionCode</title>
<g id="a_node8"><a xlink:href="../OrdinalDirectionCode" xlink:title="&lt;TABLE&gt;">
<polygon fill="lightgray" stroke="none" points="16.88,-98.88 16.88,-115.12 135.12,-115.12 135.12,-98.88 16.88,-98.88"/>
<text xml:space="preserve" text-anchor="start" x="17.88" y="-102.88" font-family="Arial" font-size="12.00">OrdinalDirectionCode</text>
<polygon fill="none" stroke="black" points="15.88,-97.88 15.88,-116.12 136.12,-116.12 136.12,-97.88 15.88,-97.88"/>
</a>
</g>
</g>
<!-- SignDestination&#45;&gt;OrdinalDirectionCode -->
<g id="edge12" class="edge">
<title>SignDestination&#45;&gt;OrdinalDirectionCode</title>
<path fill="none" stroke="black" d="M277.74,-564.8C282.17,-559.13 286.97,-552.67 291,-546.5 308.93,-519.02 299.72,-506.23 302,-473.5 305.06,-429.55 328.56,-412.92 307,-374.5 299.48,-361.11 286.55,-368.91 277.5,-356.5 261.39,-334.43 263,-324.08 263,-296.75 263,-296.75 263,-296.75 263,-179 263,-153.19 199.93,-133.41 147.04,-121.36"/>
<polygon fill="black" stroke="black" points="147.94,-117.98 137.42,-119.24 146.43,-124.81 147.94,-117.98"/>
<text xml:space="preserve" text-anchor="middle" x="312.75" y="-334.8" font-family="Arial" font-size="11.00">arrowDirection</text>
</g>
<!-- owl_Thing -->
<g id="node9" class="node">
<title>owl_Thing</title>
<g id="a_node9"><a xlink:href="https://w3id.org/citydata/imported/owl/latest/Thing" xlink:title="&lt;TABLE&gt;">
<polygon fill="lightgray" stroke="none" points="80.75,-25.88 80.75,-42.12 135.25,-42.12 135.25,-25.88 80.75,-25.88"/>
<text xml:space="preserve" text-anchor="start" x="81.75" y="-29.88" font-family="Arial" font-size="12.00">owl:Thing</text>
<polygon fill="none" stroke="black" points="79.75,-24.88 79.75,-43.12 136.25,-43.12 136.25,-24.88 79.75,-24.88"/>
</a>
</g>
</g>
<!-- SignDestination&#45;&gt;owl_Thing -->
<g id="edge13" class="edge">
<title>SignDestination&#45;&gt;owl_Thing</title>
<path fill="none" stroke="black" d="M308.7,-568.04C334.54,-557.19 362,-538.97 362,-510.5 362,-510.5 362,-510.5 362,-106 362,-61.98 218.69,-44.03 147.36,-37.82"/>
<polygon fill="black" stroke="black" points="147.92,-34.36 137.66,-37.02 147.34,-41.33 147.92,-34.36"/>
<text xml:space="preserve" text-anchor="middle" x="394.25" y="-292.05" font-family="Arial" font-size="11.00">divergeRoute</text>
</g>
<!-- SignDestination&#45;&gt;owl_Thing -->
<g id="edge14" class="edge">
<title>SignDestination&#45;&gt;owl_Thing</title>
<path fill="none" stroke="black" d="M308.55,-573.66C363.58,-562.69 450,-540.66 450,-510.5 450,-510.5 450,-510.5 450,-106 450,-44.77 237.2,-35.96 147.32,-34.97"/>
<polygon fill="black" stroke="black" points="147.53,-31.47 137.5,-34.89 147.47,-38.47 147.53,-31.47"/>
<text xml:space="preserve" text-anchor="middle" x="482.25" y="-292.05" font-family="Arial" font-size="11.00">divergeName</text>
</g>
<!-- Invis&#45;&gt;cdm1_Length -->
<!-- cdm1_Length&#45;&gt;DestinationPlace -->
<!-- DestinationPlace&#45;&gt;DestinationRoad -->
<!-- DestinationRoad&#45;&gt;Horizon -->
<!-- Horizon&#45;&gt;OrdinalDirectionCode -->
<!-- OrdinalDirectionCode&#45;&gt;owl_Thing -->
</g>
</svg>
