<?xml version="1.0" encoding="UTF-8" standalone="no"?>
<!DOCTYPE svg PUBLIC "-//W3C//DTD SVG 1.1//EN"
 "http://www.w3.org/Graphics/SVG/1.1/DTD/svg11.dtd">
<!-- Generated by graphviz version 13.1.0 (20250701.0955)
 -->
<!-- Pages: 1 -->
<svg width="923pt" height="306pt"
 viewBox="0.00 0.00 923.00 306.00" xmlns="http://www.w3.org/2000/svg" xmlns:xlink="http://www.w3.org/1999/xlink">
<g id="graph0" class="graph" transform="scale(1 1) rotate(0) translate(4 302.25)">
<polygon fill="white" stroke="none" points="-4,4 -4,-302.25 919.18,-302.25 919.18,4 -4,4"/>
<g id="clust2" class="cluster">
<title>cluster_associated</title>
</g>
<!-- LocationThing -->
<g id="node1" class="node">
<title>LocationThing</title>
<g id="a_node1"><a xlink:href="../classes/LocationThing.md" xlink:title="&lt;TABLE&gt;">
<polygon fill="lightgray" stroke="none" points="506.93,-272.12 506.93,-288.38 585.43,-288.38 585.43,-272.12 506.93,-272.12"/>
<text xml:space="preserve" text-anchor="start" x="507.93" y="-275.98" font-family="Arial" font-size="12.00">LocationThing</text>
<polygon fill="none" stroke="black" points="505.93,-271.12 505.93,-289.38 586.43,-289.38 586.43,-271.12 505.93,-271.12"/>
</a>
</g>
</g>
<!-- SupplementaryPositionalDescription -->
<g id="node2" class="node">
<title>SupplementaryPositionalDescription</title>
<g id="a_node2"><a xlink:href="../classes/SupplementaryPositionalDescription.md" xlink:title="&lt;TABLE&gt;">
<polygon fill="lightgray" stroke="none" points="423.68,-208 423.68,-224.25 668.68,-224.25 668.68,-208 423.68,-208"/>
<text xml:space="preserve" text-anchor="start" x="448.68" y="-211.85" font-family="Arial" font-size="12.00">SupplementaryPositionalDescription</text>
<text xml:space="preserve" text-anchor="start" x="424.68" y="-195.6" font-family="Arial" font-size="12.00">locationDescription: string «max 1, only»</text>
<text xml:space="preserve" text-anchor="start" x="424.68" y="-179.35" font-family="Arial" font-size="12.00">sequentialRampNumber: string «max 1, only»</text>
<polygon fill="none" stroke="black" points="422.68,-174.5 422.68,-225.25 669.68,-225.25 669.68,-174.5 422.68,-174.5"/>
</a>
</g>
</g>
<!-- SupplementaryPositionalDescription&#45;&gt;LocationThing -->
<g id="edge1" class="edge">
<title>SupplementaryPositionalDescription&#45;&gt;LocationThing</title>
<path fill="none" stroke="black" d="M546.18,-225.21C546.18,-233.47 546.18,-242.77 546.18,-251.29"/>
<polygon fill="none" stroke="black" points="542.68,-251.12 546.18,-261.12 549.68,-251.12 542.68,-251.12"/>
</g>
<!-- Invis -->
<!-- SupplementaryPositionalDescription&#45;&gt;Invis -->
<!-- cityunits_Length -->
<g id="node4" class="node">
<title>cityunits_Length</title>
<polygon fill="lightgray" stroke="none" points="812.55,-98.88 812.55,-115.12 897.8,-115.12 897.8,-98.88 812.55,-98.88"/>
<text xml:space="preserve" text-anchor="start" x="813.55" y="-102.72" font-family="Arial" font-size="12.00">cityunits:Length</text>
<polygon fill="none" stroke="black" points="811.55,-97.88 811.55,-116.12 898.8,-116.12 898.8,-97.88 811.55,-97.88"/>
</g>
<!-- SupplementaryPositionalDescription&#45;&gt;cityunits_Length -->
<g id="edge8" class="edge">
<title>SupplementaryPositionalDescription&#45;&gt;cityunits_Length</title>
<path fill="none" stroke="black" d="M669.26,-177.71C690.38,-172.11 711.76,-165.13 731.18,-156.5 740.73,-152.25 741.1,-147.7 750.43,-143 759.79,-138.28 780.26,-131.21 800.65,-124.65"/>
<polygon fill="black" stroke="black" points="801.66,-128 810.13,-121.64 799.54,-121.33 801.66,-128"/>
<text xml:space="preserve" text-anchor="middle" x="819.8" y="-146.05" font-family="Arial" font-size="11.00">«max 1, only» lengthAffected</text>
</g>
<!-- SupplementaryPositionalDescription&#45;&gt;cityunits_Length -->
<g id="edge9" class="edge">
<title>SupplementaryPositionalDescription&#45;&gt;cityunits_Length</title>
<path fill="none" stroke="black" d="M553.22,-174.73C557.88,-163.17 565.25,-150.29 576.43,-143 617.65,-116.11 748.78,-133.97 797.18,-125 798.36,-124.78 799.56,-124.55 800.77,-124.3"/>
<polygon fill="black" stroke="black" points="801.27,-127.77 810.23,-122.12 799.7,-120.95 801.27,-127.77"/>
<text xml:space="preserve" text-anchor="middle" x="651.8" y="-146.05" font-family="Arial" font-size="11.00">«max 1, only» locationPrecision</text>
</g>
<!-- code_Code -->
<g id="node5" class="node">
<title>code_Code</title>
<polygon fill="lightgray" stroke="none" points="811.93,-25.88 811.93,-42.12 872.43,-42.12 872.43,-25.88 811.93,-25.88"/>
<text xml:space="preserve" text-anchor="start" x="812.93" y="-29.73" font-family="Arial" font-size="12.00">code:Code</text>
<polygon fill="none" stroke="black" points="810.93,-24.88 810.93,-43.12 873.43,-43.12 873.43,-24.88 810.93,-24.88"/>
</g>
<!-- SupplementaryPositionalDescription&#45;&gt;code_Code -->
<g id="edge5" class="edge">
<title>SupplementaryPositionalDescription&#45;&gt;code_Code</title>
<path fill="none" stroke="black" d="M423.06,-187.62C349.47,-180.24 254.24,-169.55 170.18,-156.5 94.42,-144.74 -39.46,-146.34 11.43,-89 37.86,-59.21 634.86,-40.68 800.12,-36.11"/>
<polygon fill="black" stroke="black" points="799.84,-39.62 809.74,-35.85 799.65,-32.62 799.84,-39.62"/>
<text xml:space="preserve" text-anchor="middle" x="86.8" y="-103.3" font-family="Arial" font-size="11.00">«max 1, only» directionPurpose</text>
</g>
<!-- SupplementaryPositionalDescription&#45;&gt;code_Code -->
<g id="edge6" class="edge">
<title>SupplementaryPositionalDescription&#45;&gt;code_Code</title>
<path fill="none" stroke="black" d="M422.89,-196.7C296.64,-190.26 128.14,-167.36 198.68,-89 238.9,-44.32 663.49,-36.6 800.1,-35.27"/>
<polygon fill="black" stroke="black" points="799.81,-38.78 809.78,-35.19 799.75,-31.78 799.81,-38.78"/>
<text xml:space="preserve" text-anchor="middle" x="284.93" y="-103.3" font-family="Arial" font-size="11.00">«max 1, only» geographicDescriptor</text>
</g>
<!-- SupplementaryPositionalDescription&#45;&gt;code_Code -->
<g id="edge7" class="edge">
<title>SupplementaryPositionalDescription&#45;&gt;code_Code</title>
<path fill="none" stroke="black" d="M475.64,-174.53C427.32,-154.12 376.95,-122.92 406.93,-89 432.72,-59.81 695.34,-42.79 799.73,-37.13"/>
<polygon fill="black" stroke="black" points="799.76,-40.63 809.56,-36.6 799.38,-33.64 799.76,-40.63"/>
<text xml:space="preserve" text-anchor="middle" x="498.05" y="-103.3" font-family="Arial" font-size="11.00">«max 1, only» infrastructureDescriptor</text>
</g>
<!-- SupplementaryPositionalDescription&#45;&gt;code_Code -->
<g id="edge10" class="edge">
<title>SupplementaryPositionalDescription&#45;&gt;code_Code</title>
<path fill="none" stroke="black" d="M548.17,-174.59C550.01,-164.08 553.52,-152.13 560.18,-143 569.12,-130.75 577.67,-134.88 589.18,-125 605.14,-111.29 602,-100.02 619.93,-89 676.06,-54.5 752.8,-42.04 799.85,-37.54"/>
<polygon fill="black" stroke="black" points="799.98,-41.04 809.64,-36.69 799.37,-34.07 799.98,-41.04"/>
<text xml:space="preserve" text-anchor="middle" x="711.05" y="-103.3" font-family="Arial" font-size="11.00">«max 1, only» positionOnCarriageway</text>
</g>
<!-- Invis&#45;&gt;cityunits_Length -->
<!-- cityunits_Length&#45;&gt;code_Code -->
</g>
</svg>
