<?xml version="1.0" encoding="UTF-8" standalone="no"?>
<!DOCTYPE svg PUBLIC "-//W3C//DTD SVG 1.1//EN"
 "http://www.w3.org/Graphics/SVG/1.1/DTD/svg11.dtd">
<!-- Generated by graphviz version 13.1.0 (20250701.0955)
 -->
<!-- Pages: 1 -->
<svg width="200pt" height="132pt"
 viewBox="0.00 0.00 200.00 132.00" xmlns="http://www.w3.org/2000/svg" xmlns:xlink="http://www.w3.org/1999/xlink">
<g id="graph0" class="graph" transform="scale(1 1) rotate(0) translate(4 128)">
<polygon fill="white" stroke="none" points="-4,4 -4,-128 195.5,-128 195.5,4 -4,4"/>
<g id="clust2" class="cluster">
<title>cluster_associated</title>
</g>
<!-- transportnetwork_ITSThing -->
<g id="node1" class="node">
<title>transportnetwork_ITSThing</title>
<g id="a_node1"><a xlink:href="../classes/transportnetwork:ITSThing.md" xlink:title="&lt;TABLE&gt;">
<polygon fill="lightgray" stroke="none" points="1,-97.88 1,-114.12 144,-114.12 144,-97.88 1,-97.88"/>
<text xml:space="preserve" text-anchor="start" x="2" y="-101.72" font-family="Arial" font-size="12.00">transportnetwork:ITSThing</text>
<polygon fill="none" stroke="black" points="0,-96.88 0,-115.12 145,-115.12 145,-96.88 0,-96.88"/>
</a>
</g>
</g>
<!-- TimeThing -->
<g id="node2" class="node">
<title>TimeThing</title>
<g id="a_node2"><a xlink:href="../classes/TimeThing.md" xlink:title="&lt;TABLE&gt;">
<polygon fill="lightgray" stroke="none" points="43,-25.88 43,-42.12 102,-42.12 102,-25.88 43,-25.88"/>
<text xml:space="preserve" text-anchor="start" x="44" y="-29.73" font-family="Arial" font-size="12.00">TimeThing</text>
<polygon fill="none" stroke="black" points="42,-24.88 42,-43.12 103,-43.12 103,-24.88 42,-24.88"/>
</a>
</g>
</g>
<!-- TimeThing&#45;&gt;transportnetwork_ITSThing -->
<g id="edge1" class="edge">
<title>TimeThing&#45;&gt;transportnetwork_ITSThing</title>
<path fill="none" stroke="black" d="M72.5,-51.79C72.5,-59.25 72.5,-68.24 72.5,-76.69"/>
<polygon fill="none" stroke="black" points="69,-76.54 72.5,-86.54 76,-76.54 69,-76.54"/>
</g>
<!-- Invis -->
</g>
</svg>
