<?xml version="1.0" encoding="UTF-8" standalone="no"?>
<!DOCTYPE svg PUBLIC "-//W3C//DTD SVG 1.1//EN"
 "http://www.w3.org/Graphics/SVG/1.1/DTD/svg11.dtd">
<!-- Generated by graphviz version 13.1.0 (20250701.0955)
 -->
<!-- Pages: 1 -->
<svg width="206pt" height="132pt"
 viewBox="0.00 0.00 206.00 132.00" xmlns="http://www.w3.org/2000/svg" xmlns:xlink="http://www.w3.org/1999/xlink">
<g id="graph0" class="graph" transform="scale(1 1) rotate(0) translate(4 128)">
<polygon fill="white" stroke="none" points="-4,4 -4,-128 202.25,-128 202.25,4 -4,4"/>
<g id="clust2" class="cluster">
<title>cluster_associated</title>
</g>
<!-- transportnetwork_ITSPattern -->
<g id="node1" class="node">
<title>transportnetwork_ITSPattern</title>
<g id="a_node1"><a xlink:href="../classes/transportnetwork:ITSPattern.md" xlink:title="&lt;TABLE&gt;">
<polygon fill="lightgray" stroke="none" points="1,-97.88 1,-114.12 151.5,-114.12 151.5,-97.88 1,-97.88"/>
<text xml:space="preserve" text-anchor="start" x="2" y="-101.72" font-family="Arial" font-size="12.00">transportnetwork:ITSPattern</text>
<polygon fill="none" stroke="black" points="0,-96.88 0,-115.12 152.5,-115.12 152.5,-96.88 0,-96.88"/>
</a>
</g>
</g>
<!-- TimePattern -->
<g id="node2" class="node">
<title>TimePattern</title>
<g id="a_node2"><a xlink:href="../classes/TimePattern.md" xlink:title="&lt;TABLE&gt;">
<polygon fill="lightgray" stroke="none" points="43,-25.88 43,-42.12 109.5,-42.12 109.5,-25.88 43,-25.88"/>
<text xml:space="preserve" text-anchor="start" x="44" y="-29.73" font-family="Arial" font-size="12.00">TimePattern</text>
<polygon fill="none" stroke="black" points="42,-24.88 42,-43.12 110.5,-43.12 110.5,-24.88 42,-24.88"/>
</a>
</g>
</g>
<!-- TimePattern&#45;&gt;transportnetwork_ITSPattern -->
<g id="edge1" class="edge">
<title>TimePattern&#45;&gt;transportnetwork_ITSPattern</title>
<path fill="none" stroke="black" d="M76.25,-51.79C76.25,-59.25 76.25,-68.24 76.25,-76.69"/>
<polygon fill="none" stroke="black" points="72.75,-76.54 76.25,-86.54 79.75,-76.54 72.75,-76.54"/>
</g>
<!-- Invis -->
</g>
</svg>
