<?xml version="1.0" encoding="UTF-8" standalone="no"?>
<!DOCTYPE svg PUBLIC "-//W3C//DTD SVG 1.1//EN"
 "http://www.w3.org/Graphics/SVG/1.1/DTD/svg11.dtd">
<!-- Generated by graphviz version 13.1.0 (20250701.0955)
 -->
<!-- Pages: 1 -->
<svg width="324pt" height="139pt"
 viewBox="0.00 0.00 324.00 139.00" xmlns="http://www.w3.org/2000/svg" xmlns:xlink="http://www.w3.org/1999/xlink">
<g id="graph0" class="graph" transform="scale(1 1) rotate(0) translate(4 135.38)">
<polygon fill="white" stroke="none" points="-4,4 -4,-135.38 319.75,-135.38 319.75,4 -4,4"/>
<g id="clust2" class="cluster">
<title>cluster_associated</title>
</g>
<!-- TimeThing -->
<g id="node1" class="node">
<title>TimeThing</title>
<g id="a_node1"><a xlink:href="../classes/TimeThing.md" xlink:title="&lt;TABLE&gt;">
<polygon fill="lightgray" stroke="none" points="84.25,-105.25 84.25,-121.5 143.25,-121.5 143.25,-105.25 84.25,-105.25"/>
<text xml:space="preserve" text-anchor="start" x="85.25" y="-109.1" font-family="Arial" font-size="12.00">TimeThing</text>
<polygon fill="none" stroke="black" points="83.25,-104.25 83.25,-122.5 144.25,-122.5 144.25,-104.25 83.25,-104.25"/>
</a>
</g>
</g>
<!-- TimePeriodOfDay -->
<g id="node2" class="node">
<title>TimePeriodOfDay</title>
<g id="a_node2"><a xlink:href="../classes/TimePeriodOfDay.md" xlink:title="&lt;TABLE&gt;">
<polygon fill="lightgray" stroke="none" points="1,-42.12 1,-58.38 226.5,-58.38 226.5,-42.12 1,-42.12"/>
<text xml:space="preserve" text-anchor="start" x="66.12" y="-45.98" font-family="Arial" font-size="12.00">TimePeriodOfDay</text>
<text xml:space="preserve" text-anchor="start" x="2" y="-29.73" font-family="Arial" font-size="12.00">endTimeOfPeriod: string «exactly 1, only»</text>
<text xml:space="preserve" text-anchor="start" x="2" y="-13.47" font-family="Arial" font-size="12.00">startTimeOfPeriod: string «exactly 1, only»</text>
<polygon fill="none" stroke="black" points="0,-8.62 0,-59.38 227.5,-59.38 227.5,-8.62 0,-8.62"/>
</a>
</g>
</g>
<!-- TimePeriodOfDay&#45;&gt;TimeThing -->
<g id="edge1" class="edge">
<title>TimePeriodOfDay&#45;&gt;TimeThing</title>
<path fill="none" stroke="black" d="M113.75,-59.1C113.75,-67.05 113.75,-75.97 113.75,-84.21"/>
<polygon fill="none" stroke="black" points="110.25,-84.07 113.75,-94.07 117.25,-84.07 110.25,-84.07"/>
</g>
<!-- Invis -->
</g>
</svg>
