<?xml version="1.0" encoding="UTF-8" standalone="no"?>
<!DOCTYPE svg PUBLIC "-//W3C//DTD SVG 1.1//EN"
 "http://www.w3.org/Graphics/SVG/1.1/DTD/svg11.dtd">
<!-- Generated by graphviz version 14.0.2 (20251019.1705)
 -->
<!-- Pages: 1 -->
<svg width="208pt" height="132pt"
 viewBox="0.00 0.00 208.00 132.00" xmlns="http://www.w3.org/2000/svg" xmlns:xlink="http://www.w3.org/1999/xlink">
<g id="graph0" class="graph" transform="scale(1 1) rotate(0) translate(4 128)">
<polygon fill="white" stroke="none" points="-4,4 -4,-128 204.38,-128 204.38,4 -4,4"/>
<g id="clust2" class="cluster">
<title>cluster_associated</title>
</g>
<!-- TrafficControlDevice -->
<g id="node1" class="node">
<title>TrafficControlDevice</title>
<g id="a_node1"><a xlink:href="../TrafficControlDevice" xlink:title="&lt;TABLE&gt;">
<polygon fill="lightgray" stroke="none" points="1,-81.88 1,-98.12 111.75,-98.12 111.75,-81.88 1,-81.88"/>
<text xml:space="preserve" text-anchor="start" x="2" y="-85.72" font-family="Arial" font-size="12.00">TrafficControlDevice</text>
<polygon fill="none" stroke="black" points="0,-80.88 0,-99.12 112.75,-99.12 112.75,-80.88 0,-80.88"/>
</a>
</g>
</g>
<!-- RegulationThing -->
<g id="node3" class="node">
<title>RegulationThing</title>
<g id="a_node3"><a xlink:href="../RegulationThing" xlink:title="&lt;TABLE&gt;">
<polygon fill="lightgray" stroke="none" points="10.75,-9.88 10.75,-26.12 102,-26.12 102,-9.88 10.75,-9.88"/>
<text xml:space="preserve" text-anchor="start" x="11.75" y="-13.72" font-family="Arial" font-size="12.00">RegulationThing</text>
<polygon fill="none" stroke="black" points="9.75,-8.88 9.75,-27.12 103,-27.12 103,-8.88 9.75,-8.88"/>
</a>
</g>
</g>
<!-- TrafficControlDevice&#45;&gt;RegulationThing -->
<g id="edge1" class="edge">
<title>TrafficControlDevice&#45;&gt;RegulationThing</title>
<path fill="none" stroke="black" d="M56.38,-72.05C56.38,-64.57 56.38,-55.58 56.38,-47.14"/>
<polygon fill="none" stroke="black" points="59.88,-47.3 56.38,-37.3 52.88,-47.3 59.88,-47.3"/>
</g>
<!-- Invis -->
</g>
</svg>
