<?xml version="1.0" encoding="UTF-8" standalone="no"?>
<!DOCTYPE svg PUBLIC "-//W3C//DTD SVG 1.1//EN"
 "http://www.w3.org/Graphics/SVG/1.1/DTD/svg11.dtd">
<!-- Generated by graphviz version 14.0.2 (20251019.1705)
 -->
<!-- Pages: 1 -->
<svg width="321pt" height="305pt"
 viewBox="0.00 0.00 321.00 305.00" xmlns="http://www.w3.org/2000/svg" xmlns:xlink="http://www.w3.org/1999/xlink">
<g id="graph0" class="graph" transform="scale(1 1) rotate(0) translate(4 301)">
<polygon fill="white" stroke="none" points="-4,4 -4,-301 317.48,-301 317.48,4 -4,4"/>
<g id="clust2" class="cluster">
<title>cluster_associated</title>
</g>
<!-- TrafficRegulation -->
<g id="node1" class="node">
<title>TrafficRegulation</title>
<g id="a_node1"><a xlink:href="../TrafficRegulation.md" xlink:title="&lt;TABLE&gt;">
<polygon fill="lightgray" stroke="none" points="144.62,-197.88 144.62,-214.12 237.38,-214.12 237.38,-197.88 144.62,-197.88"/>
<text xml:space="preserve" text-anchor="start" x="145.62" y="-201.72" font-family="Arial" font-size="12.00">TrafficRegulation</text>
<polygon fill="none" stroke="black" points="143.62,-196.88 143.62,-215.12 238.38,-215.12 238.38,-196.88 143.62,-196.88"/>
</a>
</g>
</g>
<!-- Invis -->
<!-- TrafficRegulation&#45;&gt;Invis -->
<!-- Condition -->
<g id="node3" class="node">
<title>Condition</title>
<g id="a_node3"><a xlink:href="../Condition.md" xlink:title="&lt;TABLE&gt;">
<polygon fill="lightgray" stroke="none" points="54.12,-98.88 54.12,-115.12 107.88,-115.12 107.88,-98.88 54.12,-98.88"/>
<text xml:space="preserve" text-anchor="start" x="55.12" y="-102.72" font-family="Arial" font-size="12.00">Condition</text>
<polygon fill="none" stroke="black" points="53.12,-97.88 53.12,-116.12 108.88,-116.12 108.88,-97.88 53.12,-97.88"/>
</a>
</g>
</g>
<!-- TrafficRegulation&#45;&gt;Condition -->
<g id="edge6" class="edge">
<title>TrafficRegulation&#45;&gt;Condition</title>
<path fill="none" stroke="black" d="M147.81,-188.06C138.27,-183.12 128.66,-177.1 120.75,-170 109.78,-160.16 100.64,-146.61 93.89,-134.69"/>
<polygon fill="black" stroke="black" points="97.1,-133.28 89.31,-126.11 90.93,-136.58 97.1,-133.28"/>
<text xml:space="preserve" text-anchor="middle" x="145.88" y="-159.55" font-family="Arial" font-size="11.00"> condition </text>
<text xml:space="preserve" text-anchor="middle" x="145.88" y="-146.05" font-family="Arial" font-size="11.00"> «max 1» &#160;</text>
</g>
<!-- TrafficControlDevice -->
<g id="node4" class="node">
<title>TrafficControlDevice</title>
<g id="a_node4"><a xlink:href="../TrafficControlDevice.md" xlink:title="&lt;TABLE&gt;">
<polygon fill="lightgray" stroke="none" points="16.62,-25.88 16.62,-42.12 127.38,-42.12 127.38,-25.88 16.62,-25.88"/>
<text xml:space="preserve" text-anchor="start" x="17.62" y="-29.73" font-family="Arial" font-size="12.00">TrafficControlDevice</text>
<polygon fill="none" stroke="black" points="15.62,-24.88 15.62,-43.12 128.38,-43.12 128.38,-24.88 15.62,-24.88"/>
</a>
</g>
</g>
<!-- TrafficRegulation&#45;&gt;TrafficControlDevice -->
<g id="edge5" class="edge">
<title>TrafficRegulation&#45;&gt;TrafficControlDevice</title>
<path fill="none" stroke="black" d="M187.63,-188.13C184.57,-175.18 179.25,-157.17 171,-143 152.14,-110.59 122.17,-79.69 100.14,-59.31"/>
<polygon fill="black" stroke="black" points="102.71,-56.92 92.95,-52.79 98.01,-62.1 102.71,-56.92"/>
<text xml:space="preserve" text-anchor="middle" x="236.23" y="-110.05" font-family="Arial" font-size="11.00"> associatedTrafficControlDevice </text>
<text xml:space="preserve" text-anchor="middle" x="236.23" y="-96.55" font-family="Arial" font-size="11.00"> «only» &#160;</text>
</g>
<!-- RegulationThing -->
<g id="node5" class="node">
<title>RegulationThing</title>
<g id="a_node5"><a xlink:href="../RegulationThing.md" xlink:title="&lt;TABLE&gt;">
<polygon fill="lightgray" stroke="none" points="145.38,-270.88 145.38,-287.12 236.62,-287.12 236.62,-270.88 145.38,-270.88"/>
<text xml:space="preserve" text-anchor="start" x="146.38" y="-274.73" font-family="Arial" font-size="12.00">RegulationThing</text>
<polygon fill="none" stroke="black" points="144.38,-269.88 144.38,-288.12 237.62,-288.12 237.62,-269.88 144.38,-269.88"/>
</a>
</g>
</g>
<!-- TrafficRegulation&#45;&gt;RegulationThing -->
<g id="edge1" class="edge">
<title>TrafficRegulation&#45;&gt;RegulationThing</title>
<path fill="none" stroke="black" d="M191,-223.71C191,-231.47 191,-240.92 191,-249.74"/>
<polygon fill="none" stroke="black" points="187.5,-249.66 191,-259.66 194.5,-249.66 187.5,-249.66"/>
</g>
<!-- Invis&#45;&gt;Condition -->
<!-- Condition&#45;&gt;TrafficControlDevice -->
</g>
</svg>
