<?xml version="1.0" encoding="UTF-8" standalone="no"?>
<!DOCTYPE svg PUBLIC "-//W3C//DTD SVG 1.1//EN"
 "http://www.w3.org/Graphics/SVG/1.1/DTD/svg11.dtd">
<!-- Generated by graphviz version 14.1.3 (20260303.0454)
 -->
<!-- Pages: 1 -->
<svg width="195pt" height="279pt"
 viewBox="0.00 0.00 195.00 279.00" xmlns="http://www.w3.org/2000/svg" xmlns:xlink="http://www.w3.org/1999/xlink">
<g id="graph0" class="graph" transform="scale(1 1) rotate(0) translate(4 275)">
<polygon fill="white" stroke="none" points="-4,4 -4,-275 190.75,-275 190.75,4 -4,4"/>
<g id="clust3" class="cluster">
<title>cluster_associated</title>
</g>
<!-- RegulationThing -->
<g id="node1" class="node">
<title>RegulationThing</title>
<g id="a_node1"><a xlink:href="../RegulationThing" xlink:title="&lt;TABLE&gt;">
<polygon fill="lightgray" stroke="none" points="60.38,-244.88 60.38,-261.12 151.62,-261.12 151.62,-244.88 60.38,-244.88"/>
<text xml:space="preserve" text-anchor="start" x="61.38" y="-248.88" font-family="Arial" font-size="12.00">RegulationThing</text>
<polygon fill="none" stroke="black" points="59.38,-243.88 59.38,-262.12 152.62,-262.12 152.62,-243.88 59.38,-243.88"/>
</a>
</g>
</g>
<!-- TrafficControlDevice -->
<g id="node2" class="node">
<title>TrafficControlDevice</title>
<g id="a_node2"><a xlink:href="../TrafficControlDevice" xlink:title="&lt;TABLE&gt;">
<polygon fill="lightgray" stroke="none" points="26.25,-180 26.25,-196.25 185.75,-196.25 185.75,-180 26.25,-180"/>
<text xml:space="preserve" text-anchor="start" x="51.62" y="-184" font-family="Arial" font-size="12.00">TrafficControlDevice</text>
<text xml:space="preserve" text-anchor="start" x="27.25" y="-167.75" font-family="Arial" font-size="12.00">cdm1:hasIdentifier : xsd:string</text>
<polygon fill="none" stroke="black" points="25.25,-162.75 25.25,-197.25 186.75,-197.25 186.75,-162.75 25.25,-162.75"/>
</a>
</g>
</g>
<!-- TrafficControlDevice&#45;&gt;RegulationThing -->
<g id="edge1" class="edge">
<title>TrafficControlDevice&#45;&gt;RegulationThing</title>
<path fill="none" stroke="black" d="M106,-197.71C106,-205.47 106,-214.92 106,-223.74"/>
<polygon fill="none" stroke="black" points="102.5,-223.66 106,-233.66 109.5,-223.66 102.5,-223.66"/>
</g>
<!-- Invis -->
<!-- TrafficControlDevice&#45;&gt;Invis -->
<!-- owl_Thing -->
<g id="node4" class="node">
<title>owl_Thing</title>
<g id="a_node4"><a xlink:href="https://w3id.org/citydata/imported/owl/latest/Thing" xlink:title="&lt;TABLE&gt;">
<polygon fill="lightgray" stroke="none" points="16.75,-25.88 16.75,-42.12 71.25,-42.12 71.25,-25.88 16.75,-25.88"/>
<text xml:space="preserve" text-anchor="start" x="17.75" y="-29.88" font-family="Arial" font-size="12.00">owl:Thing</text>
<polygon fill="none" stroke="black" points="15.75,-24.88 15.75,-43.12 72.25,-43.12 72.25,-24.88 15.75,-24.88"/>
</a>
</g>
</g>
<!-- TrafficControlDevice&#45;&gt;owl_Thing -->
<g id="edge4" class="edge">
<title>TrafficControlDevice&#45;&gt;owl_Thing</title>
<path fill="none" stroke="black" d="M102.47,-162.23C98.25,-143.76 90.3,-113.43 79,-89 74.62,-79.53 68.77,-69.77 63.11,-61.21"/>
<polygon fill="black" stroke="black" points="66.05,-59.31 57.51,-53.04 60.28,-63.26 66.05,-59.31"/>
<text xml:space="preserve" text-anchor="middle" x="100.58" y="-103.3" font-family="Arial" font-size="11.00">url</text>
</g>
<!-- TrafficControlDevice&#45;&gt;owl_Thing -->
<g id="edge5" class="edge">
<title>TrafficControlDevice&#45;&gt;owl_Thing</title>
<path fill="none" stroke="black" d="M111.66,-162.1C116.93,-143.25 122.43,-112.33 111,-89 104.52,-75.77 93.09,-64.71 81.48,-56.13"/>
<polygon fill="black" stroke="black" points="83.7,-53.41 73.47,-50.63 79.74,-59.18 83.7,-53.41"/>
<text xml:space="preserve" text-anchor="middle" x="132.34" y="-103.3" font-family="Arial" font-size="11.00">image</text>
</g>
<!-- Invis&#45;&gt;owl_Thing -->
</g>
</svg>
