<?xml version="1.0" encoding="UTF-8" standalone="no"?>
<!DOCTYPE svg PUBLIC "-//W3C//DTD SVG 1.1//EN"
 "http://www.w3.org/Graphics/SVG/1.1/DTD/svg11.dtd">
<!-- Generated by graphviz version 13.1.0 (20250701.0955)
 -->
<!-- Pages: 1 -->
<svg width="208pt" height="132pt"
 viewBox="0.00 0.00 208.00 132.00" xmlns="http://www.w3.org/2000/svg" xmlns:xlink="http://www.w3.org/1999/xlink">
<g id="graph0" class="graph" transform="scale(1 1) rotate(0) translate(4 128)">
<polygon fill="white" stroke="none" points="-4,4 -4,-128 204.38,-128 204.38,4 -4,4"/>
<g id="clust2" class="cluster">
<title>cluster_associated</title>
</g>
<!-- TroThing -->
<g id="node1" class="node">
<title>TroThing</title>
<g id="a_node1"><a xlink:href="../classes/TroThing.md" xlink:title="&lt;TABLE&gt;">
<polygon fill="lightgray" stroke="none" points="31.38,-97.88 31.38,-114.12 81.38,-114.12 81.38,-97.88 31.38,-97.88"/>
<text xml:space="preserve" text-anchor="start" x="32.38" y="-101.72" font-family="Arial" font-size="12.00">TroThing</text>
<polygon fill="none" stroke="black" points="30.38,-96.88 30.38,-115.12 82.38,-115.12 82.38,-96.88 30.38,-96.88"/>
</a>
</g>
</g>
<!-- TrafficControlDevice -->
<g id="node2" class="node">
<title>TrafficControlDevice</title>
<g id="a_node2"><a xlink:href="../classes/TrafficControlDevice.md" xlink:title="&lt;TABLE&gt;">
<polygon fill="lightgray" stroke="none" points="1,-25.88 1,-42.12 111.75,-42.12 111.75,-25.88 1,-25.88"/>
<text xml:space="preserve" text-anchor="start" x="2" y="-29.73" font-family="Arial" font-size="12.00">TrafficControlDevice</text>
<polygon fill="none" stroke="black" points="0,-24.88 0,-43.12 112.75,-43.12 112.75,-24.88 0,-24.88"/>
</a>
</g>
</g>
<!-- TrafficControlDevice&#45;&gt;TroThing -->
<g id="edge1" class="edge">
<title>TrafficControlDevice&#45;&gt;TroThing</title>
<path fill="none" stroke="black" d="M56.38,-51.79C56.38,-59.25 56.38,-68.24 56.38,-76.69"/>
<polygon fill="none" stroke="black" points="52.88,-76.54 56.38,-86.54 59.88,-76.54 52.88,-76.54"/>
</g>
<!-- Invis -->
</g>
</svg>
