<?xml version="1.0" encoding="UTF-8" standalone="no"?>
<!DOCTYPE svg PUBLIC "-//W3C//DTD SVG 1.1//EN"
 "http://www.w3.org/Graphics/SVG/1.1/DTD/svg11.dtd">
<!-- Generated by graphviz version 13.1.0 (20250701.0955)
 -->
<!-- Pages: 1 -->
<svg width="206pt" height="132pt"
 viewBox="0.00 0.00 206.00 132.00" xmlns="http://www.w3.org/2000/svg" xmlns:xlink="http://www.w3.org/1999/xlink">
<g id="graph0" class="graph" transform="scale(1 1) rotate(0) translate(4 128)">
<polygon fill="white" stroke="none" points="-4,4 -4,-128 202.38,-128 202.38,4 -4,4"/>
<g id="clust2" class="cluster">
<title>cluster_associated</title>
</g>
<!-- TrafficControlDevice -->
<g id="node1" class="node">
<title>TrafficControlDevice</title>
<g id="a_node1"><a xlink:href="../classes/TrafficControlDevice.md" xlink:title="&lt;TABLE&gt;">
<polygon fill="lightgray" stroke="none" points="1,-97.88 1,-114.12 111.75,-114.12 111.75,-97.88 1,-97.88"/>
<text xml:space="preserve" text-anchor="start" x="2" y="-101.72" font-family="Arial" font-size="12.00">TrafficControlDevice</text>
<polygon fill="none" stroke="black" points="0,-96.88 0,-115.12 112.75,-115.12 112.75,-96.88 0,-96.88"/>
</a>
</g>
</g>
<!-- TrafficSignalDevice -->
<g id="node2" class="node">
<title>TrafficSignalDevice</title>
<g id="a_node2"><a xlink:href="../classes/TrafficSignalDevice.md" xlink:title="&lt;TABLE&gt;">
<polygon fill="lightgray" stroke="none" points="3.25,-25.88 3.25,-42.12 109.5,-42.12 109.5,-25.88 3.25,-25.88"/>
<text xml:space="preserve" text-anchor="start" x="4.25" y="-29.73" font-family="Arial" font-size="12.00">TrafficSignalDevice</text>
<polygon fill="none" stroke="black" points="2.25,-24.88 2.25,-43.12 110.5,-43.12 110.5,-24.88 2.25,-24.88"/>
</a>
</g>
</g>
<!-- TrafficSignalDevice&#45;&gt;TrafficControlDevice -->
<g id="edge1" class="edge">
<title>TrafficSignalDevice&#45;&gt;TrafficControlDevice</title>
<path fill="none" stroke="black" d="M56.38,-51.79C56.38,-59.25 56.38,-68.24 56.38,-76.69"/>
<polygon fill="none" stroke="black" points="52.88,-76.54 56.38,-86.54 59.88,-76.54 52.88,-76.54"/>
</g>
<!-- Invis -->
</g>
</svg>
