<?xml version="1.0" encoding="UTF-8" standalone="no"?>
<!DOCTYPE svg PUBLIC "-//W3C//DTD SVG 1.1//EN"
 "http://www.w3.org/Graphics/SVG/1.1/DTD/svg11.dtd">
<!-- Generated by graphviz version 14.0.2 (20251019.1705)
 -->
<!-- Pages: 1 -->
<svg width="744pt" height="649pt"
 viewBox="0.00 0.00 744.00 649.00" xmlns="http://www.w3.org/2000/svg" xmlns:xlink="http://www.w3.org/1999/xlink">
<g id="graph0" class="graph" transform="scale(1 1) rotate(0) translate(4 645)">
<polygon fill="white" stroke="none" points="-4,4 -4,-645 740.25,-645 740.25,4 -4,4"/>
<g id="clust2" class="cluster">
<title>cluster_associated</title>
</g>
<!-- TrafficRegulationOrder -->
<g id="node1" class="node">
<title>TrafficRegulationOrder</title>
<g id="a_node1"><a xlink:href="../TrafficRegulationOrder.md" xlink:title="&lt;TABLE&gt;">
<polygon fill="lightgray" stroke="none" points="264.62,-541.88 264.62,-558.12 387.38,-558.12 387.38,-541.88 264.62,-541.88"/>
<text xml:space="preserve" text-anchor="start" x="265.62" y="-545.73" font-family="Arial" font-size="12.00">TrafficRegulationOrder</text>
<polygon fill="none" stroke="black" points="263.62,-540.88 263.62,-559.12 388.38,-559.12 388.38,-540.88 263.62,-540.88"/>
</a>
</g>
</g>
<!-- Invis -->
<!-- TrafficRegulationOrder&#45;&gt;Invis -->
<!-- cdm2_Code -->
<g id="node3" class="node">
<title>cdm2_Code</title>
<polygon fill="lightgray" stroke="none" points="17.25,-442.88 17.25,-459.12 80.75,-459.12 80.75,-442.88 17.25,-442.88"/>
<text xml:space="preserve" text-anchor="start" x="18.25" y="-446.73" font-family="Arial" font-size="12.00">cdm2:Code</text>
<polygon fill="none" stroke="black" points="16.25,-441.88 16.25,-460.12 81.75,-460.12 81.75,-441.88 16.25,-441.88"/>
</g>
<!-- TrafficRegulationOrder&#45;&gt;cdm2_Code -->
<g id="edge10" class="edge">
<title>TrafficRegulationOrder&#45;&gt;cdm2_Code</title>
<path fill="none" stroke="black" d="M263.9,-540.87C241.84,-538.01 216.82,-534.82 194,-532 160.19,-527.82 64.38,-539.47 41.75,-514 33.57,-504.79 34.08,-491.54 37.18,-479.64"/>
<polygon fill="black" stroke="black" points="40.46,-480.87 40.27,-470.27 33.81,-478.67 40.46,-480.87"/>
<text xml:space="preserve" text-anchor="middle" x="74.38" y="-503.55" font-family="Arial" font-size="11.00"> reasonCode </text>
<text xml:space="preserve" text-anchor="middle" x="74.38" y="-490.05" font-family="Arial" font-size="11.00"> «only» &#160;</text>
</g>
<!-- TrafficRegulationOrder&#45;&gt;cdm2_Code -->
<g id="edge11" class="edge">
<title>TrafficRegulationOrder&#45;&gt;cdm2_Code</title>
<path fill="none" stroke="black" d="M263.8,-542.41C215.41,-536.45 152.85,-526.67 130.5,-514 116.66,-506.15 119.18,-497.23 107,-487 101.92,-482.73 96.27,-478.65 90.54,-474.88"/>
<polygon fill="black" stroke="black" points="92.53,-471.99 82.2,-469.64 88.81,-477.92 92.53,-471.99"/>
<text xml:space="preserve" text-anchor="middle" x="185.25" y="-503.55" font-family="Arial" font-size="11.00"> implementationStatus </text>
<text xml:space="preserve" text-anchor="middle" x="185.25" y="-490.05" font-family="Arial" font-size="11.00"> «exactly 1» &#160;</text>
</g>
<!-- its&#45;location_LocationReference -->
<g id="node4" class="node">
<title>its&#45;location_LocationReference</title>
<polygon fill="lightgray" stroke="none" points="17,-343.88 17,-360.12 181,-360.12 181,-343.88 17,-343.88"/>
<text xml:space="preserve" text-anchor="start" x="18" y="-347.73" font-family="Arial" font-size="12.00">its&#45;location:LocationReference</text>
<polygon fill="none" stroke="black" points="16,-342.88 16,-361.12 182,-361.12 182,-342.88 16,-342.88"/>
</g>
<!-- TrafficRegulationOrder&#45;&gt;its&#45;location_LocationReference -->
<g id="edge13" class="edge">
<title>TrafficRegulationOrder&#45;&gt;its&#45;location_LocationReference</title>
<path fill="none" stroke="black" d="M295.05,-532.07C286.05,-526.69 276.39,-520.45 268,-514 254.29,-503.47 255.44,-494.77 240,-487 196.53,-465.13 168.28,-501.43 132,-469 107.23,-446.86 100.49,-407.59 98.94,-380.94"/>
<polygon fill="black" stroke="black" points="102.45,-381.07 98.6,-371.2 95.45,-381.32 102.45,-381.07"/>
<text xml:space="preserve" text-anchor="middle" x="186" y="-454.05" font-family="Arial" font-size="11.00"> implementedLocation </text>
<text xml:space="preserve" text-anchor="middle" x="186" y="-440.55" font-family="Arial" font-size="11.00"> «max 1» &#160;</text>
</g>
<!-- TrafficRegulationOrder&#45;&gt;its&#45;location_LocationReference -->
<g id="edge14" class="edge">
<title>TrafficRegulationOrder&#45;&gt;its&#45;location_LocationReference</title>
<path fill="none" stroke="black" d="M316.7,-532.31C302.58,-508.11 273.79,-462.91 240,-433 212.88,-409 177.39,-388.91 148.8,-374.87"/>
<polygon fill="black" stroke="black" points="150.51,-371.8 139.98,-370.62 147.47,-378.11 150.51,-371.8"/>
<text xml:space="preserve" text-anchor="middle" x="314.65" y="-454.05" font-family="Arial" font-size="11.00"> locationByOrder </text>
<text xml:space="preserve" text-anchor="middle" x="314.65" y="-440.55" font-family="Arial" font-size="11.00"> «max 1» &#160;</text>
</g>
<!-- its&#45;time_Validity -->
<g id="node5" class="node">
<title>its&#45;time_Validity</title>
<polygon fill="lightgray" stroke="none" points="99.25,-244.88 99.25,-261.12 180.75,-261.12 180.75,-244.88 99.25,-244.88"/>
<text xml:space="preserve" text-anchor="start" x="100.25" y="-248.72" font-family="Arial" font-size="12.00">its&#45;time:Validity</text>
<polygon fill="none" stroke="black" points="98.25,-243.88 98.25,-262.12 181.75,-262.12 181.75,-243.88 98.25,-243.88"/>
</g>
<!-- TrafficRegulationOrder&#45;&gt;its&#45;time_Validity -->
<g id="edge15" class="edge">
<title>TrafficRegulationOrder&#45;&gt;its&#45;time_Validity</title>
<path fill="none" stroke="black" d="M339.12,-532.26C356.43,-508 382.16,-462.73 359,-433 338.93,-407.23 315.8,-431.73 287.75,-415 229.83,-380.45 181.1,-316.24 156.73,-280.23"/>
<polygon fill="black" stroke="black" points="159.8,-278.52 151.35,-272.13 153.96,-282.39 159.8,-278.52"/>
<text xml:space="preserve" text-anchor="middle" x="338.38" y="-404.55" font-family="Arial" font-size="11.00"> implementedValidity </text>
<text xml:space="preserve" text-anchor="middle" x="338.38" y="-391.05" font-family="Arial" font-size="11.00"> «max 1» &#160;</text>
</g>
<!-- TrafficRegulationOrder&#45;&gt;its&#45;time_Validity -->
<g id="edge16" class="edge">
<title>TrafficRegulationOrder&#45;&gt;its&#45;time_Validity</title>
<path fill="none" stroke="black" d="M354.28,-532.09C360.67,-527.03 366.79,-520.94 371,-514 400.32,-465.62 418.01,-436.56 389,-388 346.54,-316.93 251.98,-281.35 192.37,-265.34"/>
<polygon fill="black" stroke="black" points="193.33,-261.97 182.77,-262.86 191.58,-268.75 193.33,-261.97"/>
<text xml:space="preserve" text-anchor="middle" x="440.18" y="-404.55" font-family="Arial" font-size="11.00"> validityByOrder </text>
<text xml:space="preserve" text-anchor="middle" x="440.18" y="-391.05" font-family="Arial" font-size="11.00"> «max 1» &#160;</text>
</g>
<!-- LegalBasis -->
<g id="node6" class="node">
<title>LegalBasis</title>
<g id="a_node6"><a xlink:href="../LegalBasis.md" xlink:title="&lt;TABLE&gt;">
<polygon fill="lightgray" stroke="none" points="109,-171.88 109,-188.12 171,-188.12 171,-171.88 109,-171.88"/>
<text xml:space="preserve" text-anchor="start" x="110" y="-175.72" font-family="Arial" font-size="12.00">LegalBasis</text>
<polygon fill="none" stroke="black" points="108,-170.88 108,-189.12 172,-189.12 172,-170.88 108,-170.88"/>
</a>
</g>
</g>
<!-- TrafficRegulationOrder&#45;&gt;LegalBasis -->
<g id="edge12" class="edge">
<title>TrafficRegulationOrder&#45;&gt;LegalBasis</title>
<path fill="none" stroke="black" d="M366.29,-532.19C423.9,-505.55 519.17,-450.22 484,-388 418.45,-272.05 259.07,-213.86 182.48,-191.81"/>
<polygon fill="black" stroke="black" points="183.83,-188.55 173.25,-189.22 181.94,-195.29 183.83,-188.55"/>
<text xml:space="preserve" text-anchor="middle" x="499.7" y="-355.05" font-family="Arial" font-size="11.00"> legalBasis </text>
<text xml:space="preserve" text-anchor="middle" x="499.7" y="-341.55" font-family="Arial" font-size="11.00"> «max 1» &#160;</text>
</g>
<!-- RuleMakerRole -->
<g id="node7" class="node">
<title>RuleMakerRole</title>
<g id="a_node7"><a xlink:href="../RuleMakerRole.md" xlink:title="&lt;TABLE&gt;">
<polygon fill="lightgray" stroke="none" points="95,-98.88 95,-115.12 181,-115.12 181,-98.88 95,-98.88"/>
<text xml:space="preserve" text-anchor="start" x="96" y="-102.72" font-family="Arial" font-size="12.00">RuleMakerRole</text>
<polygon fill="none" stroke="black" points="94,-97.88 94,-116.12 182,-116.12 182,-97.88 94,-97.88"/>
</a>
</g>
</g>
<!-- TrafficRegulationOrder&#45;&gt;RuleMakerRole -->
<g id="edge9" class="edge">
<title>TrafficRegulationOrder&#45;&gt;RuleMakerRole</title>
<path fill="none" stroke="black" d="M388.18,-546.81C452.31,-540.83 543,-520.3 543,-452 543,-452 543,-452 543,-179 543,-143.88 303.69,-120.8 192.98,-112"/>
<polygon fill="black" stroke="black" points="193.48,-108.53 183.24,-111.24 192.93,-115.51 193.48,-108.53"/>
<text xml:space="preserve" text-anchor="middle" x="587.25" y="-305.55" font-family="Arial" font-size="11.00"> issuingAuthority </text>
<text xml:space="preserve" text-anchor="middle" x="587.25" y="-292.05" font-family="Arial" font-size="11.00"> «exactly 1, only» &#160;</text>
</g>
<!-- TrafficRegulation -->
<g id="node8" class="node">
<title>TrafficRegulation</title>
<g id="a_node8"><a xlink:href="../TrafficRegulation.md" xlink:title="&lt;TABLE&gt;">
<polygon fill="lightgray" stroke="none" points="88.62,-25.88 88.62,-42.12 181.38,-42.12 181.38,-25.88 88.62,-25.88"/>
<text xml:space="preserve" text-anchor="start" x="89.62" y="-29.73" font-family="Arial" font-size="12.00">TrafficRegulation</text>
<polygon fill="none" stroke="black" points="87.62,-24.88 87.62,-43.12 182.38,-43.12 182.38,-24.88 87.62,-24.88"/>
</a>
</g>
</g>
<!-- TrafficRegulationOrder&#45;&gt;TrafficRegulation -->
<g id="edge17" class="edge">
<title>TrafficRegulationOrder&#45;&gt;TrafficRegulation</title>
<path fill="none" stroke="black" d="M388.27,-542.96C481.62,-532.17 647,-505.49 647,-452 647,-452 647,-452 647,-106 647,-60.66 327.87,-42.66 193.51,-37.09"/>
<polygon fill="black" stroke="black" points="193.9,-33.6 183.76,-36.69 193.61,-40.59 193.9,-33.6"/>
<text xml:space="preserve" text-anchor="middle" x="691.62" y="-256.05" font-family="Arial" font-size="11.00"> trafficRegulations </text>
<text xml:space="preserve" text-anchor="middle" x="691.62" y="-242.55" font-family="Arial" font-size="11.00"> «min 1» &#160;</text>
</g>
<!-- RegulationThing -->
<g id="node9" class="node">
<title>RegulationThing</title>
<g id="a_node9"><a xlink:href="../RegulationThing.md" xlink:title="&lt;TABLE&gt;">
<polygon fill="lightgray" stroke="none" points="280.38,-614.88 280.38,-631.12 371.62,-631.12 371.62,-614.88 280.38,-614.88"/>
<text xml:space="preserve" text-anchor="start" x="281.38" y="-618.73" font-family="Arial" font-size="12.00">RegulationThing</text>
<polygon fill="none" stroke="black" points="279.38,-613.88 279.38,-632.12 372.62,-632.12 372.62,-613.88 279.38,-613.88"/>
</a>
</g>
</g>
<!-- TrafficRegulationOrder&#45;&gt;RegulationThing -->
<g id="edge1" class="edge">
<title>TrafficRegulationOrder&#45;&gt;RegulationThing</title>
<path fill="none" stroke="black" d="M326,-567.71C326,-575.47 326,-584.92 326,-593.74"/>
<polygon fill="none" stroke="black" points="322.5,-593.66 326,-603.66 329.5,-593.66 322.5,-593.66"/>
</g>
<!-- Invis&#45;&gt;cdm2_Code -->
<!-- cdm2_Code&#45;&gt;its&#45;location_LocationReference -->
<!-- its&#45;location_LocationReference&#45;&gt;its&#45;time_Validity -->
<!-- its&#45;time_Validity&#45;&gt;LegalBasis -->
<!-- LegalBasis&#45;&gt;RuleMakerRole -->
<!-- RuleMakerRole&#45;&gt;TrafficRegulation -->
</g>
</svg>
