<?xml version="1.0" encoding="UTF-8" standalone="no"?>
<!DOCTYPE svg PUBLIC "-//W3C//DTD SVG 1.1//EN"
 "http://www.w3.org/Graphics/SVG/1.1/DTD/svg11.dtd">
<!-- Generated by graphviz version 14.1.3 (20260303.0454)
 -->
<!-- Pages: 1 -->
<svg width="835pt" height="755pt"
 viewBox="0.00 0.00 835.00 755.00" xmlns="http://www.w3.org/2000/svg" xmlns:xlink="http://www.w3.org/1999/xlink">
<g id="graph0" class="graph" transform="scale(1 1) rotate(0) translate(4 750.5)">
<polygon fill="white" stroke="none" points="-4,4 -4,-750.5 830.75,-750.5 830.75,4 -4,4"/>
<g id="clust3" class="cluster">
<title>cluster_associated</title>
</g>
<!-- RegulationThing -->
<g id="node1" class="node">
<title>RegulationThing</title>
<g id="a_node1"><a xlink:href="../RegulationThing" xlink:title="&lt;TABLE&gt;">
<polygon fill="lightgray" stroke="none" points="342.38,-720.38 342.38,-736.62 433.62,-736.62 433.62,-720.38 342.38,-720.38"/>
<text xml:space="preserve" text-anchor="start" x="343.38" y="-724.38" font-family="Arial" font-size="12.00">RegulationThing</text>
<polygon fill="none" stroke="black" points="341.38,-719.38 341.38,-737.62 434.62,-737.62 434.62,-719.38 341.38,-719.38"/>
</a>
</g>
</g>
<!-- TrafficRegulationOrder -->
<g id="node2" class="node">
<title>TrafficRegulationOrder</title>
<g id="a_node2"><a xlink:href="../TrafficRegulationOrder" xlink:title="&lt;TABLE&gt;">
<polygon fill="lightgray" stroke="none" points="308.25,-655.5 308.25,-671.75 467.75,-671.75 467.75,-655.5 308.25,-655.5"/>
<text xml:space="preserve" text-anchor="start" x="327.62" y="-659.5" font-family="Arial" font-size="12.00">TrafficRegulationOrder</text>
<text xml:space="preserve" text-anchor="start" x="309.25" y="-643.25" font-family="Arial" font-size="12.00">cdm1:hasIdentifier : xsd:string</text>
<polygon fill="none" stroke="black" points="307.25,-638.25 307.25,-672.75 468.75,-672.75 468.75,-638.25 307.25,-638.25"/>
</a>
</g>
</g>
<!-- TrafficRegulationOrder&#45;&gt;RegulationThing -->
<g id="edge1" class="edge">
<title>TrafficRegulationOrder&#45;&gt;RegulationThing</title>
<path fill="none" stroke="black" d="M388,-673.21C388,-680.97 388,-690.42 388,-699.24"/>
<polygon fill="none" stroke="black" points="384.5,-699.16 388,-709.16 391.5,-699.16 384.5,-699.16"/>
</g>
<!-- Invis -->
<!-- TrafficRegulationOrder&#45;&gt;Invis -->
<!-- ImplementationStatusCode -->
<g id="node4" class="node">
<title>ImplementationStatusCode</title>
<g id="a_node4"><a xlink:href="../ImplementationStatusCode" xlink:title="&lt;TABLE&gt;">
<polygon fill="lightgray" stroke="none" points="16.62,-488.88 16.62,-505.12 163.38,-505.12 163.38,-488.88 16.62,-488.88"/>
<text xml:space="preserve" text-anchor="start" x="17.62" y="-492.88" font-family="Arial" font-size="12.00">ImplementationStatusCode</text>
<polygon fill="none" stroke="black" points="15.62,-487.88 15.62,-506.12 164.38,-506.12 164.38,-487.88 15.62,-487.88"/>
</a>
</g>
</g>
<!-- TrafficRegulationOrder&#45;&gt;ImplementationStatusCode -->
<g id="edge12" class="edge">
<title>TrafficRegulationOrder&#45;&gt;ImplementationStatusCode</title>
<path fill="none" stroke="black" d="M307.25,-650.01C238.73,-644.55 147.4,-632.86 120.5,-608.5 97.55,-587.72 91.23,-551.4 89.8,-526.09"/>
<polygon fill="black" stroke="black" points="93.31,-526.07 89.49,-516.18 86.31,-526.29 93.31,-526.07"/>
<text xml:space="preserve" text-anchor="middle" x="172.25" y="-578.8" font-family="Arial" font-size="11.00">implementationStatus</text>
</g>
<!-- its&#45;location_LocationReference -->
<g id="node5" class="node">
<title>its&#45;location_LocationReference</title>
<g id="a_node5"><a xlink:href="https://w3id.org/itsdata/location/v1/LocationReference" xlink:title="&lt;TABLE&gt;">
<polygon fill="lightgray" stroke="none" points="17,-403.38 17,-419.62 181,-419.62 181,-403.38 17,-403.38"/>
<text xml:space="preserve" text-anchor="start" x="18" y="-407.38" font-family="Arial" font-size="12.00">its&#45;location:LocationReference</text>
<polygon fill="none" stroke="black" points="16,-402.38 16,-420.62 182,-420.62 182,-402.38 16,-402.38"/>
</a>
</g>
</g>
<!-- TrafficRegulationOrder&#45;&gt;its&#45;location_LocationReference -->
<g id="edge14" class="edge">
<title>TrafficRegulationOrder&#45;&gt;its&#45;location_LocationReference</title>
<path fill="none" stroke="black" d="M307.34,-640.62C291.74,-635.6 276.17,-628.78 263,-619.5 238.5,-602.25 248.71,-581.45 224,-564.5 197.15,-546.09 172.99,-572.19 153,-546.5 149.32,-541.76 150.56,-538.48 153,-533 157.87,-522.08 168.13,-525.92 173,-515 179.51,-500.38 179.51,-493.61 173,-479 165.33,-461.79 150.75,-447.17 136.56,-436.06"/>
<polygon fill="black" stroke="black" points="138.7,-433.29 128.57,-430.17 134.54,-438.92 138.7,-433.29"/>
<text xml:space="preserve" text-anchor="middle" x="204" y="-536.05" font-family="Arial" font-size="11.00">implementedLocation</text>
</g>
<!-- TrafficRegulationOrder&#45;&gt;its&#45;location_LocationReference -->
<g id="edge15" class="edge">
<title>TrafficRegulationOrder&#45;&gt;its&#45;location_LocationReference</title>
<path fill="none" stroke="black" d="M370.92,-637.71C323.52,-591.2 192.37,-463.09 170,-447.5 163.33,-442.85 155.96,-438.49 148.56,-434.52"/>
<polygon fill="black" stroke="black" points="150.36,-431.51 139.87,-430.05 147.16,-437.73 150.36,-431.51"/>
<text xml:space="preserve" text-anchor="middle" x="313.7" y="-536.05" font-family="Arial" font-size="11.00">locationByOrder</text>
</g>
<!-- its&#45;time_Validity -->
<g id="node6" class="node">
<title>its&#45;time_Validity</title>
<g id="a_node6"><a xlink:href="https://w3id.org/itsdata/time/v1/Validity" xlink:title="&lt;TABLE&gt;">
<polygon fill="lightgray" stroke="none" points="99.25,-317.88 99.25,-334.12 180.75,-334.12 180.75,-317.88 99.25,-317.88"/>
<text xml:space="preserve" text-anchor="start" x="100.25" y="-321.88" font-family="Arial" font-size="12.00">its&#45;time:Validity</text>
<polygon fill="none" stroke="black" points="98.25,-316.88 98.25,-335.12 181.75,-335.12 181.75,-316.88 98.25,-316.88"/>
</a>
</g>
</g>
<!-- TrafficRegulationOrder&#45;&gt;its&#45;time_Validity -->
<g id="edge16" class="edge">
<title>TrafficRegulationOrder&#45;&gt;its&#45;time_Validity</title>
<path fill="none" stroke="black" d="M388.37,-637.84C388.01,-611.8 383.38,-561.5 355,-533 333.77,-511.69 314.85,-531.58 289.75,-515 281.25,-509.38 198.47,-402.81 159.77,-352.67"/>
<polygon fill="black" stroke="black" points="162.67,-350.7 153.79,-344.92 157.13,-354.97 162.67,-350.7"/>
<text xml:space="preserve" text-anchor="middle" x="337.38" y="-493.3" font-family="Arial" font-size="11.00">implementedValidity</text>
</g>
<!-- TrafficRegulationOrder&#45;&gt;its&#45;time_Validity -->
<g id="edge17" class="edge">
<title>TrafficRegulationOrder&#45;&gt;its&#45;time_Validity</title>
<path fill="none" stroke="black" d="M395.18,-637.62C400.56,-623.45 407,-602.51 407,-583.5 407,-583.5 407,-583.5 407,-410.5 407,-366.06 270.56,-342.49 192.75,-332.66"/>
<polygon fill="black" stroke="black" points="193.57,-329.23 183.22,-331.49 192.72,-336.18 193.57,-329.23"/>
<text xml:space="preserve" text-anchor="middle" x="443.38" y="-493.3" font-family="Arial" font-size="11.00">validityByOrder</text>
</g>
<!-- LegalBasis -->
<g id="node7" class="node">
<title>LegalBasis</title>
<g id="a_node7"><a xlink:href="../LegalBasis" xlink:title="&lt;TABLE&gt;">
<polygon fill="lightgray" stroke="none" points="111,-244.88 111,-261.12 173,-261.12 173,-244.88 111,-244.88"/>
<text xml:space="preserve" text-anchor="start" x="112" y="-248.88" font-family="Arial" font-size="12.00">LegalBasis</text>
<polygon fill="none" stroke="black" points="110,-243.88 110,-262.12 174,-262.12 174,-243.88 110,-243.88"/>
</a>
</g>
</g>
<!-- TrafficRegulationOrder&#45;&gt;LegalBasis -->
<g id="edge13" class="edge">
<title>TrafficRegulationOrder&#45;&gt;LegalBasis</title>
<path fill="none" stroke="black" d="M408.5,-637.54C442.4,-607.3 504.49,-541.36 484,-479 440.93,-347.93 266.53,-286.26 184.74,-264.11"/>
<polygon fill="black" stroke="black" points="185.86,-260.79 175.3,-261.63 184.08,-267.56 185.86,-260.79"/>
<text xml:space="preserve" text-anchor="middle" x="500.92" y="-450.55" font-family="Arial" font-size="11.00">legalBasis</text>
</g>
<!-- ReasonCode -->
<g id="node8" class="node">
<title>ReasonCode</title>
<g id="a_node8"><a xlink:href="../ReasonCode" xlink:title="&lt;TABLE&gt;">
<polygon fill="lightgray" stroke="none" points="105.38,-171.88 105.38,-188.12 178.62,-188.12 178.62,-171.88 105.38,-171.88"/>
<text xml:space="preserve" text-anchor="start" x="106.38" y="-175.88" font-family="Arial" font-size="12.00">ReasonCode</text>
<polygon fill="none" stroke="black" points="104.38,-170.88 104.38,-189.12 179.62,-189.12 179.62,-170.88 104.38,-170.88"/>
</a>
</g>
</g>
<!-- TrafficRegulationOrder&#45;&gt;ReasonCode -->
<g id="edge11" class="edge">
<title>TrafficRegulationOrder&#45;&gt;ReasonCode</title>
<path fill="none" stroke="black" d="M428.6,-637.59C442.48,-630.26 457.21,-620.56 468,-608.5 477.94,-597.39 527.76,-467.45 529,-461 530.13,-455.11 529.04,-453.5 529,-447.5 528.78,-412.94 528,-404.31 528,-369.75 528,-369.75 528,-369.75 528,-252 528,-218.09 294.57,-193.98 190.77,-184.94"/>
<polygon fill="black" stroke="black" points="191.13,-181.46 180.87,-184.09 190.53,-188.43 191.13,-181.46"/>
<text xml:space="preserve" text-anchor="middle" x="558.44" y="-407.8" font-family="Arial" font-size="11.00">reasonCode</text>
</g>
<!-- RuleMakerRole -->
<g id="node9" class="node">
<title>RuleMakerRole</title>
<g id="a_node9"><a xlink:href="../RuleMakerRole" xlink:title="&lt;TABLE&gt;">
<polygon fill="lightgray" stroke="none" points="95,-98.88 95,-115.12 181,-115.12 181,-98.88 95,-98.88"/>
<text xml:space="preserve" text-anchor="start" x="96" y="-102.88" font-family="Arial" font-size="12.00">RuleMakerRole</text>
<polygon fill="none" stroke="black" points="94,-97.88 94,-116.12 182,-116.12 182,-97.88 94,-97.88"/>
</a>
</g>
</g>
<!-- TrafficRegulationOrder&#45;&gt;RuleMakerRole -->
<g id="edge10" class="edge">
<title>TrafficRegulationOrder&#45;&gt;RuleMakerRole</title>
<path fill="none" stroke="black" d="M468.67,-644.61C533.92,-634.28 615,-615.09 615,-583.5 615,-583.5 615,-583.5 615,-179 615,-136.73 318.17,-116.97 192.82,-110.51"/>
<polygon fill="black" stroke="black" points="193.27,-107.02 183.11,-110.02 192.92,-114.02 193.27,-107.02"/>
<text xml:space="preserve" text-anchor="middle" x="652.88" y="-365.05" font-family="Arial" font-size="11.00">issuingAuthority</text>
</g>
<!-- TrafficRegulation -->
<g id="node10" class="node">
<title>TrafficRegulation</title>
<g id="a_node10"><a xlink:href="../TrafficRegulation" xlink:title="&lt;TABLE&gt;">
<polygon fill="lightgray" stroke="none" points="88.62,-25.88 88.62,-42.12 181.38,-42.12 181.38,-25.88 88.62,-25.88"/>
<text xml:space="preserve" text-anchor="start" x="89.62" y="-29.88" font-family="Arial" font-size="12.00">TrafficRegulation</text>
<polygon fill="none" stroke="black" points="87.62,-24.88 87.62,-43.12 182.38,-43.12 182.38,-24.88 87.62,-24.88"/>
</a>
</g>
</g>
<!-- TrafficRegulationOrder&#45;&gt;TrafficRegulation -->
<g id="edge18" class="edge">
<title>TrafficRegulationOrder&#45;&gt;TrafficRegulation</title>
<path fill="none" stroke="black" d="M468.66,-652.28C562.87,-647.43 706,-632.08 706,-583.5 706,-583.5 706,-583.5 706,-106 706,-54.76 339.16,-40.04 193.54,-36.22"/>
<polygon fill="black" stroke="black" points="193.81,-32.73 183.73,-35.98 193.63,-39.73 193.81,-32.73"/>
<text xml:space="preserve" text-anchor="middle" x="766.38" y="-322.3" font-family="Arial" font-size="11.00">memberTrafficRegulation</text>
</g>
<!-- Invis&#45;&gt;ImplementationStatusCode -->
<!-- ImplementationStatusCode&#45;&gt;its&#45;location_LocationReference -->
<!-- its&#45;location_LocationReference&#45;&gt;its&#45;time_Validity -->
<!-- its&#45;time_Validity&#45;&gt;LegalBasis -->
<!-- LegalBasis&#45;&gt;ReasonCode -->
<!-- ReasonCode&#45;&gt;RuleMakerRole -->
<!-- RuleMakerRole&#45;&gt;TrafficRegulation -->
</g>
</svg>
