<?xml version="1.0" encoding="UTF-8" standalone="no"?>
<!DOCTYPE svg PUBLIC "-//W3C//DTD SVG 1.1//EN"
 "http://www.w3.org/Graphics/SVG/1.1/DTD/svg11.dtd">
<!-- Generated by graphviz version 14.0.2 (20251019.1705)
 -->
<!-- Pages: 1 -->
<svg width="774pt" height="550pt"
 viewBox="0.00 0.00 774.00 550.00" xmlns="http://www.w3.org/2000/svg" xmlns:xlink="http://www.w3.org/1999/xlink">
<g id="graph0" class="graph" transform="scale(1 1) rotate(0) translate(4 546)">
<polygon fill="white" stroke="none" points="-4,4 -4,-546 769.62,-546 769.62,4 -4,4"/>
<g id="clust2" class="cluster">
<title>cluster_associated</title>
</g>
<!-- TrafficRegulationOrder -->
<g id="node1" class="node">
<title>TrafficRegulationOrder</title>
<g id="a_node1"><a xlink:href="../TrafficRegulationOrder" xlink:title="&lt;TABLE&gt;">
<polygon fill="lightgray" stroke="none" points="352.62,-515.88 352.62,-532.12 475.38,-532.12 475.38,-515.88 352.62,-515.88"/>
<text xml:space="preserve" text-anchor="start" x="353.62" y="-519.73" font-family="Arial" font-size="12.00">TrafficRegulationOrder</text>
<polygon fill="none" stroke="black" points="351.62,-514.88 351.62,-533.12 476.38,-533.12 476.38,-514.88 351.62,-514.88"/>
</a>
</g>
</g>
<!-- Invis -->
<!-- TrafficRegulationOrder&#45;&gt;Invis -->
<!-- cdm2_Code -->
<g id="node3" class="node">
<title>cdm2_Code</title>
<g id="a_node3"><a xlink:href="https://w3id.org/citydata/part2/v1/Code" xlink:title="&lt;TABLE&gt;">
<polygon fill="lightgray" stroke="none" points="72.25,-343.88 72.25,-360.12 135.75,-360.12 135.75,-343.88 72.25,-343.88"/>
<text xml:space="preserve" text-anchor="start" x="73.25" y="-347.73" font-family="Arial" font-size="12.00">cdm2:Code</text>
<polygon fill="none" stroke="black" points="71.25,-342.88 71.25,-361.12 136.75,-361.12 136.75,-342.88 71.25,-342.88"/>
</a>
</g>
</g>
<!-- TrafficRegulationOrder&#45;&gt;cdm2_Code -->
<g id="edge9" class="edge">
<title>TrafficRegulationOrder&#45;&gt;cdm2_Code</title>
<path fill="none" stroke="black" d="M351.76,-521.77C275.05,-518.86 151.01,-509.17 119.75,-477 95.27,-451.81 95.45,-408.89 98.89,-380.74"/>
<polygon fill="black" stroke="black" points="102.31,-381.58 100.29,-371.18 95.38,-380.57 102.31,-381.58"/>
<text xml:space="preserve" text-anchor="middle" x="152.38" y="-454.05" font-family="Arial" font-size="11.00"> reasonCode </text>
<text xml:space="preserve" text-anchor="middle" x="152.38" y="-440.55" font-family="Arial" font-size="11.00"> «only» &#160;</text>
</g>
<!-- TrafficRegulationOrder&#45;&gt;cdm2_Code -->
<g id="edge10" class="edge">
<title>TrafficRegulationOrder&#45;&gt;cdm2_Code</title>
<path fill="none" stroke="black" d="M352.04,-518.3C312.27,-512.95 260.89,-501.5 221.5,-477 199.92,-463.58 202.17,-451.73 185,-433 167.37,-413.77 146.39,-393.1 130.19,-377.59"/>
<polygon fill="black" stroke="black" points="132.96,-375.39 123.3,-371.03 128.13,-380.46 132.96,-375.39"/>
<text xml:space="preserve" text-anchor="middle" x="276.25" y="-454.05" font-family="Arial" font-size="11.00"> implementationStatus </text>
<text xml:space="preserve" text-anchor="middle" x="276.25" y="-440.55" font-family="Arial" font-size="11.00"> «exactly 1, only» &#160;</text>
</g>
<!-- its&#45;location_LocationReference -->
<g id="node4" class="node">
<title>its&#45;location_LocationReference</title>
<g id="a_node4"><a xlink:href="https://w3id.org/itsdata/location/v1/LocationReference" xlink:title="&lt;TABLE&gt;">
<polygon fill="lightgray" stroke="none" points="17,-244.88 17,-261.12 181,-261.12 181,-244.88 17,-244.88"/>
<text xml:space="preserve" text-anchor="start" x="18" y="-248.72" font-family="Arial" font-size="12.00">its&#45;location:LocationReference</text>
<polygon fill="none" stroke="black" points="16,-243.88 16,-262.12 182,-262.12 182,-243.88 16,-243.88"/>
</a>
</g>
</g>
<!-- TrafficRegulationOrder&#45;&gt;its&#45;location_LocationReference -->
<g id="edge12" class="edge">
<title>TrafficRegulationOrder&#45;&gt;its&#45;location_LocationReference</title>
<path fill="none" stroke="black" d="M389.49,-506.1C382.5,-500.72 375.12,-494.47 369,-488 348.59,-466.41 356.15,-448.82 331,-433 287.58,-405.69 260.8,-441.7 217,-415 189.65,-398.33 140.28,-321.8 114.95,-280.54"/>
<polygon fill="black" stroke="black" points="118.03,-278.88 109.84,-272.16 112.05,-282.52 118.03,-278.88"/>
<text xml:space="preserve" text-anchor="middle" x="271" y="-404.55" font-family="Arial" font-size="11.00"> implementedLocation </text>
<text xml:space="preserve" text-anchor="middle" x="271" y="-391.05" font-family="Arial" font-size="11.00"> «max 1» &#160;</text>
</g>
<!-- TrafficRegulationOrder&#45;&gt;its&#45;location_LocationReference -->
<g id="edge13" class="edge">
<title>TrafficRegulationOrder&#45;&gt;its&#45;location_LocationReference</title>
<path fill="none" stroke="black" d="M404.63,-506.04C394.3,-487.65 376.89,-457.65 360,-433 352.84,-422.55 334.5,-396.38 325,-388 270.01,-339.53 195,-299.11 146.77,-275.73"/>
<polygon fill="black" stroke="black" points="148.5,-272.68 137.97,-271.52 145.48,-278.99 148.5,-272.68"/>
<text xml:space="preserve" text-anchor="middle" x="388.65" y="-404.55" font-family="Arial" font-size="11.00"> locationByOrder </text>
<text xml:space="preserve" text-anchor="middle" x="388.65" y="-391.05" font-family="Arial" font-size="11.00"> «max 1» &#160;</text>
</g>
<!-- its&#45;time_Validity -->
<g id="node5" class="node">
<title>its&#45;time_Validity</title>
<g id="a_node5"><a xlink:href="https://w3id.org/itsdata/time/v1/Validity" xlink:title="&lt;TABLE&gt;">
<polygon fill="lightgray" stroke="none" points="99.25,-171.88 99.25,-188.12 180.75,-188.12 180.75,-171.88 99.25,-171.88"/>
<text xml:space="preserve" text-anchor="start" x="100.25" y="-175.72" font-family="Arial" font-size="12.00">its&#45;time:Validity</text>
<polygon fill="none" stroke="black" points="98.25,-170.88 98.25,-189.12 181.75,-189.12 181.75,-170.88 98.25,-170.88"/>
</a>
</g>
</g>
<!-- TrafficRegulationOrder&#45;&gt;its&#45;time_Validity -->
<g id="edge14" class="edge">
<title>TrafficRegulationOrder&#45;&gt;its&#45;time_Validity</title>
<path fill="none" stroke="black" d="M423.17,-506.01C436.79,-478.22 458,-422.67 431,-388 410.93,-362.23 388.74,-385.05 359.75,-370 316.67,-347.63 213.73,-251.65 165.61,-205.7"/>
<polygon fill="black" stroke="black" points="168.29,-203.43 158.65,-199.04 163.45,-208.48 168.29,-203.43"/>
<text xml:space="preserve" text-anchor="middle" x="410.38" y="-355.05" font-family="Arial" font-size="11.00"> implementedValidity </text>
<text xml:space="preserve" text-anchor="middle" x="410.38" y="-341.55" font-family="Arial" font-size="11.00"> «max 1» &#160;</text>
</g>
<!-- TrafficRegulationOrder&#45;&gt;its&#45;time_Validity -->
<g id="edge15" class="edge">
<title>TrafficRegulationOrder&#45;&gt;its&#45;time_Validity</title>
<path fill="none" stroke="black" d="M445.27,-506.23C463.53,-493.95 483,-475.38 483,-452 483,-452 483,-452 483,-252 483,-193.49 289.2,-182.83 192.95,-181.14"/>
<polygon fill="black" stroke="black" points="193.28,-177.64 183.23,-180.99 193.18,-184.64 193.28,-177.64"/>
<text xml:space="preserve" text-anchor="middle" x="522.38" y="-355.05" font-family="Arial" font-size="11.00"> validityByOrder </text>
<text xml:space="preserve" text-anchor="middle" x="522.38" y="-341.55" font-family="Arial" font-size="11.00"> «max 1» &#160;</text>
</g>
<!-- LegalBasis -->
<g id="node6" class="node">
<title>LegalBasis</title>
<g id="a_node6"><a xlink:href="../LegalBasis" xlink:title="&lt;TABLE&gt;">
<polygon fill="lightgray" stroke="none" points="109,-98.88 109,-115.12 171,-115.12 171,-98.88 109,-98.88"/>
<text xml:space="preserve" text-anchor="start" x="110" y="-102.72" font-family="Arial" font-size="12.00">LegalBasis</text>
<polygon fill="none" stroke="black" points="108,-97.88 108,-116.12 172,-116.12 172,-97.88 108,-97.88"/>
</a>
</g>
</g>
<!-- TrafficRegulationOrder&#45;&gt;LegalBasis -->
<g id="edge11" class="edge">
<title>TrafficRegulationOrder&#45;&gt;LegalBasis</title>
<path fill="none" stroke="black" d="M450.48,-506.13C460.67,-500.84 471.55,-494.63 481,-488 545,-443.11 589.43,-408.59 566,-334 515.49,-173.2 280.98,-125.54 183.1,-112.52"/>
<polygon fill="black" stroke="black" points="183.72,-109.07 173.36,-111.29 182.84,-116.02 183.72,-109.07"/>
<text xml:space="preserve" text-anchor="middle" x="585.98" y="-305.55" font-family="Arial" font-size="11.00"> legalBasis </text>
<text xml:space="preserve" text-anchor="middle" x="585.98" y="-292.05" font-family="Arial" font-size="11.00"> «max 1» &#160;</text>
</g>
<!-- RuleMakerRole -->
<g id="node7" class="node">
<title>RuleMakerRole</title>
<g id="a_node7"><a xlink:href="../RuleMakerRole" xlink:title="&lt;TABLE&gt;">
<polygon fill="lightgray" stroke="none" points="95,-25.88 95,-42.12 181,-42.12 181,-25.88 95,-25.88"/>
<text xml:space="preserve" text-anchor="start" x="96" y="-29.73" font-family="Arial" font-size="12.00">RuleMakerRole</text>
<polygon fill="none" stroke="black" points="94,-24.88 94,-43.12 182,-43.12 182,-24.88 94,-24.88"/>
</a>
</g>
</g>
<!-- TrafficRegulationOrder&#45;&gt;RuleMakerRole -->
<g id="edge8" class="edge">
<title>TrafficRegulationOrder&#45;&gt;RuleMakerRole</title>
<path fill="none" stroke="black" d="M476.24,-516.13C544.36,-506.83 644,-487.21 644,-452 644,-452 644,-452 644,-106 644,-60.85 323.93,-42.61 192.91,-37.03"/>
<polygon fill="black" stroke="black" points="193.23,-33.54 183.09,-36.62 192.94,-40.53 193.23,-33.54"/>
<text xml:space="preserve" text-anchor="middle" x="688.25" y="-256.05" font-family="Arial" font-size="11.00"> issuingAuthority </text>
<text xml:space="preserve" text-anchor="middle" x="688.25" y="-242.55" font-family="Arial" font-size="11.00"> «exactly 1, only» &#160;</text>
</g>
<!-- RegulationThing -->
<g id="node8" class="node">
<title>RegulationThing</title>
<g id="a_node8"><a xlink:href="../RegulationThing" xlink:title="&lt;TABLE&gt;">
<polygon fill="lightgray" stroke="none" points="673.38,-442.88 673.38,-459.12 764.62,-459.12 764.62,-442.88 673.38,-442.88"/>
<text xml:space="preserve" text-anchor="start" x="674.38" y="-446.73" font-family="Arial" font-size="12.00">RegulationThing</text>
<polygon fill="none" stroke="black" points="672.38,-441.88 672.38,-460.12 765.62,-460.12 765.62,-441.88 672.38,-441.88"/>
</a>
</g>
</g>
<!-- TrafficRegulationOrder&#45;&gt;RegulationThing -->
<g id="edge1" class="edge">
<title>TrafficRegulationOrder&#45;&gt;RegulationThing</title>
<path fill="none" stroke="black" d="M476.24,-520.74C526.52,-517.35 598.45,-508.92 658,-488 667.42,-484.69 677.01,-479.86 685.7,-474.8"/>
<polygon fill="none" stroke="black" points="687.44,-477.84 694.14,-469.63 683.79,-471.87 687.44,-477.84"/>
</g>
<!-- Invis&#45;&gt;cdm2_Code -->
<!-- cdm2_Code&#45;&gt;its&#45;location_LocationReference -->
<!-- its&#45;location_LocationReference&#45;&gt;its&#45;time_Validity -->
<!-- its&#45;time_Validity&#45;&gt;LegalBasis -->
<!-- LegalBasis&#45;&gt;RuleMakerRole -->
</g>
</svg>
