<?xml version="1.0" encoding="UTF-8" standalone="no"?>
<!DOCTYPE svg PUBLIC "-//W3C//DTD SVG 1.1//EN"
 "http://www.w3.org/Graphics/SVG/1.1/DTD/svg11.dtd">
<!-- Generated by graphviz version 13.1.0 (20250701.0955)
 -->
<!-- Pages: 1 -->
<svg width="739pt" height="465pt"
 viewBox="0.00 0.00 739.00 465.00" xmlns="http://www.w3.org/2000/svg" xmlns:xlink="http://www.w3.org/1999/xlink">
<g id="graph0" class="graph" transform="scale(1 1) rotate(0) translate(4 460.75)">
<polygon fill="white" stroke="none" points="-4,4 -4,-460.75 735,-460.75 735,4 -4,4"/>
<g id="clust2" class="cluster">
<title>cluster_associated</title>
</g>
<!-- TroThing -->
<g id="node1" class="node">
<title>TroThing</title>
<g id="a_node1"><a xlink:href="../classes/TroThing.md" xlink:title="&lt;TABLE&gt;">
<polygon fill="lightgray" stroke="none" points="264,-430.62 264,-446.88 314,-446.88 314,-430.62 264,-430.62"/>
<text xml:space="preserve" text-anchor="start" x="265" y="-434.48" font-family="Arial" font-size="12.00">TroThing</text>
<polygon fill="none" stroke="black" points="263,-429.62 263,-447.88 315,-447.88 315,-429.62 263,-429.62"/>
</a>
</g>
</g>
<!-- TrafficRegulationOrder -->
<g id="node2" class="node">
<title>TrafficRegulationOrder</title>
<g id="a_node2"><a xlink:href="../classes/TrafficRegulationOrder.md" xlink:title="&lt;TABLE&gt;">
<polygon fill="lightgray" stroke="none" points="167.25,-366.5 167.25,-382.75 410.75,-382.75 410.75,-366.5 167.25,-366.5"/>
<text xml:space="preserve" text-anchor="start" x="228.62" y="-370.35" font-family="Arial" font-size="12.00">TrafficRegulationOrder</text>
<text xml:space="preserve" text-anchor="start" x="168.25" y="-354.1" font-family="Arial" font-size="12.00">genProp:hasDescription: string «max 1, only»</text>
<text xml:space="preserve" text-anchor="start" x="168.25" y="-337.85" font-family="Arial" font-size="12.00">genProp:hasIdentifier: string «exactly 1, only»</text>
<polygon fill="none" stroke="black" points="166.25,-333 166.25,-383.75 411.75,-383.75 411.75,-333 166.25,-333"/>
</a>
</g>
</g>
<!-- TrafficRegulationOrder&#45;&gt;TroThing -->
<g id="edge1" class="edge">
<title>TrafficRegulationOrder&#45;&gt;TroThing</title>
<path fill="none" stroke="black" d="M289,-383.71C289,-391.97 289,-401.27 289,-409.79"/>
<polygon fill="none" stroke="black" points="285.5,-409.62 289,-419.62 292.5,-409.62 285.5,-409.62"/>
</g>
<!-- Invis -->
<!-- TrafficRegulationOrder&#45;&gt;Invis -->
<!-- LegalBasis -->
<g id="node4" class="node">
<title>LegalBasis</title>
<g id="a_node4"><a xlink:href="../classes/LegalBasis" xlink:title="LegalBasis">
<polygon fill="lightgray" stroke="none" points="17,-257.38 17,-273.62 79,-273.62 79,-257.38 17,-257.38"/>
<text xml:space="preserve" text-anchor="start" x="18" y="-261.23" font-family="Arial" font-size="12.00">LegalBasis</text>
<polygon fill="none" stroke="black" points="16,-256.38 16,-274.62 80,-274.62 80,-256.38 16,-256.38"/>
</a>
</g>
</g>
<!-- TrafficRegulationOrder&#45;&gt;LegalBasis -->
<g id="edge8" class="edge">
<title>TrafficRegulationOrder&#45;&gt;LegalBasis</title>
<path fill="none" stroke="black" d="M166.37,-339.03C109.65,-329.96 53.77,-319.93 49.5,-315 44.65,-309.4 42.96,-301.92 42.82,-294.52"/>
<polygon fill="black" stroke="black" points="46.3,-294.97 43.55,-284.74 39.32,-294.45 46.3,-294.97"/>
<text xml:space="preserve" text-anchor="middle" x="108.75" y="-304.55" font-family="Arial" font-size="11.00">«max 1, only» legalBasis</text>
</g>
<!-- TrafficRegulation -->
<g id="node5" class="node">
<title>TrafficRegulation</title>
<g id="a_node5"><a xlink:href="../classes/TrafficRegulation" xlink:title="TrafficRegulation">
<polygon fill="lightgray" stroke="none" points="16.62,-171.88 16.62,-188.12 109.38,-188.12 109.38,-171.88 16.62,-171.88"/>
<text xml:space="preserve" text-anchor="start" x="17.62" y="-175.72" font-family="Arial" font-size="12.00">TrafficRegulation</text>
<polygon fill="none" stroke="black" points="15.62,-170.88 15.62,-189.12 110.38,-189.12 110.38,-170.88 15.62,-170.88"/>
</a>
</g>
</g>
<!-- TrafficRegulationOrder&#45;&gt;TrafficRegulation -->
<g id="edge11" class="edge">
<title>TrafficRegulationOrder&#45;&gt;TrafficRegulation</title>
<path fill="none" stroke="black" d="M236.21,-333.01C190.45,-311.86 131.37,-284.47 130.25,-283.5 106.04,-262.57 87.06,-230.85 75.53,-208.25"/>
<polygon fill="black" stroke="black" points="78.7,-206.76 71.14,-199.33 72.42,-209.85 78.7,-206.76"/>
<text xml:space="preserve" text-anchor="middle" x="202.62" y="-261.8" font-family="Arial" font-size="11.00">«min 1, only» trafficRegulation</text>
</g>
<!-- Validity -->
<g id="node6" class="node">
<title>Validity</title>
<g id="a_node6"><a xlink:href="../classes/Validity" xlink:title="Validity">
<polygon fill="lightgray" stroke="none" points="61.88,-98.88 61.88,-115.12 102.12,-115.12 102.12,-98.88 61.88,-98.88"/>
<text xml:space="preserve" text-anchor="start" x="62.88" y="-102.72" font-family="Arial" font-size="12.00">Validity</text>
<polygon fill="none" stroke="black" points="60.88,-97.88 60.88,-116.12 103.12,-116.12 103.12,-97.88 60.88,-97.88"/>
</a>
</g>
</g>
<!-- TrafficRegulationOrder&#45;&gt;Validity -->
<g id="edge7" class="edge">
<title>TrafficRegulationOrder&#45;&gt;Validity</title>
<path fill="none" stroke="black" d="M293.53,-333.23C296.69,-308.24 297.04,-269.78 275,-247.5 233.98,-206.03 190.71,-265.74 145,-229.5 119.81,-209.53 133.96,-190.45 119,-162 114,-152.5 107.66,-142.66 101.64,-134.02"/>
<polygon fill="black" stroke="black" points="104.62,-132.18 95.95,-126.09 98.94,-136.26 104.62,-132.18"/>
<text xml:space="preserve" text-anchor="middle" x="227.5" y="-219.05" font-family="Arial" font-size="11.00">«max 1, only» implementedValidity</text>
</g>
<!-- TrafficRegulationOrder&#45;&gt;Validity -->
<g id="edge12" class="edge">
<title>TrafficRegulationOrder&#45;&gt;Validity</title>
<path fill="none" stroke="black" d="M301.79,-333.09C315.6,-303.19 332.76,-251.96 310,-216 268.08,-149.76 173.35,-123.35 120.13,-113.46"/>
<polygon fill="black" stroke="black" points="120.75,-110.02 110.29,-111.75 119.55,-116.91 120.75,-110.02"/>
<text xml:space="preserve" text-anchor="middle" x="387.58" y="-219.05" font-family="Arial" font-size="11.00">«max 1, only» validityByOrder</text>
</g>
<!-- code_Code -->
<g id="node7" class="node">
<title>code_Code</title>
<polygon fill="lightgray" stroke="none" points="48.75,-25.88 48.75,-42.12 109.25,-42.12 109.25,-25.88 48.75,-25.88"/>
<text xml:space="preserve" text-anchor="start" x="49.75" y="-29.73" font-family="Arial" font-size="12.00">code:Code</text>
<polygon fill="none" stroke="black" points="47.75,-24.88 47.75,-43.12 110.25,-43.12 110.25,-24.88 47.75,-24.88"/>
</g>
<!-- TrafficRegulationOrder&#45;&gt;code_Code -->
<g id="edge9" class="edge">
<title>TrafficRegulationOrder&#45;&gt;code_Code</title>
<path fill="none" stroke="black" d="M411.71,-343.19C453.56,-330.91 490,-308.24 490,-266.5 490,-266.5 490,-266.5 490,-106 490,-68.92 226.82,-45.72 121.66,-37.93"/>
<polygon fill="black" stroke="black" points="121.97,-34.44 111.74,-37.21 121.46,-41.42 121.97,-34.44"/>
<text xml:space="preserve" text-anchor="middle" x="536.88" y="-176.3" font-family="Arial" font-size="11.00">«only» reasonCode</text>
</g>
<!-- TrafficRegulationOrder&#45;&gt;code_Code -->
<g id="edge10" class="edge">
<title>TrafficRegulationOrder&#45;&gt;code_Code</title>
<path fill="none" stroke="black" d="M411.31,-346.64C505.6,-334.87 620,-311.34 620,-266.5 620,-266.5 620,-266.5 620,-106 620,-55.76 248.54,-40.03 121.22,-36.11"/>
<polygon fill="black" stroke="black" points="121.64,-32.63 111.54,-35.83 121.43,-39.62 121.64,-32.63"/>
<text xml:space="preserve" text-anchor="middle" x="675.5" y="-176.3" font-family="Arial" font-size="11.00">«exactly 1, only» status</text>
</g>
<!-- Invis&#45;&gt;LegalBasis -->
<!-- LegalBasis&#45;&gt;TrafficRegulation -->
<!-- TrafficRegulation&#45;&gt;Validity -->
<!-- Validity&#45;&gt;code_Code -->
</g>
</svg>
