<?xml version="1.0" encoding="UTF-8" standalone="no"?>
<!DOCTYPE svg PUBLIC "-//W3C//DTD SVG 1.1//EN"
 "http://www.w3.org/Graphics/SVG/1.1/DTD/svg11.dtd">
<!-- Generated by graphviz version 13.1.0 (20250701.0955)
 -->
<!-- Pages: 1 -->
<svg width="1067pt" height="623pt"
 viewBox="0.00 0.00 1067.00 623.00" xmlns="http://www.w3.org/2000/svg" xmlns:xlink="http://www.w3.org/1999/xlink">
<g id="graph0" class="graph" transform="scale(1 1) rotate(0) translate(4 619.25)">
<polygon fill="white" stroke="none" points="-4,4 -4,-619.25 1062.5,-619.25 1062.5,4 -4,4"/>
<g id="clust2" class="cluster">
<title>cluster_associated</title>
</g>
<!-- TroThing -->
<g id="node1" class="node">
<title>TroThing</title>
<g id="a_node1"><a xlink:href="../classes/TroThing.md" xlink:title="&lt;TABLE&gt;">
<polygon fill="lightgray" stroke="none" points="337,-589.12 337,-605.38 387,-605.38 387,-589.12 337,-589.12"/>
<text xml:space="preserve" text-anchor="start" x="338" y="-592.98" font-family="Arial" font-size="12.00">TroThing</text>
<polygon fill="none" stroke="black" points="336,-588.12 336,-606.38 388,-606.38 388,-588.12 336,-588.12"/>
</a>
</g>
</g>
<!-- TrafficRegulationOrder -->
<g id="node2" class="node">
<title>TrafficRegulationOrder</title>
<g id="a_node2"><a xlink:href="../classes/TrafficRegulationOrder.md" xlink:title="&lt;TABLE&gt;">
<polygon fill="lightgray" stroke="none" points="238.75,-525 238.75,-541.25 485.25,-541.25 485.25,-525 238.75,-525"/>
<text xml:space="preserve" text-anchor="start" x="301.62" y="-528.85" font-family="Arial" font-size="12.00">TrafficRegulationOrder</text>
<text xml:space="preserve" text-anchor="start" x="239.75" y="-512.6" font-family="Arial" font-size="12.00">genProp::hasDescription: string «max 1, only»</text>
<text xml:space="preserve" text-anchor="start" x="239.75" y="-496.35" font-family="Arial" font-size="12.00">genProp::hasIdentifier: string «exactly 1, only»</text>
<polygon fill="none" stroke="black" points="237.75,-491.5 237.75,-542.25 486.25,-542.25 486.25,-491.5 237.75,-491.5"/>
</a>
</g>
</g>
<!-- TrafficRegulationOrder&#45;&gt;TroThing -->
<g id="edge1" class="edge">
<title>TrafficRegulationOrder&#45;&gt;TroThing</title>
<path fill="none" stroke="black" d="M362,-542.21C362,-550.47 362,-559.77 362,-568.29"/>
<polygon fill="none" stroke="black" points="358.5,-568.12 362,-578.12 365.5,-568.12 358.5,-568.12"/>
</g>
<!-- Invis -->
<!-- TrafficRegulationOrder&#45;&gt;Invis -->
<!-- LegalBasis -->
<g id="node4" class="node">
<title>LegalBasis</title>
<g id="a_node4"><a xlink:href="../classes/LegalBasis" xlink:title="LegalBasis">
<polygon fill="lightgray" stroke="none" points="17,-415.88 17,-432.12 79,-432.12 79,-415.88 17,-415.88"/>
<text xml:space="preserve" text-anchor="start" x="18" y="-419.73" font-family="Arial" font-size="12.00">LegalBasis</text>
<polygon fill="none" stroke="black" points="16,-414.88 16,-433.12 80,-433.12 80,-414.88 16,-414.88"/>
</a>
</g>
</g>
<!-- TrafficRegulationOrder&#45;&gt;LegalBasis -->
<g id="edge11" class="edge">
<title>TrafficRegulationOrder&#45;&gt;LegalBasis</title>
<path fill="none" stroke="black" d="M238.03,-497.09C224.53,-495.15 210.98,-493.25 198,-491.5 165.06,-487.06 71.93,-498.04 49.5,-473.5 44.5,-468.03 42.76,-460.6 42.63,-453.19"/>
<polygon fill="black" stroke="black" points="46.11,-453.62 43.39,-443.38 39.13,-453.08 46.11,-453.62"/>
<text xml:space="preserve" text-anchor="middle" x="110.25" y="-463.05" font-family="Arial" font-size="11.00">legalBasis «max 1, only» </text>
</g>
<!-- RuleMaker -->
<g id="node5" class="node">
<title>RuleMaker</title>
<g id="a_node5"><a xlink:href="../classes/RuleMaker" xlink:title="RuleMaker">
<polygon fill="lightgray" stroke="none" points="85.75,-330.38 85.75,-346.62 146.25,-346.62 146.25,-330.38 85.75,-330.38"/>
<text xml:space="preserve" text-anchor="start" x="86.75" y="-334.23" font-family="Arial" font-size="12.00">RuleMaker</text>
<polygon fill="none" stroke="black" points="84.75,-329.38 84.75,-347.62 147.25,-347.62 147.25,-329.38 84.75,-329.38"/>
</a>
</g>
</g>
<!-- TrafficRegulationOrder&#45;&gt;RuleMaker -->
<g id="edge10" class="edge">
<title>TrafficRegulationOrder&#45;&gt;RuleMaker</title>
<path fill="none" stroke="black" d="M278.46,-491.59C213.97,-472.48 134.86,-448.09 129.75,-442 112.53,-421.48 110.71,-390.07 112.19,-367.42"/>
<polygon fill="black" stroke="black" points="115.66,-367.97 113.1,-357.69 108.69,-367.32 115.66,-367.97"/>
<text xml:space="preserve" text-anchor="middle" x="210.38" y="-420.3" font-family="Arial" font-size="11.00">issuingAuthority «exactly 1, only» </text>
</g>
<!-- TrafficRegulation -->
<g id="node6" class="node">
<title>TrafficRegulation</title>
<g id="a_node6"><a xlink:href="../classes/TrafficRegulation" xlink:title="TrafficRegulation">
<polygon fill="lightgray" stroke="none" points="92.62,-244.88 92.62,-261.12 185.38,-261.12 185.38,-244.88 92.62,-244.88"/>
<text xml:space="preserve" text-anchor="start" x="93.62" y="-248.72" font-family="Arial" font-size="12.00">TrafficRegulation</text>
<polygon fill="none" stroke="black" points="91.62,-243.88 91.62,-262.12 186.38,-262.12 186.38,-243.88 91.62,-243.88"/>
</a>
</g>
</g>
<!-- TrafficRegulationOrder&#45;&gt;TrafficRegulation -->
<g id="edge14" class="edge">
<title>TrafficRegulationOrder&#45;&gt;TrafficRegulation</title>
<path fill="none" stroke="black" d="M342.17,-491.69C337.67,-485.85 333.03,-479.55 329,-473.5 309.93,-444.84 319.21,-425.73 291,-406 250.49,-377.67 218.61,-420.37 181.25,-388 173.06,-380.9 155.87,-319.05 146.13,-281.91"/>
<polygon fill="black" stroke="black" points="149.53,-281.08 143.63,-272.28 142.76,-282.84 149.53,-281.08"/>
<text xml:space="preserve" text-anchor="middle" x="255.12" y="-377.55" font-family="Arial" font-size="11.00">trafficRegulation «min 1, only» </text>
</g>
<!-- code_Code -->
<g id="node7" class="node">
<title>code_Code</title>
<polygon fill="lightgray" stroke="none" points="118.25,-171.88 118.25,-188.12 181.75,-188.12 181.75,-171.88 118.25,-171.88"/>
<text xml:space="preserve" text-anchor="start" x="119.25" y="-175.72" font-family="Arial" font-size="12.00">code::Code</text>
<polygon fill="none" stroke="black" points="117.25,-170.88 117.25,-189.12 182.75,-189.12 182.75,-170.88 117.25,-170.88"/>
</g>
<!-- TrafficRegulationOrder&#45;&gt;code_Code -->
<g id="edge12" class="edge">
<title>TrafficRegulationOrder&#45;&gt;code_Code</title>
<path fill="none" stroke="black" d="M363.68,-491.6C364.44,-460.01 360.64,-405.23 329,-374.5 300.13,-346.46 270.85,-382.65 240.25,-356.5 196.45,-319.06 223.91,-284.84 195,-235 189.18,-224.97 181.49,-214.95 174.11,-206.31"/>
<polygon fill="black" stroke="black" points="176.88,-204.16 167.63,-199 171.64,-208.8 176.88,-204.16"/>
<text xml:space="preserve" text-anchor="middle" x="288.62" y="-334.8" font-family="Arial" font-size="11.00">reasonCode «only» </text>
</g>
<!-- TrafficRegulationOrder&#45;&gt;code_Code -->
<g id="edge13" class="edge">
<title>TrafficRegulationOrder&#45;&gt;code_Code</title>
<path fill="none" stroke="black" d="M365.35,-491.72C366.03,-485.77 366.65,-479.42 367,-473.5 371.07,-404.32 378.03,-376.34 337,-320.5 298.45,-268.03 234.58,-226.45 192.39,-202.78"/>
<polygon fill="black" stroke="black" points="194.2,-199.77 183.75,-198.02 190.82,-205.91 194.2,-199.77"/>
<text xml:space="preserve" text-anchor="middle" x="415.65" y="-334.8" font-family="Arial" font-size="11.00">status «exactly 1, only» </text>
</g>
<!-- its&#45;location_LocationReference -->
<g id="node8" class="node">
<title>its&#45;location_LocationReference</title>
<polygon fill="lightgray" stroke="none" points="17.5,-98.88 17.5,-115.12 184.5,-115.12 184.5,-98.88 17.5,-98.88"/>
<text xml:space="preserve" text-anchor="start" x="18.5" y="-102.72" font-family="Arial" font-size="12.00">its&#45;location::LocationReference</text>
<polygon fill="none" stroke="black" points="16.5,-97.88 16.5,-116.12 185.5,-116.12 185.5,-97.88 16.5,-97.88"/>
</g>
<!-- TrafficRegulationOrder&#45;&gt;its&#45;location_LocationReference -->
<g id="edge16" class="edge">
<title>TrafficRegulationOrder&#45;&gt;its&#45;location_LocationReference</title>
<path fill="none" stroke="black" d="M394.69,-491.79C443.03,-453.32 523.11,-376.6 477,-320.5 450.75,-288.57 423.64,-319.02 385.75,-302.5 288.24,-259.99 280.89,-220.43 192,-162 175.47,-151.14 156.75,-139.86 140.61,-130.44"/>
<polygon fill="black" stroke="black" points="142.65,-127.58 132.24,-125.59 139.14,-133.63 142.65,-127.58"/>
<text xml:space="preserve" text-anchor="middle" x="454.38" y="-292.05" font-family="Arial" font-size="11.00">locationByOrder «exactly 1» </text>
</g>
<!-- TrafficRegulationOrder&#45;&gt;its&#45;location_LocationReference -->
<g id="edge17" class="edge">
<title>TrafficRegulationOrder&#45;&gt;its&#45;location_LocationReference</title>
<path fill="none" stroke="black" d="M486.09,-494.07C518.73,-480.79 545,-459.41 545,-425 545,-425 545,-425 545,-179 545,-143.99 326.96,-123.18 196.48,-113.86"/>
<polygon fill="black" stroke="black" points="197.03,-110.39 186.81,-113.18 196.54,-117.38 197.03,-110.39"/>
<text xml:space="preserve" text-anchor="middle" x="619.62" y="-292.05" font-family="Arial" font-size="11.00">implementedLocation «max 1» </text>
</g>
<!-- its&#45;time_Validity -->
<g id="node9" class="node">
<title>its&#45;time_Validity</title>
<polygon fill="lightgray" stroke="none" points="100.75,-25.88 100.75,-42.12 185.25,-42.12 185.25,-25.88 100.75,-25.88"/>
<text xml:space="preserve" text-anchor="start" x="101.75" y="-29.73" font-family="Arial" font-size="12.00">its&#45;time::Validity</text>
<polygon fill="none" stroke="black" points="99.75,-24.88 99.75,-43.12 186.25,-43.12 186.25,-24.88 99.75,-24.88"/>
</g>
<!-- TrafficRegulationOrder&#45;&gt;its&#45;time_Validity -->
<g id="edge9" class="edge">
<title>TrafficRegulationOrder&#45;&gt;its&#45;time_Validity</title>
<path fill="none" stroke="black" d="M485.81,-506.66C585.46,-495.72 709,-472.56 709,-425 709,-425 709,-425 709,-106 709,-54.77 339.18,-39.97 197.41,-36.18"/>
<polygon fill="black" stroke="black" points="197.61,-32.68 187.52,-35.92 197.43,-39.68 197.61,-32.68"/>
<text xml:space="preserve" text-anchor="middle" x="793" y="-249.3" font-family="Arial" font-size="11.00">implementedValidity «max 1, only» </text>
</g>
<!-- TrafficRegulationOrder&#45;&gt;its&#45;time_Validity -->
<g id="edge15" class="edge">
<title>TrafficRegulationOrder&#45;&gt;its&#45;time_Validity</title>
<path fill="none" stroke="black" d="M486,-507.59C648.48,-495.03 913,-467.99 913,-425 913,-425 913,-425 913,-106 913,-34.03 372.75,-32.81 197.31,-34.32"/>
<polygon fill="black" stroke="black" points="197.53,-30.81 187.56,-34.41 197.59,-37.81 197.53,-30.81"/>
<text xml:space="preserve" text-anchor="middle" x="985.75" y="-249.3" font-family="Arial" font-size="11.00">validityByOrder «max 1, only» </text>
</g>
<!-- Invis&#45;&gt;LegalBasis -->
<!-- LegalBasis&#45;&gt;RuleMaker -->
<!-- RuleMaker&#45;&gt;TrafficRegulation -->
<!-- TrafficRegulation&#45;&gt;code_Code -->
<!-- code_Code&#45;&gt;its&#45;location_LocationReference -->
<!-- its&#45;location_LocationReference&#45;&gt;its&#45;time_Validity -->
</g>
</svg>
