<?xml version="1.0" encoding="UTF-8" standalone="no"?>
<!DOCTYPE svg PUBLIC "-//W3C//DTD SVG 1.1//EN"
 "http://www.w3.org/Graphics/SVG/1.1/DTD/svg11.dtd">
<!-- Generated by graphviz version 14.0.2 (20251019.1705)
 -->
<!-- Pages: 1 -->
<svg width="326pt" height="305pt"
 viewBox="0.00 0.00 326.00 305.00" xmlns="http://www.w3.org/2000/svg" xmlns:xlink="http://www.w3.org/1999/xlink">
<g id="graph0" class="graph" transform="scale(1 1) rotate(0) translate(4 301)">
<polygon fill="white" stroke="none" points="-4,4 -4,-301 322.18,-301 322.18,4 -4,4"/>
<g id="clust2" class="cluster">
<title>cluster_associated</title>
</g>
<!-- TrafficRegulation -->
<g id="node1" class="node">
<title>TrafficRegulation</title>
<g id="a_node1"><a xlink:href="../TrafficRegulation" xlink:title="&lt;TABLE&gt;">
<polygon fill="lightgray" stroke="none" points="98.62,-270.88 98.62,-287.12 191.38,-287.12 191.38,-270.88 98.62,-270.88"/>
<text xml:space="preserve" text-anchor="start" x="99.62" y="-274.73" font-family="Arial" font-size="12.00">TrafficRegulation</text>
<polygon fill="none" stroke="black" points="97.62,-269.88 97.62,-288.12 192.38,-288.12 192.38,-269.88 97.62,-269.88"/>
</a>
</g>
</g>
<!-- Invis -->
<!-- TrafficRegulation&#45;&gt;Invis -->
<!-- Condition -->
<g id="node3" class="node">
<title>Condition</title>
<g id="a_node3"><a xlink:href="../Condition" xlink:title="&lt;TABLE&gt;">
<polygon fill="lightgray" stroke="none" points="45.12,-98.88 45.12,-115.12 98.88,-115.12 98.88,-98.88 45.12,-98.88"/>
<text xml:space="preserve" text-anchor="start" x="46.12" y="-102.72" font-family="Arial" font-size="12.00">Condition</text>
<polygon fill="none" stroke="black" points="44.12,-97.88 44.12,-116.12 99.88,-116.12 99.88,-97.88 44.12,-97.88"/>
</a>
</g>
</g>
<!-- TrafficRegulation&#45;&gt;Condition -->
<g id="edge6" class="edge">
<title>TrafficRegulation&#45;&gt;Condition</title>
<path fill="none" stroke="black" d="M135.09,-261.24C130.19,-252.64 124.35,-241.92 119.75,-232 104.67,-199.52 90.32,-160.84 81.36,-135.42"/>
<polygon fill="black" stroke="black" points="84.73,-134.46 78.14,-126.17 78.12,-136.77 84.73,-134.46"/>
<text xml:space="preserve" text-anchor="middle" x="144.88" y="-209.05" font-family="Arial" font-size="11.00"> condition </text>
<text xml:space="preserve" text-anchor="middle" x="144.88" y="-195.55" font-family="Arial" font-size="11.00"> «max 1» &#160;</text>
</g>
<!-- TrafficControlDevice -->
<g id="node4" class="node">
<title>TrafficControlDevice</title>
<g id="a_node4"><a xlink:href="../TrafficControlDevice" xlink:title="&lt;TABLE&gt;">
<polygon fill="lightgray" stroke="none" points="16.62,-25.88 16.62,-42.12 127.38,-42.12 127.38,-25.88 16.62,-25.88"/>
<text xml:space="preserve" text-anchor="start" x="17.62" y="-29.73" font-family="Arial" font-size="12.00">TrafficControlDevice</text>
<polygon fill="none" stroke="black" points="15.62,-24.88 15.62,-43.12 128.38,-43.12 128.38,-24.88 15.62,-24.88"/>
</a>
</g>
</g>
<!-- TrafficRegulation&#45;&gt;TrafficControlDevice -->
<g id="edge5" class="edge">
<title>TrafficRegulation&#45;&gt;TrafficControlDevice</title>
<path fill="none" stroke="black" d="M156.66,-261.37C161.84,-252.98 167.36,-242.39 170,-232 174.82,-213.05 175.33,-206.81 170,-188 155.8,-137.88 119.14,-88.76 94.91,-60.2"/>
<polygon fill="black" stroke="black" points="97.71,-58.09 88.51,-52.82 92.42,-62.67 97.71,-58.09"/>
<text xml:space="preserve" text-anchor="middle" x="240.93" y="-159.55" font-family="Arial" font-size="11.00"> associatedTrafficControlDevice </text>
<text xml:space="preserve" text-anchor="middle" x="240.93" y="-146.05" font-family="Arial" font-size="11.00"> «only» &#160;</text>
</g>
<!-- RegulationThing -->
<g id="node5" class="node">
<title>RegulationThing</title>
<g id="a_node5"><a xlink:href="../RegulationThing" xlink:title="&lt;TABLE&gt;">
<polygon fill="lightgray" stroke="none" points="213.38,-197.88 213.38,-214.12 304.62,-214.12 304.62,-197.88 213.38,-197.88"/>
<text xml:space="preserve" text-anchor="start" x="214.38" y="-201.72" font-family="Arial" font-size="12.00">RegulationThing</text>
<polygon fill="none" stroke="black" points="212.38,-196.88 212.38,-215.12 305.62,-215.12 305.62,-196.88 212.38,-196.88"/>
</a>
</g>
</g>
<!-- TrafficRegulation&#45;&gt;RegulationThing -->
<g id="edge1" class="edge">
<title>TrafficRegulation&#45;&gt;RegulationThing</title>
<path fill="none" stroke="black" d="M172.02,-261.17C186.96,-251.87 205.74,-240.17 222.02,-230.03"/>
<polygon fill="none" stroke="black" points="223.86,-233.01 230.5,-224.75 220.16,-227.07 223.86,-233.01"/>
</g>
<!-- Invis&#45;&gt;Condition -->
<!-- Condition&#45;&gt;TrafficControlDevice -->
</g>
</svg>
