<?xml version="1.0" encoding="UTF-8" standalone="no"?>
<!DOCTYPE svg PUBLIC "-//W3C//DTD SVG 1.1//EN"
 "http://www.w3.org/Graphics/SVG/1.1/DTD/svg11.dtd">
<!-- Generated by graphviz version 14.0.2 (20251019.1705)
 -->
<!-- Pages: 1 -->
<svg width="196pt" height="132pt"
 viewBox="0.00 0.00 196.00 132.00" xmlns="http://www.w3.org/2000/svg" xmlns:xlink="http://www.w3.org/1999/xlink">
<g id="graph0" class="graph" transform="scale(1 1) rotate(0) translate(4 128)">
<polygon fill="white" stroke="none" points="-4,4 -4,-128 192.38,-128 192.38,4 -4,4"/>
<g id="clust2" class="cluster">
<title>cluster_associated</title>
</g>
<!-- TypeOfRegulation -->
<g id="node1" class="node">
<title>TypeOfRegulation</title>
<g id="a_node1"><a xlink:href="../TypeOfRegulation.md" xlink:title="&lt;TABLE&gt;">
<polygon fill="lightgray" stroke="none" points="1,-25.88 1,-42.12 99.75,-42.12 99.75,-25.88 1,-25.88"/>
<text xml:space="preserve" text-anchor="start" x="2" y="-29.73" font-family="Arial" font-size="12.00">TypeOfRegulation</text>
<polygon fill="none" stroke="black" points="0,-24.88 0,-43.12 100.75,-43.12 100.75,-24.88 0,-24.88"/>
</a>
</g>
</g>
<!-- RegulationThing -->
<g id="node3" class="node">
<title>RegulationThing</title>
<g id="a_node3"><a xlink:href="../RegulationThing.md" xlink:title="&lt;TABLE&gt;">
<polygon fill="lightgray" stroke="none" points="4.75,-97.88 4.75,-114.12 96,-114.12 96,-97.88 4.75,-97.88"/>
<text xml:space="preserve" text-anchor="start" x="5.75" y="-101.72" font-family="Arial" font-size="12.00">RegulationThing</text>
<polygon fill="none" stroke="black" points="3.75,-96.88 3.75,-115.12 97,-115.12 97,-96.88 3.75,-96.88"/>
</a>
</g>
</g>
<!-- TypeOfRegulation&#45;&gt;RegulationThing -->
<g id="edge1" class="edge">
<title>TypeOfRegulation&#45;&gt;RegulationThing</title>
<path fill="none" stroke="black" d="M50.38,-51.79C50.38,-59.25 50.38,-68.24 50.38,-76.69"/>
<polygon fill="none" stroke="black" points="46.88,-76.54 50.38,-86.54 53.88,-76.54 46.88,-76.54"/>
</g>
<!-- Invis -->
</g>
</svg>
