<?xml version="1.0" encoding="UTF-8" standalone="no"?>
<!DOCTYPE svg PUBLIC "-//W3C//DTD SVG 1.1//EN"
 "http://www.w3.org/Graphics/SVG/1.1/DTD/svg11.dtd">
<!-- Generated by graphviz version 14.0.2 (20251019.1705)
 -->
<!-- Pages: 1 -->
<svg width="195pt" height="132pt"
 viewBox="0.00 0.00 195.00 132.00" xmlns="http://www.w3.org/2000/svg" xmlns:xlink="http://www.w3.org/1999/xlink">
<g id="graph0" class="graph" transform="scale(1 1) rotate(0) translate(4 128)">
<polygon fill="white" stroke="none" points="-4,4 -4,-128 191.12,-128 191.12,4 -4,4"/>
<g id="clust2" class="cluster">
<title>cluster_associated</title>
</g>
<!-- WarningBeacon -->
<g id="node1" class="node">
<title>WarningBeacon</title>
<g id="a_node1"><a xlink:href="../WarningBeacon" xlink:title="&lt;TABLE&gt;">
<polygon fill="lightgray" stroke="none" points="10,-81.88 10,-98.12 98.25,-98.12 98.25,-81.88 10,-81.88"/>
<text xml:space="preserve" text-anchor="start" x="11" y="-85.72" font-family="Arial" font-size="12.00">WarningBeacon</text>
<polygon fill="none" stroke="black" points="9,-80.88 9,-99.12 99.25,-99.12 99.25,-80.88 9,-80.88"/>
</a>
</g>
</g>
<!-- TrafficSignalDevice -->
<g id="node3" class="node">
<title>TrafficSignalDevice</title>
<g id="a_node3"><a xlink:href="../TrafficSignalDevice" xlink:title="&lt;TABLE&gt;">
<polygon fill="lightgray" stroke="none" points="1,-9.88 1,-26.12 107.25,-26.12 107.25,-9.88 1,-9.88"/>
<text xml:space="preserve" text-anchor="start" x="2" y="-13.72" font-family="Arial" font-size="12.00">TrafficSignalDevice</text>
<polygon fill="none" stroke="black" points="0,-8.88 0,-27.12 108.25,-27.12 108.25,-8.88 0,-8.88"/>
</a>
</g>
</g>
<!-- WarningBeacon&#45;&gt;TrafficSignalDevice -->
<g id="edge1" class="edge">
<title>WarningBeacon&#45;&gt;TrafficSignalDevice</title>
<path fill="none" stroke="black" d="M54.12,-72.05C54.12,-64.57 54.12,-55.58 54.12,-47.14"/>
<polygon fill="none" stroke="black" points="57.63,-47.3 54.13,-37.3 50.63,-47.3 57.63,-47.3"/>
</g>
<!-- Invis -->
</g>
</svg>
