<?xml version="1.0" encoding="UTF-8" standalone="no"?>
<!DOCTYPE svg PUBLIC "-//W3C//DTD SVG 1.1//EN"
 "http://www.w3.org/Graphics/SVG/1.1/DTD/svg11.dtd">
<!-- Generated by graphviz version 13.1.0 (20250701.0955)
 -->
<!-- Pages: 1 -->
<svg width="332pt" height="148pt"
 viewBox="0.00 0.00 332.00 148.00" xmlns="http://www.w3.org/2000/svg" xmlns:xlink="http://www.w3.org/1999/xlink">
<g id="graph0" class="graph" transform="scale(1 1) rotate(0) translate(4 143.5)">
<polygon fill="white" stroke="none" points="-4,4 -4,-143.5 327.5,-143.5 327.5,4 -4,4"/>
<g id="clust2" class="cluster">
<title>cluster_associated</title>
</g>
<!-- TroThing -->
<g id="node1" class="node">
<title>TroThing</title>
<g id="a_node1"><a xlink:href="../classes/TroThing.md" xlink:title="&lt;TABLE&gt;">
<polygon fill="lightgray" stroke="none" points="92.5,-113.38 92.5,-129.62 142.5,-129.62 142.5,-113.38 92.5,-113.38"/>
<text xml:space="preserve" text-anchor="start" x="93.5" y="-117.22" font-family="Arial" font-size="12.00">TroThing</text>
<polygon fill="none" stroke="black" points="91.5,-112.38 91.5,-130.62 143.5,-130.62 143.5,-112.38 91.5,-112.38"/>
</a>
</g>
</g>
<!-- LegalBasis -->
<g id="node2" class="node">
<title>LegalBasis</title>
<g id="a_node2"><a xlink:href="../classes/LegalBasis.md" xlink:title="&lt;TABLE&gt;">
<polygon fill="lightgray" stroke="none" points="1,-50.25 1,-66.5 234,-66.5 234,-50.25 1,-50.25"/>
<text xml:space="preserve" text-anchor="start" x="87.5" y="-54.1" font-family="Arial" font-size="12.00">LegalBasis</text>
<text xml:space="preserve" text-anchor="start" x="2" y="-37.85" font-family="Arial" font-size="12.00">date: string «max 1, only»</text>
<text xml:space="preserve" text-anchor="start" x="2" y="-21.6" font-family="Arial" font-size="12.00">genProp::hasName: string «exactly 1, only»</text>
<text xml:space="preserve" text-anchor="start" x="2" y="-5.35" font-family="Arial" font-size="12.00">version: string «max 1, only»</text>
<polygon fill="none" stroke="black" points="0,-0.5 0,-67.5 235,-67.5 235,-0.5 0,-0.5"/>
</a>
</g>
</g>
<!-- LegalBasis&#45;&gt;TroThing -->
<g id="edge1" class="edge">
<title>LegalBasis&#45;&gt;TroThing</title>
<path fill="none" stroke="black" d="M117.5,-67.43C117.5,-75.62 117.5,-84.33 117.5,-92.29"/>
<polygon fill="none" stroke="black" points="114,-92.09 117.5,-102.09 121,-92.09 114,-92.09"/>
</g>
<!-- Invis -->
</g>
</svg>
