<?xml version="1.0" encoding="UTF-8" standalone="no"?>
<!DOCTYPE svg PUBLIC "-//W3C//DTD SVG 1.1//EN"
 "http://www.w3.org/Graphics/SVG/1.1/DTD/svg11.dtd">
<!-- Generated by graphviz version 13.1.0 (20250701.0955)
 -->
<!-- Pages: 1 -->
<svg width="265pt" height="219pt"
 viewBox="0.00 0.00 265.00 219.00" xmlns="http://www.w3.org/2000/svg" xmlns:xlink="http://www.w3.org/1999/xlink">
<g id="graph0" class="graph" transform="scale(1 1) rotate(0) translate(4 214.5)">
<polygon fill="white" stroke="none" points="-4,4 -4,-214.5 261.38,-214.5 261.38,4 -4,4"/>
<g id="clust2" class="cluster">
<title>cluster_associated</title>
</g>
<!-- TroThing -->
<g id="node1" class="node">
<title>TroThing</title>
<g id="a_node1"><a xlink:href="../classes/TroThing.md" xlink:title="&lt;TABLE&gt;">
<polygon fill="lightgray" stroke="none" points="22.38,-184.38 22.38,-200.62 72.38,-200.62 72.38,-184.38 22.38,-184.38"/>
<text xml:space="preserve" text-anchor="start" x="23.38" y="-188.22" font-family="Arial" font-size="12.00">TroThing</text>
<polygon fill="none" stroke="black" points="21.38,-183.38 21.38,-201.62 73.38,-201.62 73.38,-183.38 21.38,-183.38"/>
</a>
</g>
</g>
<!-- TrafficRegulation -->
<g id="node2" class="node">
<title>TrafficRegulation</title>
<g id="a_node2"><a xlink:href="../classes/TrafficRegulation.md" xlink:title="&lt;TABLE&gt;">
<polygon fill="lightgray" stroke="none" points="1,-111.38 1,-127.62 93.75,-127.62 93.75,-111.38 1,-111.38"/>
<text xml:space="preserve" text-anchor="start" x="2" y="-115.22" font-family="Arial" font-size="12.00">TrafficRegulation</text>
<polygon fill="none" stroke="black" points="0,-110.38 0,-128.62 94.75,-128.62 94.75,-110.38 0,-110.38"/>
</a>
</g>
</g>
<!-- TrafficRegulation&#45;&gt;TroThing -->
<g id="edge1" class="edge">
<title>TrafficRegulation&#45;&gt;TroThing</title>
<path fill="none" stroke="black" d="M47.38,-137.21C47.38,-144.97 47.38,-154.42 47.38,-163.24"/>
<polygon fill="none" stroke="black" points="43.88,-163.16 47.38,-173.16 50.88,-163.16 43.88,-163.16"/>
</g>
<!-- Invis -->
<!-- TrafficRegulation&#45;&gt;Invis -->
<!-- TrafficControlDevice -->
<g id="node4" class="node">
<title>TrafficControlDevice</title>
<g id="a_node4"><a xlink:href="../classes/TrafficControlDevice" xlink:title="TrafficControlDevice">
<polygon fill="lightgray" stroke="none" points="130,-25.88 130,-42.12 240.75,-42.12 240.75,-25.88 130,-25.88"/>
<text xml:space="preserve" text-anchor="start" x="131" y="-29.73" font-family="Arial" font-size="12.00">TrafficControlDevice</text>
<polygon fill="none" stroke="black" points="129,-24.88 129,-43.12 241.75,-43.12 241.75,-24.88 129,-24.88"/>
</a>
</g>
</g>
<!-- TrafficRegulation&#45;&gt;TrafficControlDevice -->
<g id="edge4" class="edge">
<title>TrafficRegulation&#45;&gt;TrafficControlDevice</title>
<path fill="none" stroke="black" d="M26.94,-101.56C17.71,-91.87 10.46,-79.75 18.38,-70 31.05,-54.39 77.23,-45.5 117.83,-40.58"/>
<polygon fill="black" stroke="black" points="118.05,-44.08 127.59,-39.47 117.26,-37.12 118.05,-44.08"/>
<text xml:space="preserve" text-anchor="middle" x="111.38" y="-73.05" font-family="Arial" font-size="11.00">associatedTrafficControlDevice «only» </text>
</g>
<!-- Invis&#45;&gt;TrafficControlDevice -->
</g>
</svg>
