<?xml version="1.0" encoding="UTF-8" standalone="no"?>
<!DOCTYPE svg PUBLIC "-//W3C//DTD SVG 1.1//EN"
 "http://www.w3.org/Graphics/SVG/1.1/DTD/svg11.dtd">
<!-- Generated by graphviz version 13.1.0 (20250701.0955)
 -->
<!-- Pages: 1 -->
<svg width="216pt" height="219pt"
 viewBox="0.00 0.00 216.00 219.00" xmlns="http://www.w3.org/2000/svg" xmlns:xlink="http://www.w3.org/1999/xlink">
<g id="graph0" class="graph" transform="scale(1 1) rotate(0) translate(4 214.5)">
<polygon fill="white" stroke="none" points="-4,4 -4,-214.5 212.12,-214.5 212.12,4 -4,4"/>
<g id="clust2" class="cluster">
<title>cluster_associated</title>
</g>
<!-- Destination -->
<g id="node1" class="node">
<title>Destination</title>
<g id="a_node1"><a xlink:href="../classes/Destination.md" xlink:title="&lt;TABLE&gt;">
<polygon fill="lightgray" stroke="none" points="13.75,-184.38 13.75,-200.62 76.5,-200.62 76.5,-184.38 13.75,-184.38"/>
<text xml:space="preserve" text-anchor="start" x="14.75" y="-188.22" font-family="Arial" font-size="12.00">Destination</text>
<polygon fill="none" stroke="black" points="12.75,-183.38 12.75,-201.62 77.5,-201.62 77.5,-183.38 12.75,-183.38"/>
</a>
</g>
</g>
<!-- AreaDestination -->
<g id="node2" class="node">
<title>AreaDestination</title>
<g id="a_node2"><a xlink:href="../classes/AreaDestination.md" xlink:title="&lt;TABLE&gt;">
<polygon fill="lightgray" stroke="none" points="1,-111.38 1,-127.62 89.25,-127.62 89.25,-111.38 1,-111.38"/>
<text xml:space="preserve" text-anchor="start" x="2" y="-115.22" font-family="Arial" font-size="12.00">AreaDestination</text>
<polygon fill="none" stroke="black" points="0,-110.38 0,-128.62 90.25,-128.62 90.25,-110.38 0,-110.38"/>
</a>
</g>
</g>
<!-- AreaDestination&#45;&gt;Destination -->
<g id="edge1" class="edge">
<title>AreaDestination&#45;&gt;Destination</title>
<path fill="none" stroke="black" d="M45.12,-137.21C45.12,-144.97 45.12,-154.42 45.12,-163.24"/>
<polygon fill="none" stroke="black" points="41.63,-163.16 45.13,-173.16 48.63,-163.16 41.63,-163.16"/>
</g>
<!-- Invis -->
<!-- AreaDestination&#45;&gt;Invis -->
<!-- AreaLocation -->
<g id="node4" class="node">
<title>AreaLocation</title>
<g id="a_node4"><a xlink:href="../classes/AreaLocation" xlink:title="AreaLocation">
<polygon fill="lightgray" stroke="none" points="117.5,-25.88 117.5,-42.12 190.75,-42.12 190.75,-25.88 117.5,-25.88"/>
<text xml:space="preserve" text-anchor="start" x="118.5" y="-29.73" font-family="Arial" font-size="12.00">AreaLocation</text>
<polygon fill="none" stroke="black" points="116.5,-24.88 116.5,-43.12 191.75,-43.12 191.75,-24.88 116.5,-24.88"/>
</a>
</g>
</g>
<!-- AreaDestination&#45;&gt;AreaLocation -->
<g id="edge4" class="edge">
<title>AreaDestination&#45;&gt;AreaLocation</title>
<path fill="none" stroke="black" d="M34.94,-101.81C30.23,-91.74 27.03,-79.13 33.88,-70 50.29,-48.13 79.59,-39.3 105.16,-35.98"/>
<polygon fill="black" stroke="black" points="105.48,-39.46 115.07,-34.97 104.77,-32.5 105.48,-39.46"/>
<text xml:space="preserve" text-anchor="middle" x="93.5" y="-73.05" font-family="Arial" font-size="11.00">«exactly 1» areaLocation</text>
</g>
<!-- Invis&#45;&gt;AreaLocation -->
</g>
</svg>
