<?xml version="1.0" encoding="UTF-8" standalone="no"?>
<!DOCTYPE svg PUBLIC "-//W3C//DTD SVG 1.1//EN"
 "http://www.w3.org/Graphics/SVG/1.1/DTD/svg11.dtd">
<!-- Generated by graphviz version 13.1.0 (20250701.0955)
 -->
<!-- Pages: 1 -->
<svg width="200pt" height="132pt"
 viewBox="0.00 0.00 200.00 132.00" xmlns="http://www.w3.org/2000/svg" xmlns:xlink="http://www.w3.org/1999/xlink">
<g id="graph0" class="graph" transform="scale(1 1) rotate(0) translate(4 128)">
<polygon fill="white" stroke="none" points="-4,4 -4,-128 196.25,-128 196.25,4 -4,4"/>
<g id="clust2" class="cluster">
<title>cluster_associated</title>
</g>
<!-- LocationThing -->
<g id="node1" class="node">
<title>LocationThing</title>
<g id="a_node1"><a xlink:href="../classes/LocationThing.md" xlink:title="&lt;TABLE&gt;">
<polygon fill="lightgray" stroke="none" points="13,-97.88 13,-114.12 91.5,-114.12 91.5,-97.88 13,-97.88"/>
<text xml:space="preserve" text-anchor="start" x="14" y="-101.72" font-family="Arial" font-size="12.00">LocationThing</text>
<polygon fill="none" stroke="black" points="12,-96.88 12,-115.12 92.5,-115.12 92.5,-96.88 12,-96.88"/>
</a>
</g>
</g>
<!-- JurisdictionalEntity -->
<g id="node2" class="node">
<title>JurisdictionalEntity</title>
<g id="a_node2"><a xlink:href="../classes/JurisdictionalEntity.md" xlink:title="&lt;TABLE&gt;">
<polygon fill="lightgray" stroke="none" points="1,-25.88 1,-42.12 103.5,-42.12 103.5,-25.88 1,-25.88"/>
<text xml:space="preserve" text-anchor="start" x="2" y="-29.73" font-family="Arial" font-size="12.00">JurisdictionalEntity</text>
<polygon fill="none" stroke="black" points="0,-24.88 0,-43.12 104.5,-43.12 104.5,-24.88 0,-24.88"/>
</a>
</g>
</g>
<!-- JurisdictionalEntity&#45;&gt;LocationThing -->
<g id="edge1" class="edge">
<title>JurisdictionalEntity&#45;&gt;LocationThing</title>
<path fill="none" stroke="black" d="M52.25,-51.79C52.25,-59.25 52.25,-68.24 52.25,-76.69"/>
<polygon fill="none" stroke="black" points="48.75,-76.54 52.25,-86.54 55.75,-76.54 48.75,-76.54"/>
</g>
<!-- Invis -->
</g>
</svg>
