<?xml version="1.0" encoding="UTF-8" standalone="no"?>
<!DOCTYPE svg PUBLIC "-//W3C//DTD SVG 1.1//EN"
 "http://www.w3.org/Graphics/SVG/1.1/DTD/svg11.dtd">
<!-- Generated by graphviz version 13.1.0 (20250701.0955)
 -->
<!-- Pages: 1 -->
<svg width="190pt" height="132pt"
 viewBox="0.00 0.00 190.00 132.00" xmlns="http://www.w3.org/2000/svg" xmlns:xlink="http://www.w3.org/1999/xlink">
<g id="graph0" class="graph" transform="scale(1 1) rotate(0) translate(4 128)">
<polygon fill="white" stroke="none" points="-4,4 -4,-128 185.62,-128 185.62,4 -4,4"/>
<g id="clust2" class="cluster">
<title>cluster_associated</title>
</g>
<!-- LocationReference -->
<g id="node1" class="node">
<title>LocationReference</title>
<g id="a_node1"><a xlink:href="../classes/LocationReference.md" xlink:title="&lt;TABLE&gt;">
<polygon fill="lightgray" stroke="none" points="1,-97.88 1,-114.12 104.25,-114.12 104.25,-97.88 1,-97.88"/>
<text xml:space="preserve" text-anchor="start" x="2" y="-101.72" font-family="Arial" font-size="12.00">LocationReference</text>
<polygon fill="none" stroke="black" points="0,-96.88 0,-115.12 105.25,-115.12 105.25,-96.88 0,-96.88"/>
</a>
</g>
</g>
<!-- LocationGroup -->
<g id="node2" class="node">
<title>LocationGroup</title>
<g id="a_node2"><a xlink:href="../classes/LocationGroup.md" xlink:title="&lt;TABLE&gt;">
<polygon fill="lightgray" stroke="none" points="12.25,-25.88 12.25,-42.12 93,-42.12 93,-25.88 12.25,-25.88"/>
<text xml:space="preserve" text-anchor="start" x="13.25" y="-29.73" font-family="Arial" font-size="12.00">LocationGroup</text>
<polygon fill="none" stroke="black" points="11.25,-24.88 11.25,-43.12 94,-43.12 94,-24.88 11.25,-24.88"/>
</a>
</g>
</g>
<!-- LocationGroup&#45;&gt;LocationReference -->
<g id="edge1" class="edge">
<title>LocationGroup&#45;&gt;LocationReference</title>
<path fill="none" stroke="black" d="M52.62,-51.79C52.62,-59.25 52.62,-68.24 52.62,-76.69"/>
<polygon fill="none" stroke="black" points="49.13,-76.54 52.63,-86.54 56.13,-76.54 49.13,-76.54"/>
</g>
<!-- Invis -->
</g>
</svg>
