<?xml version="1.0" encoding="UTF-8" standalone="no"?>
<!DOCTYPE svg PUBLIC "-//W3C//DTD SVG 1.1//EN"
 "http://www.w3.org/Graphics/SVG/1.1/DTD/svg11.dtd">
<!-- Generated by graphviz version 13.1.0 (20250701.0955)
 -->
<!-- Pages: 1 -->
<svg width="261pt" height="219pt"
 viewBox="0.00 0.00 261.00 219.00" xmlns="http://www.w3.org/2000/svg" xmlns:xlink="http://www.w3.org/1999/xlink">
<g id="graph0" class="graph" transform="scale(1 1) rotate(0) translate(4 214.5)">
<polygon fill="white" stroke="none" points="-4,4 -4,-214.5 256.88,-214.5 256.88,4 -4,4"/>
<g id="clust2" class="cluster">
<title>cluster_associated</title>
</g>
<!-- LocationGroup -->
<g id="node1" class="node">
<title>LocationGroup</title>
<g id="a_node1"><a xlink:href="../classes/LocationGroup.md" xlink:title="&lt;TABLE&gt;">
<polygon fill="lightgray" stroke="none" points="17.5,-184.38 17.5,-200.62 98.25,-200.62 98.25,-184.38 17.5,-184.38"/>
<text xml:space="preserve" text-anchor="start" x="18.5" y="-188.22" font-family="Arial" font-size="12.00">LocationGroup</text>
<polygon fill="none" stroke="black" points="16.5,-183.38 16.5,-201.62 99.25,-201.62 99.25,-183.38 16.5,-183.38"/>
</a>
</g>
</g>
<!-- LocationGroupByList -->
<g id="node2" class="node">
<title>LocationGroupByList</title>
<g id="a_node2"><a xlink:href="../classes/LocationGroupByList.md" xlink:title="&lt;TABLE&gt;">
<polygon fill="lightgray" stroke="none" points="1,-111.38 1,-127.62 114.75,-127.62 114.75,-111.38 1,-111.38"/>
<text xml:space="preserve" text-anchor="start" x="2" y="-115.22" font-family="Arial" font-size="12.00">LocationGroupByList</text>
<polygon fill="none" stroke="black" points="0,-110.38 0,-128.62 115.75,-128.62 115.75,-110.38 0,-110.38"/>
</a>
</g>
</g>
<!-- LocationGroupByList&#45;&gt;LocationGroup -->
<g id="edge1" class="edge">
<title>LocationGroupByList&#45;&gt;LocationGroup</title>
<path fill="none" stroke="black" d="M57.88,-137.21C57.88,-144.97 57.88,-154.42 57.88,-163.24"/>
<polygon fill="none" stroke="black" points="54.38,-163.16 57.88,-173.16 61.38,-163.16 54.38,-163.16"/>
</g>
<!-- Invis -->
<!-- LocationGroupByList&#45;&gt;Invis -->
<!-- Location -->
<g id="node4" class="node">
<title>Location</title>
<g id="a_node4"><a xlink:href="../classes/Location" xlink:title="Location">
<polygon fill="lightgray" stroke="none" points="186,-25.88 186,-42.12 233.75,-42.12 233.75,-25.88 186,-25.88"/>
<text xml:space="preserve" text-anchor="start" x="187" y="-29.73" font-family="Arial" font-size="12.00">Location</text>
<polygon fill="none" stroke="black" points="185,-24.88 185,-43.12 234.75,-43.12 234.75,-24.88 185,-24.88"/>
</a>
</g>
</g>
<!-- LocationGroupByList&#45;&gt;Location -->
<g id="edge4" class="edge">
<title>LocationGroupByList&#45;&gt;Location</title>
<path fill="none" stroke="black" d="M32.92,-101.54C22.02,-92.07 13.43,-80.16 21.88,-70 40.55,-47.53 122.39,-39.41 171.73,-36.54"/>
<polygon fill="black" stroke="black" points="171.91,-40.03 181.71,-36.01 171.54,-33.04 171.91,-40.03"/>
<text xml:space="preserve" text-anchor="middle" x="117.88" y="-73.05" font-family="Arial" font-size="11.00">«min 2, only» locationContainedInGroup</text>
</g>
<!-- Invis&#45;&gt;Location -->
</g>
</svg>
