<?xml version="1.0" encoding="UTF-8" standalone="no"?>
<!DOCTYPE svg PUBLIC "-//W3C//DTD SVG 1.1//EN"
 "http://www.w3.org/Graphics/SVG/1.1/DTD/svg11.dtd">
<!-- Generated by graphviz version 13.1.0 (20250701.0955)
 -->
<!-- Pages: 1 -->
<svg width="170pt" height="132pt"
 viewBox="0.00 0.00 170.00 132.00" xmlns="http://www.w3.org/2000/svg" xmlns:xlink="http://www.w3.org/1999/xlink">
<g id="graph0" class="graph" transform="scale(1 1) rotate(0) translate(4 128)">
<polygon fill="white" stroke="none" points="-4,4 -4,-128 166.25,-128 166.25,4 -4,4"/>
<g id="clust2" class="cluster">
<title>cluster_associated</title>
</g>
<!-- LocationThing -->
<g id="node1" class="node">
<title>LocationThing</title>
<g id="a_node1"><a xlink:href="../classes/LocationThing.md" xlink:title="&lt;TABLE&gt;">
<polygon fill="lightgray" stroke="none" points="1,-97.88 1,-114.12 79.5,-114.12 79.5,-97.88 1,-97.88"/>
<text xml:space="preserve" text-anchor="start" x="2" y="-101.72" font-family="Arial" font-size="12.00">LocationThing</text>
<polygon fill="none" stroke="black" points="0,-96.88 0,-115.12 80.5,-115.12 80.5,-96.88 0,-96.88"/>
</a>
</g>
</g>
<!-- NamedArea -->
<g id="node2" class="node">
<title>NamedArea</title>
<g id="a_node2"><a xlink:href="../classes/NamedArea.md" xlink:title="&lt;TABLE&gt;">
<polygon fill="lightgray" stroke="none" points="7,-25.88 7,-42.12 73.5,-42.12 73.5,-25.88 7,-25.88"/>
<text xml:space="preserve" text-anchor="start" x="8" y="-29.73" font-family="Arial" font-size="12.00">NamedArea</text>
<polygon fill="none" stroke="black" points="6,-24.88 6,-43.12 74.5,-43.12 74.5,-24.88 6,-24.88"/>
</a>
</g>
</g>
<!-- NamedArea&#45;&gt;LocationThing -->
<g id="edge1" class="edge">
<title>NamedArea&#45;&gt;LocationThing</title>
<path fill="none" stroke="black" d="M40.25,-51.79C40.25,-59.25 40.25,-68.24 40.25,-76.69"/>
<polygon fill="none" stroke="black" points="36.75,-76.54 40.25,-86.54 43.75,-76.54 36.75,-76.54"/>
</g>
<!-- Invis -->
</g>
</svg>
