<?xml version="1.0" encoding="UTF-8" standalone="no"?>
<!DOCTYPE svg PUBLIC "-//W3C//DTD SVG 1.1//EN"
 "http://www.w3.org/Graphics/SVG/1.1/DTD/svg11.dtd">
<!-- Generated by graphviz version 13.1.0 (20250701.0955)
 -->
<!-- Pages: 1 -->
<svg width="341pt" height="292pt"
 viewBox="0.00 0.00 341.00 292.00" xmlns="http://www.w3.org/2000/svg" xmlns:xlink="http://www.w3.org/1999/xlink">
<g id="graph0" class="graph" transform="scale(1 1) rotate(0) translate(4 287.5)">
<polygon fill="white" stroke="none" points="-4,4 -4,-287.5 336.98,-287.5 336.98,4 -4,4"/>
<g id="clust2" class="cluster">
<title>cluster_associated</title>
</g>
<!-- Location -->
<g id="node1" class="node">
<title>Location</title>
<g id="a_node1"><a xlink:href="../classes/Location.md" xlink:title="&lt;TABLE&gt;">
<polygon fill="lightgray" stroke="none" points="30.11,-257.38 30.11,-273.62 77.86,-273.62 77.86,-257.38 30.11,-257.38"/>
<text xml:space="preserve" text-anchor="start" x="31.11" y="-261.23" font-family="Arial" font-size="12.00">Location</text>
<polygon fill="none" stroke="black" points="29.11,-256.38 29.11,-274.62 78.86,-274.62 78.86,-256.38 29.11,-256.38"/>
</a>
</g>
</g>
<!-- NetworkLocation -->
<g id="node2" class="node">
<title>NetworkLocation</title>
<g id="a_node2"><a xlink:href="../classes/NetworkLocation.md" xlink:title="&lt;TABLE&gt;">
<polygon fill="lightgray" stroke="none" points="7.98,-184.38 7.98,-200.62 99.98,-200.62 99.98,-184.38 7.98,-184.38"/>
<text xml:space="preserve" text-anchor="start" x="8.98" y="-188.22" font-family="Arial" font-size="12.00">NetworkLocation</text>
<polygon fill="none" stroke="black" points="6.98,-183.38 6.98,-201.62 100.98,-201.62 100.98,-183.38 6.98,-183.38"/>
</a>
</g>
</g>
<!-- NetworkLocation&#45;&gt;Location -->
<g id="edge1" class="edge">
<title>NetworkLocation&#45;&gt;Location</title>
<path fill="none" stroke="black" d="M53.98,-210.21C53.98,-217.97 53.98,-227.42 53.98,-236.24"/>
<polygon fill="none" stroke="black" points="50.48,-236.16 53.98,-246.16 57.48,-236.16 50.48,-236.16"/>
</g>
<!-- Invis -->
<!-- NetworkLocation&#45;&gt;Invis -->
<!-- Destination -->
<g id="node4" class="node">
<title>Destination</title>
<g id="a_node4"><a xlink:href="../classes/Destination" xlink:title="Destination">
<polygon fill="lightgray" stroke="none" points="185.61,-98.88 185.61,-115.12 248.36,-115.12 248.36,-98.88 185.61,-98.88"/>
<text xml:space="preserve" text-anchor="start" x="186.61" y="-102.72" font-family="Arial" font-size="12.00">Destination</text>
<polygon fill="none" stroke="black" points="184.61,-97.88 184.61,-116.12 249.36,-116.12 249.36,-97.88 184.61,-97.88"/>
</a>
</g>
</g>
<!-- NetworkLocation&#45;&gt;Destination -->
<g id="edge6" class="edge">
<title>NetworkLocation&#45;&gt;Destination</title>
<path fill="none" stroke="black" d="M64.14,-174.69C71.43,-164.05 82.21,-150.85 94.98,-143 124.56,-124.83 137.75,-135.03 170.98,-125 171.96,-124.7 172.95,-124.4 173.95,-124.08"/>
<polygon fill="black" stroke="black" points="174.92,-127.45 183.3,-120.96 172.7,-120.81 174.92,-127.45"/>
<text xml:space="preserve" text-anchor="middle" x="142.98" y="-146.05" font-family="Arial" font-size="11.00">«max 1» destination</text>
</g>
<!-- SupplementaryPositionalDescription -->
<g id="node5" class="node">
<title>SupplementaryPositionalDescription</title>
<g id="a_node5"><a xlink:href="../classes/SupplementaryPositionalDescription" xlink:title="SupplementaryPositionalDescription">
<polygon fill="lightgray" stroke="none" points="118.48,-25.88 118.48,-42.12 315.48,-42.12 315.48,-25.88 118.48,-25.88"/>
<text xml:space="preserve" text-anchor="start" x="119.48" y="-29.73" font-family="Arial" font-size="12.00">SupplementaryPositionalDescription</text>
<polygon fill="none" stroke="black" points="117.48,-24.88 117.48,-43.12 316.48,-43.12 316.48,-24.88 117.48,-24.88"/>
</a>
</g>
</g>
<!-- NetworkLocation&#45;&gt;SupplementaryPositionalDescription -->
<g id="edge5" class="edge">
<title>NetworkLocation&#45;&gt;SupplementaryPositionalDescription</title>
<path fill="none" stroke="black" d="M35.89,-174.6C15.14,-153.15 -13.5,-115.74 7.23,-89 20.32,-72.12 63.11,-59.58 106.65,-50.86"/>
<polygon fill="black" stroke="black" points="107.08,-54.35 116.24,-49.01 105.76,-47.47 107.08,-54.35"/>
<text xml:space="preserve" text-anchor="middle" x="91.61" y="-103.3" font-family="Arial" font-size="11.00">«max 1, only» positionalDescription</text>
</g>
<!-- Invis&#45;&gt;Destination -->
<!-- Destination&#45;&gt;SupplementaryPositionalDescription -->
</g>
</svg>
