<?xml version="1.0" encoding="UTF-8" standalone="no"?>
<!DOCTYPE svg PUBLIC "-//W3C//DTD SVG 1.1//EN"
 "http://www.w3.org/Graphics/SVG/1.1/DTD/svg11.dtd">
<!-- Generated by graphviz version 13.1.0 (20250701.0955)
 -->
<!-- Pages: 1 -->
<svg width="332pt" height="233pt"
 viewBox="0.00 0.00 332.00 233.00" xmlns="http://www.w3.org/2000/svg" xmlns:xlink="http://www.w3.org/1999/xlink">
<g id="graph0" class="graph" transform="scale(1 1) rotate(0) translate(4 229.25)">
<polygon fill="white" stroke="none" points="-4,4 -4,-229.25 328.25,-229.25 328.25,4 -4,4"/>
<g id="clust2" class="cluster">
<title>cluster_associated</title>
</g>
<!-- TimeThing -->
<g id="node1" class="node">
<title>TimeThing</title>
<g id="a_node1"><a xlink:href="../classes/TimeThing.md" xlink:title="&lt;TABLE&gt;">
<polygon fill="lightgray" stroke="none" points="79.75,-199.12 79.75,-215.38 138.75,-215.38 138.75,-199.12 79.75,-199.12"/>
<text xml:space="preserve" text-anchor="start" x="80.75" y="-202.97" font-family="Arial" font-size="12.00">TimeThing</text>
<polygon fill="none" stroke="black" points="78.75,-198.12 78.75,-216.38 139.75,-216.38 139.75,-198.12 78.75,-198.12"/>
</a>
</g>
</g>
<!-- OverallPeriod -->
<g id="node2" class="node">
<title>OverallPeriod</title>
<g id="a_node2"><a xlink:href="../classes/OverallPeriod.md" xlink:title="&lt;TABLE&gt;">
<polygon fill="lightgray" stroke="none" points="1,-135 1,-151.25 217.5,-151.25 217.5,-135 1,-135"/>
<text xml:space="preserve" text-anchor="start" x="72.5" y="-138.85" font-family="Arial" font-size="12.00">OverallPeriod</text>
<text xml:space="preserve" text-anchor="start" x="2" y="-122.6" font-family="Arial" font-size="12.00">overallEndTime: string «max 1, only»</text>
<text xml:space="preserve" text-anchor="start" x="2" y="-106.35" font-family="Arial" font-size="12.00">overallStartTime: string «exactly 1, only»</text>
<polygon fill="none" stroke="black" points="0,-101.5 0,-152.25 218.5,-152.25 218.5,-101.5 0,-101.5"/>
</a>
</g>
</g>
<!-- OverallPeriod&#45;&gt;TimeThing -->
<g id="edge1" class="edge">
<title>OverallPeriod&#45;&gt;TimeThing</title>
<path fill="none" stroke="black" d="M109.25,-152.21C109.25,-160.47 109.25,-169.77 109.25,-178.29"/>
<polygon fill="none" stroke="black" points="105.75,-178.12 109.25,-188.12 112.75,-178.12 105.75,-178.12"/>
</g>
<!-- Invis -->
<!-- OverallPeriod&#45;&gt;Invis -->
<!-- Period -->
<g id="node4" class="node">
<title>Period</title>
<g id="a_node4"><a xlink:href="../classes/Period" xlink:title="Period">
<polygon fill="lightgray" stroke="none" points="262.62,-25.88 262.62,-42.12 299.88,-42.12 299.88,-25.88 262.62,-25.88"/>
<text xml:space="preserve" text-anchor="start" x="263.62" y="-29.73" font-family="Arial" font-size="12.00">Period</text>
<polygon fill="none" stroke="black" points="261.62,-24.88 261.62,-43.12 300.88,-43.12 300.88,-24.88 261.62,-24.88"/>
</a>
</g>
</g>
<!-- OverallPeriod&#45;&gt;Period -->
<g id="edge4" class="edge">
<title>OverallPeriod&#45;&gt;Period</title>
<path fill="none" stroke="black" d="M74.34,-101.52C64.23,-91.56 57.96,-80.05 66.5,-70 88.73,-43.86 187.55,-37.19 243.07,-35.53"/>
<polygon fill="black" stroke="black" points="243.12,-39.03 253.03,-35.27 242.95,-32.03 243.12,-39.03"/>
<text xml:space="preserve" text-anchor="middle" x="122.38" y="-73.05" font-family="Arial" font-size="11.00">«only» exceptionPeriod</text>
</g>
<!-- OverallPeriod&#45;&gt;Period -->
<g id="edge5" class="edge">
<title>OverallPeriod&#45;&gt;Period</title>
<path fill="none" stroke="black" d="M149.64,-101.64C159.1,-95.81 169.09,-89.52 178.25,-83.5 186.98,-77.76 188.35,-75.04 197.5,-70 212.27,-61.86 229.33,-54.41 244.18,-48.49"/>
<polygon fill="black" stroke="black" points="245.07,-51.9 253.13,-45.02 242.54,-45.37 245.07,-51.9"/>
<text xml:space="preserve" text-anchor="middle" x="241.38" y="-73.05" font-family="Arial" font-size="11.00">«only» validPeriod</text>
</g>
<!-- Invis&#45;&gt;Period -->
</g>
</svg>
