<?xml version="1.0" encoding="UTF-8" standalone="no"?>
<!DOCTYPE svg PUBLIC "-//W3C//DTD SVG 1.1//EN"
 "http://www.w3.org/Graphics/SVG/1.1/DTD/svg11.dtd">
<!-- Generated by graphviz version 13.1.0 (20250701.0955)
 -->
<!-- Pages: 1 -->
<svg width="464pt" height="408pt"
 viewBox="0.00 0.00 464.00 408.00" xmlns="http://www.w3.org/2000/svg" xmlns:xlink="http://www.w3.org/1999/xlink">
<g id="graph0" class="graph" transform="scale(1 1) rotate(0) translate(4 404)">
<polygon fill="white" stroke="none" points="-4,4 -4,-404 460.13,-404 460.13,4 -4,4"/>
<g id="clust2" class="cluster">
<title>cluster_associated</title>
</g>
<!-- TimeThing -->
<g id="node1" class="node">
<title>TimeThing</title>
<g id="a_node1"><a xlink:href="../classes/TimeThing.md" xlink:title="&lt;TABLE&gt;">
<polygon fill="lightgray" stroke="none" points="211.5,-373.88 211.5,-390.12 270.5,-390.12 270.5,-373.88 211.5,-373.88"/>
<text xml:space="preserve" text-anchor="start" x="212.5" y="-377.73" font-family="Arial" font-size="12.00">TimeThing</text>
<polygon fill="none" stroke="black" points="210.5,-372.88 210.5,-391.12 271.5,-391.12 271.5,-372.88 210.5,-372.88"/>
</a>
</g>
</g>
<!-- Period -->
<g id="node2" class="node">
<title>Period</title>
<g id="a_node2"><a xlink:href="../classes/Period.md" xlink:title="&lt;TABLE&gt;">
<polygon fill="lightgray" stroke="none" points="133.5,-309.75 133.5,-326 348.5,-326 348.5,-309.75 133.5,-309.75"/>
<text xml:space="preserve" text-anchor="start" x="223.38" y="-313.6" font-family="Arial" font-size="12.00">Period</text>
<text xml:space="preserve" text-anchor="start" x="134.5" y="-297.35" font-family="Arial" font-size="12.00">endOfPeriod: string «max 1, only»</text>
<text xml:space="preserve" text-anchor="start" x="134.5" y="-281.1" font-family="Arial" font-size="12.00">genProp:hasName: string «max 1, only»</text>
<text xml:space="preserve" text-anchor="start" x="134.5" y="-264.85" font-family="Arial" font-size="12.00">startOfPeriod: string «max 1, only»</text>
<polygon fill="none" stroke="black" points="132.5,-260 132.5,-327 349.5,-327 349.5,-260 132.5,-260"/>
</a>
</g>
</g>
<!-- Period&#45;&gt;TimeThing -->
<g id="edge1" class="edge">
<title>Period&#45;&gt;TimeThing</title>
<path fill="none" stroke="black" d="M241,-326.89C241,-335.45 241,-344.62 241,-352.93"/>
<polygon fill="none" stroke="black" points="237.5,-352.81 241,-362.81 244.5,-352.81 237.5,-352.81"/>
</g>
<!-- Invis -->
<!-- Period&#45;&gt;Invis -->
<!-- DaySelector -->
<g id="node4" class="node">
<title>DaySelector</title>
<g id="a_node4"><a xlink:href="../classes/DaySelector" xlink:title="DaySelector">
<polygon fill="lightgray" stroke="none" points="40,-184.38 40,-200.62 108,-200.62 108,-184.38 40,-184.38"/>
<text xml:space="preserve" text-anchor="start" x="41" y="-188.22" font-family="Arial" font-size="12.00">DaySelector</text>
<polygon fill="none" stroke="black" points="39,-183.38 39,-201.62 109,-201.62 109,-183.38 39,-183.38"/>
</a>
</g>
</g>
<!-- Period&#45;&gt;DaySelector -->
<g id="edge6" class="edge">
<title>Period&#45;&gt;DaySelector</title>
<path fill="none" stroke="black" d="M132.53,-260.88C104.75,-252.33 81.97,-244.68 79.75,-242 74.99,-236.26 72.82,-228.74 72.02,-221.34"/>
<polygon fill="black" stroke="black" points="75.53,-221.51 71.77,-211.6 68.53,-221.69 75.53,-221.51"/>
<text xml:space="preserve" text-anchor="middle" x="133.38" y="-231.55" font-family="Arial" font-size="11.00">«only» applicableDays</text>
</g>
<!-- SpecialDay -->
<g id="node5" class="node">
<title>SpecialDay</title>
<g id="a_node5"><a xlink:href="../classes/SpecialDay" xlink:title="SpecialDay">
<polygon fill="lightgray" stroke="none" points="41.88,-98.88 41.88,-115.12 106.12,-115.12 106.12,-98.88 41.88,-98.88"/>
<text xml:space="preserve" text-anchor="start" x="42.88" y="-102.72" font-family="Arial" font-size="12.00">SpecialDay</text>
<polygon fill="none" stroke="black" points="40.88,-97.88 40.88,-116.12 107.12,-116.12 107.12,-97.88 40.88,-97.88"/>
</a>
</g>
</g>
<!-- Period&#45;&gt;SpecialDay -->
<g id="edge7" class="edge">
<title>Period&#45;&gt;SpecialDay</title>
<path fill="none" stroke="black" d="M214.41,-260.32C205.78,-250.05 196.08,-238.71 187,-228.5 157.12,-194.91 121.46,-157.28 98.31,-133.15"/>
<polygon fill="black" stroke="black" points="100.88,-130.77 91.43,-125.99 95.84,-135.62 100.88,-130.77"/>
<text xml:space="preserve" text-anchor="middle" x="236.27" y="-188.8" font-family="Arial" font-size="11.00">«only» recurringSpecialDay</text>
</g>
<!-- TimePeriodOfDay -->
<g id="node6" class="node">
<title>TimePeriodOfDay</title>
<g id="a_node6"><a xlink:href="../classes/TimePeriodOfDay" xlink:title="TimePeriodOfDay">
<polygon fill="lightgray" stroke="none" points="17.38,-25.88 17.38,-42.12 114.62,-42.12 114.62,-25.88 17.38,-25.88"/>
<text xml:space="preserve" text-anchor="start" x="18.38" y="-29.73" font-family="Arial" font-size="12.00">TimePeriodOfDay</text>
<polygon fill="none" stroke="black" points="16.38,-24.88 16.38,-43.12 115.62,-43.12 115.62,-24.88 16.38,-24.88"/>
</a>
</g>
</g>
<!-- Period&#45;&gt;TimePeriodOfDay -->
<g id="edge8" class="edge">
<title>Period&#45;&gt;TimePeriodOfDay</title>
<path fill="none" stroke="black" d="M278.28,-260.01C300.91,-236.21 322.51,-203.19 306,-174.5 267.67,-107.88 183.96,-70.13 126.29,-51.13"/>
<polygon fill="black" stroke="black" points="127.51,-47.85 116.92,-48.15 125.39,-54.52 127.51,-47.85"/>
<text xml:space="preserve" text-anchor="middle" x="374.76" y="-146.05" font-family="Arial" font-size="11.00">«only» recurringTimePeriodOfDay</text>
</g>
<!-- Invis&#45;&gt;DaySelector -->
<!-- DaySelector&#45;&gt;SpecialDay -->
<!-- SpecialDay&#45;&gt;TimePeriodOfDay -->
</g>
</svg>
