<?xml version="1.0" encoding="UTF-8" standalone="no"?>
<!DOCTYPE svg PUBLIC "-//W3C//DTD SVG 1.1//EN"
 "http://www.w3.org/Graphics/SVG/1.1/DTD/svg11.dtd">
<!-- Generated by graphviz version 13.1.0 (20250701.0955)
 -->
<!-- Pages: 1 -->
<svg width="328pt" height="132pt"
 viewBox="0.00 0.00 328.00 132.00" xmlns="http://www.w3.org/2000/svg" xmlns:xlink="http://www.w3.org/1999/xlink">
<g id="graph0" class="graph" transform="scale(1 1) rotate(0) translate(4 128)">
<polygon fill="white" stroke="none" points="-4,4 -4,-128 324,-128 324,4 -4,4"/>
<g id="clust2" class="cluster">
<title>cluster_associated</title>
</g>
<!-- SpecialDay -->
<g id="node1" class="node">
<title>SpecialDay</title>
<g id="a_node1"><a xlink:href="../classes/SpecialDay.md" xlink:title="&lt;TABLE&gt;">
<polygon fill="lightgray" stroke="none" points="83.88,-97.88 83.88,-114.12 148.12,-114.12 148.12,-97.88 83.88,-97.88"/>
<text xml:space="preserve" text-anchor="start" x="84.88" y="-101.72" font-family="Arial" font-size="12.00">SpecialDay</text>
<polygon fill="none" stroke="black" points="82.88,-96.88 82.88,-115.12 149.12,-115.12 149.12,-96.88 82.88,-96.88"/>
</a>
</g>
</g>
<!-- PublicHoliday -->
<g id="node2" class="node">
<title>PublicHoliday</title>
<g id="a_node2"><a xlink:href="../classes/PublicHoliday.md" xlink:title="&lt;TABLE&gt;">
<polygon fill="lightgray" stroke="none" points="1,-34 1,-50.25 231,-50.25 231,-34 1,-34"/>
<text xml:space="preserve" text-anchor="start" x="78.5" y="-37.85" font-family="Arial" font-size="12.00">PublicHoliday</text>
<text xml:space="preserve" text-anchor="start" x="2" y="-21.6" font-family="Arial" font-size="12.00">genProp:hasName: string «exactly 1, only»</text>
<polygon fill="none" stroke="black" points="0,-16.75 0,-51.25 232,-51.25 232,-16.75 0,-16.75"/>
</a>
</g>
</g>
<!-- PublicHoliday&#45;&gt;SpecialDay -->
<g id="edge1" class="edge">
<title>PublicHoliday&#45;&gt;SpecialDay</title>
<path fill="none" stroke="black" d="M116,-51.79C116,-59.25 116,-68.24 116,-76.69"/>
<polygon fill="none" stroke="black" points="112.5,-76.54 116,-86.54 119.5,-76.54 112.5,-76.54"/>
</g>
<!-- Invis -->
</g>
</svg>
