<?xml version="1.0" encoding="UTF-8" standalone="no"?>
<!DOCTYPE svg PUBLIC "-//W3C//DTD SVG 1.1//EN"
 "http://www.w3.org/Graphics/SVG/1.1/DTD/svg11.dtd">
<!-- Generated by graphviz version 13.1.0 (20250701.0955)
 -->
<!-- Pages: 1 -->
<svg width="399pt" height="219pt"
 viewBox="0.00 0.00 399.00 219.00" xmlns="http://www.w3.org/2000/svg" xmlns:xlink="http://www.w3.org/1999/xlink">
<g id="graph0" class="graph" transform="scale(1 1) rotate(0) translate(4 214.5)">
<polygon fill="white" stroke="none" points="-4,4 -4,-214.5 394.62,-214.5 394.62,4 -4,4"/>
<g id="clust2" class="cluster">
<title>cluster_associated</title>
</g>
<!-- TimeThing -->
<g id="node1" class="node">
<title>TimeThing</title>
<g id="a_node1"><a xlink:href="../classes/TimeThing.md" xlink:title="&lt;TABLE&gt;">
<polygon fill="lightgray" stroke="none" points="113.12,-184.38 113.12,-200.62 172.12,-200.62 172.12,-184.38 113.12,-184.38"/>
<text xml:space="preserve" text-anchor="start" x="114.12" y="-188.22" font-family="Arial" font-size="12.00">TimeThing</text>
<polygon fill="none" stroke="black" points="112.12,-183.38 112.12,-201.62 173.12,-201.62 173.12,-183.38 112.12,-183.38"/>
</a>
</g>
</g>
<!-- SpecialDay -->
<g id="node2" class="node">
<title>SpecialDay</title>
<g id="a_node2"><a xlink:href="../classes/SpecialDay.md" xlink:title="&lt;TABLE&gt;">
<polygon fill="lightgray" stroke="none" points="1,-119.5 1,-135.75 284.25,-135.75 284.25,-119.5 1,-119.5"/>
<text xml:space="preserve" text-anchor="start" x="111.5" y="-123.35" font-family="Arial" font-size="12.00">SpecialDay</text>
<text xml:space="preserve" text-anchor="start" x="2" y="-107.1" font-family="Arial" font-size="12.00">intersectWithApplicableDays: string «exactly 1, only»</text>
<polygon fill="none" stroke="black" points="0,-102.25 0,-136.75 285.25,-136.75 285.25,-102.25 0,-102.25"/>
</a>
</g>
</g>
<!-- SpecialDay&#45;&gt;TimeThing -->
<g id="edge1" class="edge">
<title>SpecialDay&#45;&gt;TimeThing</title>
<path fill="none" stroke="black" d="M142.62,-137.21C142.62,-144.97 142.62,-154.42 142.62,-163.24"/>
<polygon fill="none" stroke="black" points="139.13,-163.16 142.63,-173.16 146.13,-163.16 139.13,-163.16"/>
</g>
<!-- Invis -->
<!-- SpecialDay&#45;&gt;Invis -->
<!-- code_Code -->
<g id="node4" class="node">
<title>code_Code</title>
<polygon fill="lightgray" stroke="none" points="313.38,-25.88 313.38,-42.12 373.88,-42.12 373.88,-25.88 313.38,-25.88"/>
<text xml:space="preserve" text-anchor="start" x="314.38" y="-29.73" font-family="Arial" font-size="12.00">code:Code</text>
<polygon fill="none" stroke="black" points="312.38,-24.88 312.38,-43.12 374.88,-43.12 374.88,-24.88 312.38,-24.88"/>
</g>
<!-- SpecialDay&#45;&gt;code_Code -->
<g id="edge4" class="edge">
<title>SpecialDay&#45;&gt;code_Code</title>
<path fill="none" stroke="black" d="M67.17,-101.51C48.72,-93.93 37.32,-83.58 49.38,-70 65.8,-51.5 223.7,-41.04 301.18,-36.98"/>
<polygon fill="black" stroke="black" points="301.12,-40.49 310.93,-36.49 300.76,-33.5 301.12,-40.49"/>
<text xml:space="preserve" text-anchor="middle" x="112" y="-73.05" font-family="Arial" font-size="11.00">«max 1, only» publicEvent</text>
</g>
<!-- SpecialDay&#45;&gt;code_Code -->
<g id="edge5" class="edge">
<title>SpecialDay&#45;&gt;code_Code</title>
<path fill="none" stroke="black" d="M158.35,-101.68C170.14,-89.41 185.55,-74.23 193.38,-70 227.01,-51.81 269.85,-43.02 301.18,-38.81"/>
<polygon fill="black" stroke="black" points="301.58,-42.29 311.08,-37.59 300.72,-35.34 301.58,-42.29"/>
<text xml:space="preserve" text-anchor="middle" x="272.5" y="-73.05" font-family="Arial" font-size="11.00">«exactly 1, only» specialDayType</text>
</g>
<!-- Invis&#45;&gt;code_Code -->
</g>
</svg>
