<?xml version="1.0" encoding="UTF-8" standalone="no"?>
<!DOCTYPE svg PUBLIC "-//W3C//DTD SVG 1.1//EN"
 "http://www.w3.org/Graphics/SVG/1.1/DTD/svg11.dtd">
<!-- Generated by graphviz version 13.1.0 (20250701.0955)
 -->
<!-- Pages: 1 -->
<svg width="322pt" height="292pt"
 viewBox="0.00 0.00 322.00 292.00" xmlns="http://www.w3.org/2000/svg" xmlns:xlink="http://www.w3.org/1999/xlink">
<g id="graph0" class="graph" transform="scale(1 1) rotate(0) translate(4 287.5)">
<polygon fill="white" stroke="none" points="-4,4 -4,-287.5 318.12,-287.5 318.12,4 -4,4"/>
<g id="clust2" class="cluster">
<title>cluster_associated</title>
</g>
<!-- TimeThing -->
<g id="node1" class="node">
<title>TimeThing</title>
<g id="a_node1"><a xlink:href="../classes/TimeThing.md" xlink:title="&lt;TABLE&gt;">
<polygon fill="lightgray" stroke="none" points="60.62,-257.38 60.62,-273.62 119.62,-273.62 119.62,-257.38 60.62,-257.38"/>
<text xml:space="preserve" text-anchor="start" x="61.62" y="-261.23" font-family="Arial" font-size="12.00">TimeThing</text>
<polygon fill="none" stroke="black" points="59.62,-256.38 59.62,-274.62 120.62,-274.62 120.62,-256.38 59.62,-256.38"/>
</a>
</g>
</g>
<!-- Validity -->
<g id="node2" class="node">
<title>Validity</title>
<g id="a_node2"><a xlink:href="../classes/Validity.md" xlink:title="&lt;TABLE&gt;">
<polygon fill="lightgray" stroke="none" points="1,-192.5 1,-208.75 179.25,-208.75 179.25,-192.5 1,-192.5"/>
<text xml:space="preserve" text-anchor="start" x="71" y="-196.35" font-family="Arial" font-size="12.00">Validity</text>
<text xml:space="preserve" text-anchor="start" x="2" y="-180.1" font-family="Arial" font-size="12.00">overrunning: string «max 1, only»</text>
<polygon fill="none" stroke="black" points="0,-175.25 0,-209.75 180.25,-209.75 180.25,-175.25 0,-175.25"/>
</a>
</g>
</g>
<!-- Validity&#45;&gt;TimeThing -->
<g id="edge1" class="edge">
<title>Validity&#45;&gt;TimeThing</title>
<path fill="none" stroke="black" d="M90.12,-210.21C90.12,-217.97 90.12,-227.42 90.12,-236.24"/>
<polygon fill="none" stroke="black" points="86.63,-236.16 90.13,-246.16 93.63,-236.16 86.63,-236.16"/>
</g>
<!-- Invis -->
<!-- Validity&#45;&gt;Invis -->
<!-- OverallPeriod -->
<g id="node4" class="node">
<title>OverallPeriod</title>
<g id="a_node4"><a xlink:href="../classes/OverallPeriod" xlink:title="OverallPeriod">
<polygon fill="lightgray" stroke="none" points="221.38,-98.88 221.38,-115.12 296.88,-115.12 296.88,-98.88 221.38,-98.88"/>
<text xml:space="preserve" text-anchor="start" x="222.38" y="-102.72" font-family="Arial" font-size="12.00">OverallPeriod</text>
<polygon fill="none" stroke="black" points="220.38,-97.88 220.38,-116.12 297.88,-116.12 297.88,-97.88 220.38,-97.88"/>
</a>
</g>
</g>
<!-- Validity&#45;&gt;OverallPeriod -->
<g id="edge6" class="edge">
<title>Validity&#45;&gt;OverallPeriod</title>
<path fill="none" stroke="black" d="M83.82,-174.79C81.1,-164.45 80,-151.56 87.38,-143 104.93,-122.61 180.94,-131.2 207.12,-125 207.94,-124.81 208.76,-124.61 209.58,-124.4"/>
<polygon fill="black" stroke="black" points="210.24,-127.85 218.97,-121.83 208.4,-121.1 210.24,-127.85"/>
<text xml:space="preserve" text-anchor="middle" x="186.75" y="-146.05" font-family="Arial" font-size="11.00">«exactly 1, only» validityTimeSpecification</text>
</g>
<!-- code_Code -->
<g id="node5" class="node">
<title>code_Code</title>
<polygon fill="lightgray" stroke="none" points="224.88,-25.88 224.88,-42.12 285.38,-42.12 285.38,-25.88 224.88,-25.88"/>
<text xml:space="preserve" text-anchor="start" x="225.88" y="-29.73" font-family="Arial" font-size="12.00">code:Code</text>
<polygon fill="none" stroke="black" points="223.88,-24.88 223.88,-43.12 286.38,-43.12 286.38,-24.88 223.88,-24.88"/>
</g>
<!-- Validity&#45;&gt;code_Code -->
<g id="edge5" class="edge">
<title>Validity&#45;&gt;code_Code</title>
<path fill="none" stroke="black" d="M78.29,-174.51C64.66,-152.63 46.44,-114.41 65.62,-89 83.31,-65.57 162.46,-49.28 212.71,-41.09"/>
<polygon fill="black" stroke="black" points="213.05,-44.58 222.39,-39.57 211.96,-37.67 213.05,-44.58"/>
<text xml:space="preserve" text-anchor="middle" x="138.38" y="-103.3" font-family="Arial" font-size="11.00">«exactly 1, only» validityStatus</text>
</g>
<!-- Invis&#45;&gt;OverallPeriod -->
<!-- OverallPeriod&#45;&gt;code_Code -->
</g>
</svg>
